<?xml version="1.0" encoding="utf-8"?>
<!-- Generator: Adobe Illustrator 21.0.0, SVG Export Plug-In . SVG Version: 6.00 Build 0)  -->
<svg version="1.1" id="Objects" xmlns="http://www.w3.org/2000/svg" xmlns:xlink="http://www.w3.org/1999/xlink" x="0px" y="0px"
	 viewBox="0 0 605.3 371.1" enable-background="new 0 0 605.3 371.1" xml:space="preserve">
<path fill="#FFFFFF" d="M555.8,371.1H49.5C22.2,371.1,0,348.9,0,321.5v-272C0,22.2,22.2,0,49.5,0h506.2c27.4,0,49.5,22.2,49.5,49.5
	v272C605.3,348.9,583.1,371.1,555.8,371.1z"/>
<linearGradient id="SVGID_1_" gradientUnits="userSpaceOnUse" x1="102.366" y1="745.653" x2="465.5137" y2="1108.8009" gradientTransform="matrix(1 0 0 1 0 -761.2371)">
	<stop  offset="0" style="stop-color:#1616A3"/>
	<stop  offset="1" style="stop-color:#1B1B46"/>
</linearGradient>
<path fill="url(#SVGID_1_)" d="M475.2,319.2h-425c-22.7,0-38.8-18.4-35.9-41.1l32-224.2C49.2,31.2,70,12.8,92.7,12.8h425
	c22.7,0,38.8,18.4,35.9,41.1l-32,224.2C518.6,300.8,497.9,319.2,475.2,319.2z"/>
<g>
	<path fill="#FFFFFF" d="M127.1,296.3c-20.5,0-37-7.2-49.4-21.7s-17.1-32-14.1-52.5s12.7-37.9,29.3-52.4
		c16.5-14.5,35.1-21.7,55.6-21.7s36.9,7.2,49.3,21.7l-33.4,29.2c-5.5-6.4-12.8-9.7-21.9-9.7c-9.1,0-17.4,3.2-24.7,9.7
		c-7.4,6.4-11.7,14.2-13,23.2c-1.3,9.1,0.8,16.9,6.3,23.4c5.5,6.4,12.8,9.7,22,9.7c9.1,0,17.3-3.2,24.6-9.7l24.9,29.2
		C166.1,289.1,147.5,296.3,127.1,296.3z"/>
	<path fill="#FFFFFF" d="M353.9,147.9l-6,41.2h-86.6l-2.4,16.5h59.2l-4.8,33h-59.1l-2.4,16.5h86.6l-6,41.2H204.6L226,147.9H353.9z"
		/>
	<path fill="#FFFFFF" d="M419,296.3c-18.1,0-32.7-6.4-43.6-19.2c-11-12.8-15.1-28.3-12.5-46.4l12-82.8h41.2l-12,82.8
		c-1,6.7,0.6,12.5,4.7,17.2c4.1,4.8,9.5,7.2,16.2,7.2s12.8-2.4,18.2-7.2c5.5-4.8,8.7-10.5,9.6-17.2l12-82.8H506l-12,82.8
		c-2.6,18.1-11.3,33.6-25.9,46.4C453.4,289.9,437,296.3,419,296.3z"/>
</g>
<g>
	<path fill="#FFFFFF" d="M402.6,34.4H116.8c-20.2,0-38.6,16.4-41.2,36.5l-8.1,57l408.6-0.7L402.6,34.4z"/>
</g>
<g>
	<path fill="#FFFFFF" d="M317.7,34.4H551c20.2,0,38.6,16.4,41.2,36.5l-4.2,57l-344.6-0.7L317.7,34.4z"/>
</g>
<g enable-background="new    ">
	<path fill="#060682" d="M161.9,340.2c0.6-3.4,2.8-4.1,5.1-4.1c0,0,6.8,0.2,8.6,0.4l-0.5,3.2h-7.8c-1.4,0-1.6,0.8-1.7,1.6l-0.5,3.1
		l7.9,0.3l-0.5,3.2l-7.9,0.3l-0.5,3.2c-0.2,1.5,0.7,1.4,1.5,1.4h7.5l-0.5,3.2c-1.6,0.2-8.5,0.5-8.5,0.5c-1.9,0.1-4.6-0.8-4-4.3
		L161.9,340.2z"/>
	<path fill="#060682" d="M177,341.8h3.1l0.5,1.6c1.4-0.9,2.7-1.8,5-1.8c3.4,0,4,2.4,3.6,5.2l-1.6,9.8h-3.9l1.6-9.9
		c0.2-1.4-0.3-2-1.3-2c-1.6,0-2.5,0.4-3.8,1.3l-1.7,10.6h-3.9L177,341.8z"/>
	<path fill="#060682" d="M198.4,341.5c3.2,0,6,0.9,5.8,4.3c-0.4,6.7-8.6,5.4-9.6,5c-0.4,2.3,0.2,2.8,2.1,2.9c1.6,0.1,4.3-0.2,6-0.5
		l-0.5,2.8c-2.2,0.7-4.6,1-7.7,0.8c-3.5-0.2-4.7-3.1-3.7-8.5C191.8,343.6,193,341.5,198.4,341.5z M200.2,346.3
		c0.3-1.4-0.5-1.7-2.1-1.6c-2.6,0-2.9,1.7-3.3,3.6C194.9,348.2,199.7,349,200.2,346.3z"/>
	<path fill="#060682" d="M207,341.8h3.3l0.3,1.9c1.2-1,2.7-2,4.6-2c0.6,0,1.3,0,1.6,0.2l-0.6,3.8c-0.4,0-1.3-0.1-2.1-0.1
		c-1.6,0-2.8,0.3-4,1.6l-1.5,9.4h-3.9L207,341.8z"/>
	<path fill="#060682" d="M215.5,360.8h6.3c1.4,0,2.5-0.9,2.8-2.6l0.4-2.7c-1.2,0.8-2.6,1.1-3.8,1.1c-4.3,0-5.1-3.3-4.3-8.3
		s3.2-6.8,6.5-6.8c2.9,0,6.3,0.4,7.7,0.8l-2.6,16.3c-0.6,3.8-2.8,5.9-6.7,5.5l-6.6-0.7L215.5,360.8z M222.2,353.5
		c1.3,0,1.9-0.1,3.2-0.6l1.3-8.4h-3c-2.2,0-2.8,2.8-3,4.2C220.3,351.3,220,353.5,222.2,353.5z"/>
	<path fill="#060682" d="M233.5,341.8h3.9l-2.3,14.8h-3.9L233.5,341.8z M234.1,337.1c0.1-0.4,0.3-0.7,0.8-0.7h2.9
		c0.4,0,0.6,0.3,0.5,0.7l-0.4,2.5c-0.1,0.4-0.3,0.6-0.7,0.6h-2.9c-0.4,0-0.6-0.3-0.6-0.6L234.1,337.1z"/>
	<path fill="#060682" d="M245.4,341.5c2.1-0.1,5.5,0.4,6.9,1.7l-1.9,13.3h-3l-0.6-1.5c-0.7,0.9-2.7,1.7-4.5,1.7
		c-2.9,0-5-2.3-3.9-8.4S242.8,341.6,245.4,341.5z M243.7,353.4c1.6,0,2.5-0.5,3.4-1.4l1.1-7.1c-0.9-0.3-2.1-0.4-2.9-0.3
		c-1.3,0.3-2.4,0.6-3,4.4C241.8,351.8,242,353.4,243.7,353.4z"/>
	<path fill="#060682" d="M253.3,353.5h7c0.3,0,1,0,1.1-0.9l0.1-0.8c0.1-0.6-0.1-0.9-0.9-0.9h-3.3c-2.6,0-4.1-1.4-3.6-4.3l0.2-1.3
		c0.4-2.3,1.6-3.7,4.5-3.7c2.8,0,6.7,0.1,7.7,0.8l-0.4,2.4H259c-1,0-1.2,0.5-1.3,1l-0.1,0.7c-0.2,1.1,0.5,0.9,1,0.9h3.4
		c2.8,0,3.8,2,3.4,4.1l-0.3,1.7c-0.5,3-2.5,3.4-4.2,3.4c-2.8,0-7.2-0.1-8.1-0.8L253.3,353.5z"/>
	<path fill="#060682" d="M276.1,341.8h3.3l0.3,1.9c1.2-1,2.7-2,4.6-2c0.6,0,1.3,0,1.6,0.2l-0.6,3.8c-0.4,0-1.3-0.1-2.1-0.1
		c-1.6,0-2.8,0.3-4,1.6l-1.5,9.4h-3.9L276.1,341.8z"/>
	<path fill="#060682" d="M293.4,341.5c3.2,0,6,0.9,5.8,4.3c-0.4,6.7-8.6,5.4-9.6,5c-0.4,2.3,0.2,2.8,2.1,2.9c1.6,0.1,4.3-0.2,6-0.5
		l-0.5,2.8c-2.2,0.7-4.6,1-7.7,0.8c-3.5-0.2-4.7-3.1-3.7-8.5C286.7,343.6,287.9,341.5,293.4,341.5z M295.1,346.3
		c0.3-1.4-0.5-1.7-2.1-1.6c-2.6,0-2.9,1.7-3.3,3.6C289.8,348.2,294.7,349,295.1,346.3z"/>
	<path fill="#060682" d="M301.9,341.8h3.1l0.5,1.6c1.4-0.9,2.7-1.8,5-1.8c3.4,0,4,2.4,3.6,5.2l-1.6,9.8h-3.9l1.6-9.9
		c0.2-1.4-0.3-2-1.3-2c-1.6,0-2.5,0.4-3.8,1.3l-1.7,10.6h-3.9L301.9,341.8z"/>
	<path fill="#060682" d="M323.7,341.6c5,0,6.5,2.6,5.6,8.2c-0.9,5.5-2.7,6.9-7.8,6.9c-5,0-6.6-2.4-5.7-7.7
		C316.7,342.9,318.7,341.6,323.7,341.6z M321.8,353.5c2.1,0,2.9-0.3,3.5-4.2s0.2-4.6-2.1-4.6c-2.3,0-2.9,0.6-3.6,4.6
		C319,353.1,319.8,353.5,321.8,353.5z"/>
	<path fill="#060682" d="M335,341.8l1.6,10.4l3.5-7.3c0.4-0.8,0.7-1.6,0.9-3.1h3.6c0.3,1.6-0.2,3.2-0.8,4.3l-5.4,10.5h-4.7
		l-2.8-14.8H335z"/>
	<path fill="#060682" d="M352.2,341.5c2.1-0.1,5.5,0.4,6.9,1.7l-1.9,13.3h-3l-0.6-1.5c-0.7,0.9-2.7,1.7-4.5,1.7
		c-2.9,0-5-2.3-3.9-8.4C346.4,342.2,349.6,341.6,352.2,341.5z M350.6,353.4c1.6,0,2.5-0.5,3.4-1.4l1.1-7.1c-0.9-0.3-2.1-0.4-2.9-0.3
		c-1.3,0.3-2.4,0.6-3,4.4C348.6,351.8,348.8,353.4,350.6,353.4z M354.9,335.9h3.4l-4,3.8h-2.5L354.9,335.9z"/>
	<path fill="#060682" d="M364.7,341.8l1.6,10.4l3.5-7.3c0.4-0.8,0.7-1.6,0.9-3.1h3.6c0.3,1.6-0.2,3.2-0.8,4.3l-5.4,10.5h-4.7
		l-2.8-14.8H364.7z"/>
	<path fill="#060682" d="M382.5,341.5c3.2,0,6,0.9,5.8,4.3c-0.4,6.7-8.6,5.4-9.6,5c-0.4,2.3,0.2,2.8,2.1,2.9c1.6,0.1,4.3-0.2,6-0.5
		l-0.5,2.8c-2.2,0.7-4.6,1-7.7,0.8c-3.5-0.2-4.7-3.1-3.7-8.5C375.8,343.6,377.1,341.5,382.5,341.5z M384.3,346.3
		c0.3-1.4-0.5-1.7-2.1-1.6c-2.6,0-2.9,1.7-3.3,3.6C379,348.2,383.8,349,384.3,346.3z"/>
	<path fill="#060682" d="M391,341.8h3.9l-2.3,14.8h-3.9L391,341.8z M391.5,337.1c0.1-0.4,0.3-0.7,0.8-0.7h2.9c0.4,0,0.6,0.3,0.5,0.7
		l-0.4,2.5c-0.1,0.4-0.3,0.6-0.7,0.6h-2.9c-0.4,0-0.6-0.3-0.6-0.6L391.5,337.1z"/>
	<path fill="#060682" d="M395.7,353.5h7c0.3,0,1,0,1.1-0.9l0.1-0.8c0.1-0.6-0.1-0.9-0.9-0.9h-3.3c-2.6,0-4.1-1.4-3.6-4.3l0.2-1.3
		c0.4-2.3,1.6-3.7,4.5-3.7c2.8,0,6.7,0.1,7.7,0.8l-0.4,2.4h-6.7c-1,0-1.2,0.5-1.3,1l-0.1,0.7c-0.2,1.1,0.5,0.9,1,0.9h3.4
		c2.8,0,3.8,2,3.4,4.1l-0.3,1.7c-0.5,3-2.5,3.4-4.2,3.4c-2.8,0-7.2-0.1-8.1-0.8L395.7,353.5z"/>
</g>
<g>
	<g>
		<g>
			<defs>
				<path id="SVGID_2_" d="M592.2,71c-2.6-20.2-21-36.5-41.2-36.5H402.6h-84.9H116.8c-20.2,0-38.6,16.4-41.2,36.5l-8.1,57l282.3-0.5
					L588,128L592.2,71z"/>
			</defs>
			<clipPath id="SVGID_3_">
				<use xlink:href="#SVGID_2_"  overflow="visible"/>
			</clipPath>
			<g clip-path="url(#SVGID_3_)">
				
					<linearGradient id="SVGID_4_" gradientUnits="userSpaceOnUse" x1="590.2117" y1="874.7871" x2="56.0282" y2="874.7871" gradientTransform="matrix(1 0 0 1 0 -761.2371)">
					<stop  offset="6.990714e-02" style="stop-color:#22BDE8"/>
					<stop  offset="1" style="stop-color:#2270EF"/>
				</linearGradient>
				<path opacity="0.91" fill="url(#SVGID_4_)" enable-background="new    " d="M568.1,128.9c17.9-1.2,34.5-2.3,50.1-3.4
					c-3.9-9.1-7.8-18.2-11.8-27.3c-16,0.1-33,0.2-51.4,0.4C559.4,108.7,563.8,118.8,568.1,128.9z"/>
				
					<linearGradient id="SVGID_5_" gradientUnits="userSpaceOnUse" x1="590.2117" y1="877.4371" x2="56.0282" y2="877.4371" gradientTransform="matrix(1 0 0 1 0 -761.2371)">
					<stop  offset="6.990714e-02" style="stop-color:#22BDE8"/>
					<stop  offset="1" style="stop-color:#2270EF"/>
				</linearGradient>
				<path opacity="0.91" fill="url(#SVGID_5_)" enable-background="new    " d="M560.3,129.4c-4.4-10.2-8.9-20.5-13.3-30.7
					c-20.3,0.2-42.3,0.3-66.2,0.5c5,11.5,10.1,23,15,34.5C519,132.2,540.5,130.7,560.3,129.4z"/>
				
					<linearGradient id="SVGID_6_" gradientUnits="userSpaceOnUse" x1="590.2117" y1="880.9371" x2="56.0282" y2="880.9371" gradientTransform="matrix(1 0 0 1 0 -761.2371)">
					<stop  offset="6.990714e-02" style="stop-color:#22BDE8"/>
					<stop  offset="1" style="stop-color:#2270EF"/>
				</linearGradient>
				<path opacity="0.91" fill="url(#SVGID_6_)" enable-background="new    " d="M485.6,134.4c-5.1-11.7-10.2-23.4-15.3-35.2
					c-26.8,0.2-56.1,0.4-88.2,0.7c5.8,13.4,11.7,26.8,17.5,40.3C430.9,138.1,459.4,136.2,485.6,134.4z"/>
				
					<linearGradient id="SVGID_7_" gradientUnits="userSpaceOnUse" x1="590.2117" y1="885.0371" x2="56.0282" y2="885.0371" gradientTransform="matrix(1 0 0 1 0 -761.2371)">
					<stop  offset="6.990714e-02" style="stop-color:#22BDE8"/>
					<stop  offset="1" style="stop-color:#2270EF"/>
				</linearGradient>
				<path opacity="0.91" fill="url(#SVGID_7_)" enable-background="new    " d="M383.4,139.9c-5.1-11.7-9-28.4-14.1-40.2
					c-26.8,0.2-93.6,0-125.7,0.3c5.8,13.4,15,34.5,20.9,47.9C295.8,145.8,357.2,141.6,383.4,139.9z"/>
				
					<linearGradient id="SVGID_8_" gradientUnits="userSpaceOnUse" x1="590.2117" y1="893.1371" x2="56.0282" y2="893.1371" gradientTransform="matrix(1 0 0 1 0 -761.2371)">
					<stop  offset="6.990714e-02" style="stop-color:#22BDE8"/>
					<stop  offset="1" style="stop-color:#2270EF"/>
				</linearGradient>
				<path opacity="0.91" fill="url(#SVGID_8_)" enable-background="new    " d="M223.4,101.1c-54.1,0.4-115.5,0.9-185.8,1.4
					c8.8,20.1,17.6,40.1,26.4,60.2c68.5-4.6,128.3-8.6,181-12.2C237.8,134.1,230.6,117.6,223.4,101.1z"/>
				
					<linearGradient id="SVGID_9_" gradientUnits="userSpaceOnUse" x1="590.2117" y1="840.4871" x2="56.0282" y2="840.4871" gradientTransform="matrix(1 0 0 1 0 -761.2371)">
					<stop  offset="6.990714e-02" style="stop-color:#22BDE8"/>
					<stop  offset="1" style="stop-color:#2270EF"/>
				</linearGradient>
				<path opacity="0.91" fill="url(#SVGID_9_)" enable-background="new    " d="M553.2,94.4c18.4,0,35.5,0,51.6,0
					c-4-9.1-7.9-18.2-11.8-27.3c-16.4-0.9-34-1.9-52.9-3C544.5,74.3,548.8,84.4,553.2,94.4z"/>
				
					<linearGradient id="SVGID_10_" gradientUnits="userSpaceOnUse" x1="590.2117" y1="838.3371" x2="56.0282" y2="838.3371" gradientTransform="matrix(1 0 0 1 0 -761.2371)">
					<stop  offset="6.990714e-02" style="stop-color:#22BDE8"/>
					<stop  offset="1" style="stop-color:#2270EF"/>
				</linearGradient>
				<path opacity="0.91" fill="url(#SVGID_10_)" enable-background="new    " d="M545.1,94.4c-4.4-10.2-8.9-20.5-13.3-30.7
					c-20.9-1.2-43.6-2.5-68-3.9c5,11.5,10,23,15,34.6C502.6,94.4,524.7,94.4,545.1,94.4z"/>
				
					<linearGradient id="SVGID_11_" gradientUnits="userSpaceOnUse" x1="590.2117" y1="835.3871" x2="56.0282" y2="835.3871" gradientTransform="matrix(1 0 0 1 0 -761.2371)">
					<stop  offset="6.990714e-02" style="stop-color:#22BDE8"/>
					<stop  offset="1" style="stop-color:#2270EF"/>
				</linearGradient>
				<path opacity="0.91" fill="url(#SVGID_11_)" enable-background="new    " d="M362.1,54c5.9,13.4,11.7,26.9,17.5,40.3
					c32.3,0,61.7,0,88.6,0c-5.1-11.7-10.2-23.5-15.3-35.2C425.3,57.6,395.2,55.9,362.1,54z"/>
				
					<linearGradient id="SVGID_12_" gradientUnits="userSpaceOnUse" x1="590.2117" y1="831.3871" x2="56.0282" y2="831.3871" gradientTransform="matrix(1 0 0 1 0 -761.2371)">
					<stop  offset="6.990714e-02" style="stop-color:#22BDE8"/>
					<stop  offset="1" style="stop-color:#2270EF"/>
				</linearGradient>
				<path opacity="0.91" fill="url(#SVGID_12_)" enable-background="new    " d="M365.3,94.3c-6-13.7-11.9-27.4-17.9-41.1
					c-38-2.2-80.2-4.6-127.3-7.2c7,16.1,14.1,32.2,21.1,48.3C287,94.3,328.2,94.3,365.3,94.3z"/>
				
					<linearGradient id="SVGID_13_" gradientUnits="userSpaceOnUse" x1="590.2117" y1="825.3371" x2="56.0282" y2="825.3371" gradientTransform="matrix(1 0 0 1 0 -761.2371)">
					<stop  offset="6.990714e-02" style="stop-color:#22BDE8"/>
					<stop  offset="1" style="stop-color:#2270EF"/>
				</linearGradient>
				<path opacity="0.91" fill="url(#SVGID_13_)" enable-background="new    " d="M198.7,44.8C143,41.6,79.8,38,7.4,33.9
					C16.3,54,25.1,74.1,33.9,94.2c70.6,0,132.2,0.1,186.5,0.1C213.1,77.8,205.9,61.3,198.7,44.8z"/>
				
					<linearGradient id="SVGID_14_" gradientUnits="userSpaceOnUse" x1="590.2117" y1="807.7871" x2="56.0282" y2="807.7871" gradientTransform="matrix(1 0 0 1 0 -761.2371)">
					<stop  offset="6.990714e-02" style="stop-color:#22BDE8"/>
					<stop  offset="1" style="stop-color:#2270EF"/>
				</linearGradient>
				<path opacity="0.91" fill="url(#SVGID_14_)" enable-background="new    " d="M538.7,60c15.1,1,39.5,2.7,52.8,3.5
					c-3.6-8.2-8.5-19.3-12-27.5c-13.6-1.6-38.4-4.5-53.8-6.4C529.5,38.6,534.8,51,538.7,60z"/>
				
					<linearGradient id="SVGID_15_" gradientUnits="userSpaceOnUse" x1="590.2117" y1="801.1371" x2="56.0282" y2="801.1371" gradientTransform="matrix(1 0 0 1 0 -761.2371)">
					<stop  offset="6.990714e-02" style="stop-color:#22BDE8"/>
					<stop  offset="1" style="stop-color:#2270EF"/>
				</linearGradient>
				<path opacity="0.91" fill="url(#SVGID_15_)" enable-background="new    " d="M446.6,20.4c5,11.5,10,23.1,15,34.6
					c24.6,1.6,47.3,3.1,68.3,4.4c-4.4-10.2-8.9-20.5-13.3-30.8C495.1,26.1,471.8,23.4,446.6,20.4z"/>
				
					<linearGradient id="SVGID_16_" gradientUnits="userSpaceOnUse" x1="590.2117" y1="792.4371" x2="56.0282" y2="792.4371" gradientTransform="matrix(1 0 0 1 0 -761.2371)">
					<stop  offset="6.990714e-02" style="stop-color:#22BDE8"/>
					<stop  offset="1" style="stop-color:#2270EF"/>
				</linearGradient>
				<path opacity="0.91" fill="url(#SVGID_16_)" enable-background="new    " d="M342.1,8.1c5.9,13.5,11.7,26.9,17.6,40.3
					c33.2,2.1,63.5,4.1,91.1,5.9c-5.1-11.7-10.2-23.5-15.3-35.2C407.1,15.8,376.1,12.1,342.1,8.1z"/>
				
					<linearGradient id="SVGID_17_" gradientUnits="userSpaceOnUse" x1="590.2117" y1="780.4371" x2="56.0282" y2="780.4371" gradientTransform="matrix(1 0 0 1 0 -761.2371)">
					<stop  offset="6.990714e-02" style="stop-color:#22BDE8"/>
					<stop  offset="1" style="stop-color:#2270EF"/>
				</linearGradient>
				<path opacity="0.91" fill="url(#SVGID_17_)" enable-background="new    " d="M195.9-9.1C203,7,210,23.2,217,39.3
					c47.3,3,89.6,5.8,127.8,8.2c-6-13.7-12-27.4-17.9-41.2C287.8,1.7,244.4-3.4,195.9-9.1z"/>
				
					<linearGradient id="SVGID_18_" gradientUnits="userSpaceOnUse" x1="590.2117" y1="762.7371" x2="56.0282" y2="762.7371" gradientTransform="matrix(1 0 0 1 0 -761.2371)">
					<stop  offset="6.990714e-02" style="stop-color:#22BDE8"/>
					<stop  offset="1" style="stop-color:#2270EF"/>
				</linearGradient>
				<path opacity="0.91" fill="url(#SVGID_18_)" enable-background="new    " d="M174-11.7C116.7-18.5,51.7-26.1-22.8-34.9
					C-13.9-14.8-5.1,5.4,3.7,25.5c72.7,4.7,136.1,8.8,192,12.4C188.5,21.4,181.3,4.8,174-11.7z"/>
			</g>
		</g>
	</g>
</g>
</svg>
