<svg xmlns="http://www.w3.org/2000/svg" xmlns:xlink="http://www.w3.org/1999/xlink" viewBox="0 0 1112 413" xml:space="preserve">
<style type="text/css">
	.st0{fill:#ffffff;}
</style>
<g>
	<path class="st0" d="M1044.5,138.4c1.6-0.5,3.2-1,4.8-1.6c0.3-0.1,0.3-0.4,0-0.4c-7.7-0.6-14.2,2.6-20.6,6.4
		c-4.7,2.8-8.1,5.8-10,12c-0.6,1.9-1.5,1.8-2.5,0.3c-3.9-5.5-9.5-9.4-13.9-14.3c-10-11.1-21.7-17.8-36.8-17.3
		c-1.6,0.1-2.5,0.2-4.7,0.7c0,1.3,1.7,1.4,4.2,1.5c8.7,0.7,14.2,6.8,21,10.9c2.3,1.4,3.2,3.3,3,5.8c-0.3,3.9,1.4,6.9,3.9,9.8
		c3.2,3.7,6.6,7.1,10.8,10.5c-3.4,0.8-5.2,3.4-8.4,3.2c-3.4-0.3-6.8-0.3-10.2-0.3c-5.7,0-10.9,2.5-17.1,3.9c1.3,0.6,1.9,0.9,2.4,1.1
		c5.8,2.6,12.3,2.8,18,5.7c1.1,0.6,1.7-0.3,2.4-0.9c4.2-3.9,9.1-5.6,14.8-5.2c6.7,0.5,13.1-1.3,18.2-5.2c5.4-4.2,11-6.7,17.8-7.2
		c-6.3-1.8-12.7-2.1-19.1-1.3c-0.2-0.3-0.4-0.6-0.6-0.9c-0.1-1.2,0.7-2,1.3-2.8C1028.7,145.8,1035.8,140.9,1044.5,138.4z"/>
</g>
<path class="st0" d="M100.1,253.7c13.8-31.9,45.6-114.8,50.9-131.9c1.2-3.6,2.1-6.9,2.1-9c0-1.9-0.7-4.3-3.1-5.5c-2.9-1-6.4-1-9-1
	c-1.4,0-2.6-0.2-2.6-1.4c0-1.4,1.4-1.9,5.2-1.9c9.5,0,20.4,0.7,23.3,0.7c1.4,0,11.6-0.7,18.5-0.7c2.6,0,4,0.5,4,1.7
	c0,1.2-0.9,1.7-2.9,1.7c-1.7,0-6.9,0-11.4,2.9c-3.1,2.1-6.7,6.2-13.1,22.3c-2.6,6.7-14.5,35.2-26.6,64.4
	c-14.5,34.7-25.2,60.4-30.7,72c-6.7,14.3-7.6,18.1-10,18.1c-2.9,0-4-3.3-8.6-14.7L28,125.6c-5.2-13.3-8.8-15.9-17.1-18.3
	c-3.6-1-7.6-1-9-1S0,105.6,0,104.6c0-1.4,2.4-1.7,6.2-1.7c11.4,0,25,0.7,27.8,0.7c2.4,0,13.1-0.7,22.1-0.7c4.3,0,6.4,0.5,6.4,1.7
	c0,1.2-0.7,1.7-2.4,1.7c-2.6,0-6.9,0.2-9,1.2c-2.6,1.2-3.1,3.1-3.1,4.8c0,3.1,2.9,10.5,6.4,19.7L100.1,253.7z"/>
<path class="st0" d="M379.9,219.5c-0.9-0.9-1.4-1.2-2.9-1.2l-26.6-0.5c-1,0-1.4,0.5-1.4,1.7v4.8c0,19.5,0,35.2,1,43.5
	c0.7,5.9,1.9,9.7,8.3,10.7c2.9,0.5,7.4,1,9.3,1c1.4,0,1.7,0.9,1.7,1.7c0,0.9-1.1,2.2-3.5,2.2c-11.4,0-24.8,0-25.7,0
	c-0.2,0-14.1,0-20.5,0c-2.1,0-3.3-1-3.3-2.2c0-0.7,0.5-1.7,1.7-1.7c1.9,0,4.5-0.5,6.4-1c4-0.9,4.5-4.8,5.5-10.7
	c1.2-8.3,1.2-24.2,1.2-43.7v-35.7c0-31.4,0-37.1-0.5-43.5c-0.5-6.9-1.7-10.2-8.6-11.2c-1.7-0.2-5.2-0.5-7.1-0.5
	c-0.7,0-1.7-1-1.7-1.7c0-1.2,0.9-1.7,3.3-1.7c9.5,0,23.5,0.5,24.7,0.5c2.1,0,19.7-0.5,26.1-0.5c13.3,0,28,1.2,39,8.8
	c5.2,3.8,14.5,13.5,14.5,27.6c0,15-6.2,29.5-25.7,46.1 M349,205.4c0,1.2,0.5,1.9,1.4,2.6c3.1,1.7,13.8,3.1,23.1,3.1
	c5,0,10.7-0.2,15.7-3.6c7.1-4.8,12.6-15.4,12.6-30.9c0-25.2-13.8-39.7-36.1-39.7c-6.2,0-12.8,0.7-15,1.2c-0.9,0.5-1.7,1.2-1.7,2.4
	V205.4z"/>
<path class="st0" d="M466.1,188.3c0-31.4,0-37.1-0.5-43.5c-0.5-6.9-1.7-10.7-8.6-11.6c-1.7-0.2-5.2-0.5-7.1-0.5
	c-0.7,0-1.7-0.5-1.7-1.2c0-1.2,0.9-1.7,3.3-1.7c9.5,0,23.1,0.5,24.2,0.5c5,0,14.7-0.5,24.5-0.5c34.9,0,44,20.2,44,30.9
	c0,15.9-10.5,25.9-21.2,35.4c15.9,4.8,36.8,19.2,36.8,42.1c0,22.6-16.9,44.9-52.5,44.9c-3.8,0-18.2,0.1-18.2,0.1s-8.6,0-9.5,0
	c-0.3,0-2.2,0-4.5,0c-7.2,0-9.2-5.1-9.2-7.6V188.3z M484.2,192.6c0,1.4,0.5,1.9,1.4,2.1c1.2,0.2,5,0.9,12.8,0.9
	c11.6,0,16.2-0.5,20.4-5.2c4.5-5,8.1-11.9,8.1-21.6c0-15.4-8.6-32.6-29.5-32.6c-2.4,0-7.4,0.2-10.7,0.9c-1.9,0.5-2.6,1-2.6,2.1
	V192.6z M484.2,214.9c0,15.7,0,39.9,0.2,43c0.7,9.7,0.7,12.1,7.1,15.2c5.7,2.6,14.5,2.9,18.3,2.9c13.8,0,30.7-5.2,30.7-31.1
	c0-9-3.6-26.4-20-36.8c-7.1-4.5-13.8-4.3-18.8-5.2c-2.6-0.5-13.1-0.5-16.4-0.5c-0.7,0-1.2,0.5-1.2,1.4V214.9z"/>
<path class="st0" d="M590.2,188.3c0-31.4,0-37.1-0.5-43.5c-0.5-6.9-1.7-10.2-8.6-11.2c-1.7-0.2-5.2-0.5-7.1-0.5
	c-0.7,0-1.7-1-1.7-1.7c0-1.2,1-2.6,3.3-2.6c9.5,0,23,0,24.2,0c1.4,0,41.9,0,48.3,0c5.1,0,15.3-1.7,15,1.1c0,1.4-2.5,19.4-2.9,22.8
	c-0.2,2.5-0.3,2.2-1.9,2.1c-1.8,0-1.9,0.3-1.7-2.6c0.1-1.4-0.2-4.8-1.2-7.1c-1.4-3.3-3.6-4.8-15-6.2c-3.6-0.5-27.8-0.7-30.2-0.7
	c-0.9,0-1.2,0.7-1.2,2.1v54.9c0,1.4,0,2.1,1.2,2.1c2.6,0,30.2,0,34.9-0.5c1.9-0.1-0.2,9.8-0.7,9.8c-5.7-0.7-30.4-1.2-34-1.2
	c-1.2,0-1.4,0.7-1.4,1.4V224c0,6.9-0.2,30.4,0,34.5c0.5,13.5,4.3,16.2,25,16.2c5.5,0,15.4,0,20.9-2.1c5.5-2.4,8.4-5.9,9.8-15.2
	c0.5-2.4,0.2-2.1,1.9-1.9c1.7,0.2,1.6-0.1,1.4,1.6c-0.1,1.4-2.4,18.1-2.9,21c-0.8,5,0.1,5.2-5.1,5.2c-15.7,0-57.5,0.1-60.6,0.1
	c-0.5,0-17.8,0-21.1,0c-2.1,0-3.1-1-3.1-2.2c0-0.7,0.5-1.7,1.7-1.7c1.9,0,4.5-0.7,6.4-1c4-0.7,4.5-4.8,5.5-10.7
	c1.2-8.3,1.2-24.2,1.2-43.7V188.3z"/>
<path class="st0" d="M891.9,228l-19.1,52.1c-1.2,2.9-4.4,3.1-6.7,3.1c-1.3,0-5.8,0-11.1,0c-3.2,0,0.9-0.5,8.8-16.3
	c1-2,1.9-4.2,2.9-6.6L916,133.9c0.8-2,1.5-3.8,2.1-4.9l5.9,0c0.6,1.2,1.2,2.7,2,4.5c5,11.2,37.9,93.4,50.2,122.6
	c7.6,18.1,13.3,20.7,17.8,22.1c3.1,1,6.2,1.2,8.3,1.2c1.2,0,2.6,0.5,2.6,1.7c0,1.2-2.4,2.2-4.7,2.2c-3.1,0-19.8,0-33.3,0
	c-4-0.2-7.1-1.3-7.1-2.4c0-0.9,0.5-0.9,1.4-1.4c1.2-0.5,3.3-2.1,1.9-5.5l-18.8-46.3l-4.3-10.9l-20.7-55.4c-1.2-3.1-2.4-3.1-3.6,0
	l-19.5,55.4"/>
<g>
	<path class="st0" d="M688.4,382.3c0.2,0,0.5,0.1,0.7,0.1c0.2,0,0.6,0,1,0c4.6,0,6.9-6.4,6.9-19.2c0-3.2,0.1-5.7,0.1-7.6l0.2-14
		c0-3,0.1-5.9,0.1-8.8c0-2.8,0-5.9,0-9.3c0-2.9-0.5-5-1.6-6.1c-1.1-1.1-3-1.7-5.9-1.7h-0.4v-3.6c2.3,0.2,4.6,0.3,6.8,0.4
		c2.2,0.1,4.4,0.1,6.6,0.1c2.3,0,5.1-0.1,8.6-0.2c3.4-0.2,5.7-0.2,6.8-0.2c7,0,12.8,1.9,17.3,5.6c4.5,3.7,6.7,8.3,6.7,13.9
		c0,4.1-1.1,7.8-3.4,11.1c-2.2,3.2-5.6,6-10.1,8.3l9.6,14.6c0.3,0.5,0.9,1.3,1.5,2.4c6.6,10.1,12.1,15.2,16.3,15.2h0.5v2.9
		c-0.5,0-1.2,0.1-2.2,0.2c-2.2,0.2-3.9,0.3-4.9,0.3c-3.6,0-6.5-0.5-8.6-1.5c-2.1-1-4.2-2.9-6.2-5.7c-0.3-0.4-2.2-3.5-5.7-9.1
		c-3.4-5.7-6.9-11-10.4-16c-1.3,0.1-2.7,0.2-4.2,0.3c-1.5,0.1-3.1,0.1-4.9,0.1h-3.1v15.8c0,5.1,0.5,8.4,1.6,9.7c1.1,1.4,3.2,2,6.3,2
		c0.1,0,0.2,0,0.4-0.1c0.2,0,0.3-0.1,0.4-0.1c0.1,0,0.3,0,0.3,0.1c0.1,0,0.1,0.1,0.2,0.1v3.4c-2.4-0.1-4.9-0.2-7.3-0.3
		c-2.4-0.1-4.8-0.1-7.1-0.1c-1.3,0-3.1,0-5.3,0.1c-2.3,0.1-4.9,0.2-7.8,0.3V382.3z M706.7,349.4c1.6,0.2,3.2,0.3,4.7,0.4
		s2.8,0.1,3.9,0.1c1,0,2.1,0,3.3-0.1c1.2-0.1,2.6-0.1,4-0.3c3.3-2,5.7-4.3,7.2-6.9c1.5-2.6,2.3-5.7,2.3-9.4c0-4.8-1.5-8.6-4.6-11.5
		c-3.1-2.9-7.2-4.3-12.4-4.3c-1.4,0-2.8,0.1-4.1,0.2c-1.3,0.1-2.7,0.3-4,0.5c-0.1,4.3-0.2,8.6-0.2,13.1
		C706.8,335.7,706.7,341.7,706.7,349.4z"/>
	<path class="st0" d="M808.8,356.9h-25.1c-2,0-3.8,0-5.4,0.1c-1.6,0.1-3.2,0.2-4.6,0.3v1.9c0,6.7,1.6,11.9,4.7,15.6
		c3.1,3.7,7.5,5.5,13.1,5.5c2.5,0,5-0.4,7.4-1.3c2.4-0.8,5-2.2,7.8-3.9l2,3.3c-3.5,2.9-7.1,5.1-10.6,6.5c-3.5,1.5-7,2.2-10.4,2.2
		c-6.6,0-12.1-2.4-16.5-7.1c-4.3-4.7-6.5-10.8-6.5-18.3c0-7.9,2.3-14.6,6.8-19.9c4.5-5.4,10-8.1,16.6-8.1c6.1,0,10.9,2,14.5,6.1
		C806.2,343.8,808.3,349.5,808.8,356.9z M799.3,351.5c-1-4.2-2.6-7.4-4.7-9.7c-2.1-2.2-4.6-3.4-7.5-3.4c-3.3,0-6.1,1.3-8.5,4
		c-2.3,2.6-3.9,6.2-4.6,10.7c6.8,0,12.1-0.1,16-0.4S797,352,799.3,351.5z"/>
	<path class="st0" d="M867,378.1l1.4,3.2c-2.6,1.8-4.9,3.3-7,4.3c-2.1,1-3.8,1.5-5.1,1.5c-2.2,0-3.8-0.6-4.9-1.9
		c-1.1-1.3-1.7-3.2-1.8-5.8c-3.7,2.5-6.8,4.3-9.3,5.4c-2.5,1.1-4.7,1.6-6.6,1.6c-3.5,0-6.4-1.3-8.7-3.9c-2.3-2.6-3.5-5.8-3.5-9.6
		c0-6.4,6.9-11.2,20.7-14.5c3.3-0.8,5.8-1.4,7.6-1.8c0-0.6,0-1.4,0.1-2.5c0.1-2.3,0.2-3.7,0.2-4.4c0-3.6-0.7-6.2-2.2-7.9
		c-1.5-1.7-3.7-2.5-6.7-2.5c-2.9,0-5.3,0.5-7,1.6c-1.7,1.1-2.5,2.5-2.5,4.4c0,0.2,0,0.4,0,0.7c0,0.3,0.1,0.5,0.1,0.6
		c0,1.1-0.5,1.9-1.5,2.6c-1,0.7-2.3,1.1-3.7,1.1c-1.2,0-2.1-0.2-2.7-0.6c-0.6-0.4-0.9-1-0.9-1.9c0-2.7,2.3-5.8,6.9-9.2
		c4.6-3.4,9.4-5.1,14.3-5.1c4.8,0,8.4,1.3,10.9,3.9c2.5,2.6,3.7,6.5,3.7,11.5c0,2.7-0.2,7-0.5,12.6c-0.3,5.7-0.5,10-0.5,13
		c0,2.2,0.3,3.7,0.7,4.5c0.5,0.8,1.4,1.2,2.6,1.2c0.5,0,1.3-0.2,2.1-0.5C864,379.5,865.3,379,867,378.1z M849.5,360.8
		c-0.7,0.2-1.6,0.4-2.9,0.8c-11.1,3.1-16.7,6.7-16.7,10.8c0,2.3,0.7,4.1,2.2,5.5c1.4,1.4,3.3,2.1,5.7,2.1c1.4,0,3.1-0.4,5-1.1
		c1.9-0.8,4.1-2,6.6-3.6L849.5,360.8z"/>
	<path class="st0" d="M892.9,306.1c-0.2,6.4-0.3,14.7-0.4,24.9c0,3.9,0,6.8,0,8.5l-0.1,10.5v8v10.7v4.2c0,3.9,0.4,6.4,1.3,7.5
		c0.9,1,2.5,1.6,5,1.6h1.2v3.6c-2.4-0.2-4.6-0.3-6.7-0.4c-2.1-0.1-3.9-0.1-5.5-0.1c-1.6,0-3.4,0-5.3,0.1c-1.9,0.1-3.9,0.2-6,0.4
		l0-3.6c0.2,0,0.5,0,0.9,0.1c0.4,0,0.6,0.1,0.8,0.1c2.4,0,4-0.6,4.8-1.9c0.8-1.3,1.2-4.9,1.2-10.9v-3.8l0.2-38.7V318
		c0-1.5-0.3-2.6-0.9-3.3c-0.6-0.7-1.6-1.1-2.9-1.1c-0.5,0-1.4,0.1-2.7,0.4c-0.2,0-0.3,0.1-0.4,0.1l-0.8-3.3c2.9-0.5,5.7-1.1,8.4-1.9
		C887.7,308,890.3,307.1,892.9,306.1z"/>
	<path class="st0" d="M925.7,325.4l3.4,1c-0.2,1.9-0.4,3.6-0.5,5.1c-0.1,1.5-0.2,3-0.2,4.4h3.6c2,0,3.9,0,6-0.1
		c2-0.1,4.1-0.1,6.1-0.2l-1.2,5.6c-2.2-0.2-4.3-0.3-6.2-0.3c-1.9-0.1-3.9-0.1-5.8-0.1h-2.4c-0.2,5.9-0.4,10.4-0.4,13.5
		c-0.1,3.1-0.1,5.7-0.1,7.8c0,7.7,0.5,12.8,1.6,15.1c1.1,2.3,3,3.5,5.7,3.5c1.1,0,2.4-0.2,3.8-0.7c1.4-0.5,3.1-1.3,5.1-2.4l1.7,3.4
		c-3.3,2-6.3,3.5-8.9,4.5c-2.7,1-5,1.5-7,1.5c-3.7,0-6.3-1.3-8-3.8c-1.7-2.5-2.5-6.6-2.5-12.2c0-1.1,0.1-5,0.2-11.7
		c0.2-6.7,0.2-12.9,0.2-18.5c-0.3,0-0.8,0-1.3,0.1c-2.8,0.1-4.8,0.2-5.9,0.2v-3.7c3.4-0.5,6.1-1.7,8.3-3.7
		C923.1,331.6,924.7,328.9,925.7,325.4z"/>
	<path class="st0" d="M952.7,335.2c2.6,0.2,4.6,0.3,6.2,0.4c1.5,0.1,2.9,0.1,4,0.1c1,0,2.3,0,3.9-0.1c1.6-0.1,3.8-0.2,6.7-0.4v3.6
		h-1.3c-1.7,0-2.9,0.2-3.6,0.7s-1,1.3-1,2.4c0,0.9,1.5,5.4,4.5,13.6c2.9,7.7,5.3,14.3,7.1,19.6c4.8-11.3,8.1-19.5,10.1-24.5
		c1.9-5,2.9-8,2.9-9c0-1-0.4-1.7-1.1-2.2c-0.8-0.4-2-0.7-3.7-0.7h-0.8v-3.6c1.5,0.1,3.1,0.2,4.5,0.3c1.5,0.1,2.9,0.1,4.3,0.1
		c1.1,0,2.4,0,3.9-0.1c1.5-0.1,3.1-0.2,4.7-0.3v3.6h-0.4c-1.1,0-2.1,0.2-2.9,0.7c-0.8,0.5-1.4,1.3-2,2.4c-0.1,0.2-0.4,0.8-0.9,2
		c-3.6,8.4-7.5,17.2-11.7,26.4c-2.1,4.7-4.7,10.7-7.9,18.3c-6.9,16.2-12.1,24.4-15.8,24.4c-1.4,0-2.5-0.4-3.4-1.3
		c-0.9-0.9-1.4-2-1.4-3.4c0-1.9,1.3-3.1,4-3.5c1.1-0.2,1.8-0.4,2.3-0.6c1.9-0.8,4.7-5.1,8.3-13.1c1-2.2,1.8-4,2.4-5.2
		c-2.4-6.1-5.3-13.9-8.7-23.5c-5.7-15.8-9.8-23.6-12.2-23.6c-0.2,0-0.4,0-0.5,0c-0.1,0-0.2,0-0.3,0V335.2z"/>
</g>
<path class="st0" d="M409.4,230.5c17.1,21.4,31.6,39.7,43.7,52.3c11.2,11.4,18.1,13.3,23.3,14c4,0.7,21,0.7,22.2,0.7
	c1.2,0,1.9,0.9,1.9,1.7c0,1.2-1.2,1.7-5,1.7h-27.9c-11.9,0-17.1-1.2-22.3-4c-9-4.8-16.6-14.5-28.5-29.7c-8.8-10.9-18.1-24-22.6-29.5
	"/>
<polygon class="st0" points="395,211.5 412.8,234.8 397.3,241.6 377.7,216.5 "/>
<path class="st0" d="M715.3,255.1c0.5,16.6,2.4,21.6,8.1,23.1c3.8,1,8.6,1.2,10.5,1.2c0.9,0,1.7,0.7,1.7,1.7c0,1.2-1.4,2.2-3.8,2.2
	c-11.9,0-20.2,0-22.1,0c-1.9,0-10.9,0-20.4,0c-2.1,0-3.2-0.8-3.2-2.2c0-1,0.7-1.7,1.7-1.7c1.7,0,5.5-0.2,8.6-1.2
	c5.2-1.4,5.9-6.9,5.9-25.2V137.2c0-2.3,0-6.8,0.2-8.3l6.4,0c1.6,1.3,3.2,3,4.3,4.2c3.3,3.3,33.8,35.7,66.1,68.9
	c20.7,21.4,43,45.4,49.4,52.1l-2.1-101.3c-0.2-13.1-1.4-17.6-7.8-18.8c-3.8-0.7-8.6-0.9-10.2-0.9c-1.4,0-1.7-1.2-1.7-1.9
	c0-1.2,1.4-2.3,3.7-2.3c9.5,0,19.8,0,22.2,0s9.3,0,17.9,0c2.1,0,3.8,1.1,3.8,2.3c0,0.7-0.9,1.9-2.4,1.9c-1,0-2.6,0-5,0.5
	c-6.9,1.4-7.4,5.5-7.4,17.6l-0.5,118.4c0,13.3-0.2,14.5-1.7,14.5c-2.1,0-4.3-1.7-15.9-12.4c-2.1-1.9-32.3-31.6-54.4-54.7
	c-24.2-25.4-47.8-50.2-54.2-57.3L715.3,255.1z"/>
<path class="st0" d="M209.6,188.3c0-31.4,0-37.1-0.5-43.5c-0.5-6.9-1.7-10.2-8.6-11.2c-1.7-0.2-5.2-0.5-7.1-0.5
	c-0.7,0-1.7-1-1.7-1.7c0-1.2,1-2.6,3.3-2.6c9.5,0,23,0,24.2,0c1.4,0,41.9,0,48.3,0c5.1,0,15.3-1.7,15,1.1c0,1.4-2.5,19.4-2.9,22.8
	c-0.2,2.5-0.3,2.2-1.9,2.1c-1.8,0-1.9,0.3-1.7-2.6c0.1-1.4-0.2-4.8-1.2-7.1c-1.4-3.3-3.6-4.8-15-6.2c-3.6-0.5-27.8-0.7-30.2-0.7
	c-0.9,0-1.2,0.7-1.2,2.1v54.9c0,1.4,0,2.1,1.2,2.1c2.6,0,30.2,0,34.9-0.5c1.9-0.1-0.2,9.8-0.7,9.8c-5.7-0.7-30.4-1.2-34-1.2
	c-1.2,0-1.4,0.7-1.4,1.4V224c0,6.9-0.2,30.4,0,34.5c0.5,13.5,4.3,16.2,25,16.2c5.5,0,15.4,0,20.9-2.1c5.5-2.4,8.4-5.9,9.8-15.2
	c0.5-2.4,0.2-2.1,1.9-1.9c1.7,0.2,1.6-0.1,1.4,1.6c-0.1,1.4-2.4,18.1-2.9,21c-0.8,5,0.1,5.2-5.1,5.2c-15.7,0-57.5,0.1-60.6,0.1
	c-0.5,0-17.8,0-21.1,0c-2.1,0-3.1-1-3.1-2.2c0-0.7,0.5-1.7,1.7-1.7c1.9,0,4.5-0.7,6.4-1c4-0.7,4.5-4.8,5.5-10.7
	c1.2-8.3,1.2-24.2,1.2-43.7V188.3z"/>
<path class="st0" d="M899.7,29c0.5,0,0.8,0.9,1.2,2.2s3,5.5,5.4,7.2c2.5,1.7,2.1,0.7,2.1,0.7s-5.2-7.1-6.7-9.5
	c-1.4-2.5-0.5-6.6,0.4-4.8c0.8,1.8,4.8,5.3,4.8,5.3s0.7,0.1,4.2,2.9c3.5,2.8,14.8,17.6,19.1,22.7c4.3,5.1,5.2,7.3,5.2,7.3
	s3.3,3.4,3.4,6.4c0.2,3,2.7,10.3,2.7,10.3c1.4-1.9,3-2.5,3-2.5c1.1-2.1,5.1-3,5.1-3s2-3.8,4.2-7.4c2.2-3.6,3.1-3.4,3.1-3.4
	c0.6-2,2-3,2-3c0,0.9,0.8,0.6,0.8,0.6c-0.8-3.1,2.3-6.1,2.3-6.1c0,2.8,0.9,2.7,0.9,2.7c0.2-3.6,3.8-7.2,3.8-7.2
	c-1.8,4.1-0.7,5-0.7,5c1.7-7.5,5.1-8.6,5.1-8.6c-1.1,2-1.5,3.8-1.7,5.1c0.9-3.8,4.6-7.7,4.3-6.6c-0.4,1.4-0.6,3.3-0.6,3.3
	c0.3-1.1,2.1-1.8,2.1-1.8s-1.6,2.9-1.4,4.9c0.1,2-2.3,8-2.3,8c-0.2,2.2-3,6-3,6c1,3.9-3.8,7.9-3.8,7.9s-1.2,1.7-2.9,3.4
	c-1.7,1.7-7.2,10.7-7.2,10.7s3-0.1,4.9,1.1c0.4,0.2,0.6,0.5,0.9,0.8l0.1-0.1c0,0,3.2,3.7,1.3,6.7c-1.9,3-3.5,1.6-3.5,1.6
	s1.4-0.4,1.3-1.2c0,0-0.7,0.4-1,0.2c-0.3-0.2-1.2-1-1.2-1c-1.4-0.3-2.3,1.6-3.1,2.2c-0.7,0.7-3.8,1-3.8,1s-2,2.2-3.5,1.7
	s-4.1,1.4-5.7,2c-1.6,0.6-6.7,1.8-6.7,1.8c-1.5,3.6-2.9,4.8-4.4,5.7c-1.5,0.8-4.3,1.4-4.3,1.4c-2.2,1.1-3.7,1.8-4.9,2.1
	c-1.2,0.3-3.7,2.2-5,2.8c-1.3,0.6-3.5,0.5-3.5,0.5s-6.9,4.9-7.8,5c-0.9,0.1-1.8-0.4-1.8-0.4l7.5-6.1c0,0-14.2,7.2-14.9,7.5
	c-0.7,0.3-2.1-0.1-2.1-0.1s0.8-0.5,1.6-1.1c0.7-0.7,9.9-6.4,9.9-6.4c-3.5,1.9-16.5,5.4-19.1,6.2c-2.6,0.7-5.8,0.7-5.8,0.7
	c0.6,0,4.8-2,4.8-2s-2.2,0.8-3.1,0.7c-0.9-0.1-1.4-0.5-1.4-0.5c2.3-0.1,8-2.9,8-2.9c-0.9,0.1-1.7-0.2-1.7-0.2
	c7.1-2.8,15.1-7.1,15.1-7.1l-2.3,0.8c0,0-2.2,0.6-1.9-0.3c0.3-0.9,6.8-4.1,6.8-4.1s-2.1,0.6-0.4-1c1.7-1.5,19.2-6.4,19.2-6.4
	c2-2.1,8.6-6.5,8.6-6.5c-0.2-0.7-8.1,1.4-8.7,1.1c-0.6-0.3-0.7-2.6-0.7-2.6s-2.1,0.6-3,0.1c-0.8-0.5-0.6-5-0.6-5l-0.4-0.3l0.2-0.7
	l-0.5-0.3c0,0,0.3-0.9,0.2-1.7c-0.1-0.8-1.2-0.6-1.2-0.6s-0.6-1.4-0.5-3.1c0.1-1.7,2.2-1.2,2.2-1.2c-0.4-0.5-1.8,0.4-2.9-0.6
	c-1-1-0.3-3.2-0.3-3.2c-0.9-1.4-0.1-3.1-0.1-3.1c-1.8-1.3-0.6-3.9-0.6-3.9c-1.1,0-3.9-1-4.3-1.5c-0.4-0.4-0.7-2.9-0.7-2.9
	c-2.3-1.9-1.7-4.8-1.7-4.8c-2.4-2.8-1.4-4.5-1.4-4.5c-1.2-1-2.1-3.8-2-4.4c0.1-0.7,1-0.6,2.8,0c1.7,0.6,1.9-0.3,1.9-0.3
	c-2.9-1.6-4.4-3.2-6.8-5.4s-6.5-11.9-2.5-6.8c4,5.1,5.4,4.1,5.4,4.1s-3.5-2.8-5.4-6.4C898.3,31.2,899.2,29,899.7,29z"/>
<path class="st0" d="M1100.2,62.5c0.1,0,0.1,0,0.2,0c0.4-0.2,0.8-0.3,1.1-0.6c0,0,0,0,0,0c0,0,0,0,0-0.1c0.4-0.1,0.7-0.4,0.8-0.7
	c0.4,0,0.7-0.5,0.7-0.6c-0.5-0.4-1.2-0.5-1.8-0.6c-0.1,0-0.1-0.1-0.2-0.1l0,0c0.8-0.4,1.6-0.3,2.4-0.4c1.2-0.2,2.1-0.6,2.9-1.5
	c0.1-0.3-0.1-0.2-0.3-0.2c-0.1,0-0.1,0-0.2,0c-2.5-0.5-5-0.6-7.6-0.7c3-0.7,11.2-2.5,12-3.4c0,0,0.1,0,0.1-0.1c0,0,0.1-0.1,0.1-0.1
	c0,0,0-0.1,0-0.1c-0.2-0.1-0.5,0-0.7,0c-0.2,0-0.4,0-0.6,0.1c0,0-0.1,0-0.1,0c0,0-0.1,0-0.1,0l0,0c-0.2-0.1-0.5,0-0.7,0
	c-0.1,0-0.2,0-0.3,0.1c-2.5,0.2-4.9,0.7-7.4,1.1c-0.2,0-0.4,0.1-0.6-0.1c0.6-0.2,1.1-0.4,1.7-0.6c2.4-0.8,10.1-3.5,10.4-4.4
	c-0.3,0.1-0.5,0.1-0.7,0.2c-0.8,0.2-1.6,0.3-2.3,0.6c-0.1,0-0.2,0-0.3,0.1c-0.2,0-0.3,0-0.4,0.1c-0.1,0-0.3,0-0.4,0.1
	c-4.9,1.3-9.7,2.8-14.4,4.3c-0.3,0.1-0.5,0.3-0.8,0.1c0,0,0,0,0,0l0,0c0-0.2,0.2-0.2,0.3-0.2c4-1.9,7.9-4,11.9-6
	c0.8-0.4,4.8-2.4,4.8-3.2c-0.3,0.2-0.7,0.4-1,0.5c-0.8,0.2-1.4,0.7-2.1,1.1c-0.1,0-0.2,0.1-0.3,0.1c-3.3,1.8-6.7,3.4-10.1,5
	c-1.6,0.7-3,1.7-4.7,2.1c-0.8,0.3-1.6,0.5-2.3,0.8c-1.6,0.6-3.2,1.2-4.8,1.8c-0.7,0.2-1.4,0.5-2,0.8c-0.3,0.1-0.6,0.2-0.8,0.3
	c-3.2,1.6-6.4,3.4-9.8,4.8c-5.2,2.3-10.5,4.6-16.2,5.7c-0.2,0-1.4,0.2-1.9,0.4c-0.2,0-0.5,0-0.7,0.1c0-0.1-0.1-0.1-0.1-0.2
	c0.2-0.6,0.3-1.2,0.4-1.8c0.6-5.9,4.3-6.3,4.6-6.5l0,0c0.3,0,0.6,0,1,0.1c0.4,0.1,0.9,0.4,1.2,0.5c0.4,0.1,0.8,0.1,1.1,0.1
	c0.3,0,1.8-0.4,2.7-1.1c-0.3-0.1-0.6-0.2-0.8-0.3l0,0c-0.4-0.3,0-0.6-0.1-0.9c0,0,0.7-1,0.1-1.7l0.6-0.5c0.3,0.1,0.3,0.4,0.4,0.6
	c0.1,0.7,0.1,1.3,0.2,2c0,0.2-0.1,0.5,0.2,0.7c0.1,0,0.1,0,0.1-0.1c0.4-0.5,0.9-1.1,1.2-1.8c0.3-0.6,0.6-1.1,0.8-1.7
	c0.5-1.9,0.2-3.7-1.1-5.2c0.1-0.5,0-0.9-0.4-1.2c-0.1,0,0-0.2-0.2-0.2c-0.2-0.5-0.6-0.8-1.1-1.1c-13.1-5.9-22.3,9.8-23.2,11
	c-0.3,0.4-1.2,3.9-4.7,3.8c-8.1-0.1-11.6-8.9-12.3-10.2c-0.7-1.4-3-6.8-3.4-7.5c-0.5-1.3-2-5.3-2.2-6.1c-0.7-2.3-1.4-4.6-2.2-6.9
	c-1.2-3.4-3.4-6.3-5.3-9.4c0-0.1-1.2-2.1-1.7-3.1c-2.2-4.5-4.3-9-6.5-13.5c0-0.1-0.1-0.2-0.1-0.3c-0.1-0.1-0.2-0.3-0.3-0.4l0,0
	c-0.2-0.3-1.9-4.2-2.4-5.2c-0.1-0.2-0.1-0.6-0.5-0.6c-0.7,0.1-1,0.6-0.9,1.5c0.1,0.7,0.3,5,3.1,11.4c0,0.4,0.4,0.7,0.3,1.2
	c-1.2-1.3-2.3-2.7-3.5-4c-0.9-1-5.8-6.1-5.8-6.1c-0.1-0.1-4.2-4.1-4.2-4.1l0,0c-0.1-0.2-0.3-0.2-0.5,0c0,0-0.1,0.1-0.1,0.1
	c-0.4,0.6-0.1,1.1,0.2,1.6c0.4,0.7,0.9,1.4,1.4,2.1c0,0.1,1.8,2.8,1.9,2.9c0.7,1,1.4,2.1,2.2,3.1c0.3,0.3,1.3,1.6,1.2,2.2
	c-2.5-1.9-11.1-8.4-11.1-8.4c0.1,0.1,0.1,0.1,0,0c-0.1-0.1-0.3-0.2-0.4-0.3c-0.6-0.3-0.8,0.6-0.6,1.2c0.6,1.6,7.3,8.1,10.2,10.9
	c0.1,0.1,0.1,0.1,0,0.3c-0.2,0.1-0.3-0.1-0.5-0.1c-1.4-0.7-2.7-1.5-4.1-2.2c-2.3-1.1-4.7-2.2-7-3.3c-0.7-0.3-0.9-0.1-0.9,0.6
	c0.1,1.2,1.9,2.9,1.9,2.9c0.3,0.3,2.1,1.7,2.6,2.2c0,0-0.1,0.1-0.1,0.1c-0.1,0-2.3-0.7-3.3-1c-0.2,0-0.3,0.1-0.4,0.2
	c-0.7,0.5-0.7,2.5,0,3.1c0.6,0.5,1.2,1,1.8,1.5c-0.4,0.1-0.8-0.2-1.1,0.1c-0.5,0.1-0.6,0.5-0.5,0.9c0,1.6,1.1,3,2.7,3.5
	c0,0,0.1,0,0.1,0c-0.1,0.6-1.7-0.7-1.8,0.9c-0.2,1,0.4,2.5,1.3,3c0.5,0.3,1,0.5,1.6,0.8c-0.7,0.1-1.3,0.2-1.9,0.3
	c-0.8,0.1-1,0.4-0.8,1.2c0.6,3.5,8.4,4.5,8.4,4.5s-4.1,1-4.3,1c-1.9,0.5-2.2,0.7-2.1,1.8c0.1,1.2,1.4,3.3,2,3.7
	c0.6,0.4,0.9,0.3,1.8,0.2c-0.8,0.4-1.8,1-1.8,2c0,1.3,0.7,2.3,1.2,3.3c1.3,2.6,3.6,0.7,4.6,0.7c-0.3,0.6-3,1.5-2.9,2.2
	c0.3,1.2,2.3,4.1,2.8,4.1c0.6,0.1,3.2-1.7,2.6-0.8c-0.1,0.1-2.3,1.4-2.3,1.6c0.2,1.5,1.4,3,2.2,4.1c0.1,0.1,2.7-1.4,2.9-1
	c0.1,0.2-2.4,1.7-2.3,1.9c0.8,1.2,2,3.3,2.5,3.5c0.1,0,2.2-0.6,2.2-0.6c0.2,0.4-1.6,1.5-1.3,1.8c0.5,0.5,0.9,1.2,1.8,1
	c0,0.1,2.9-0.9,2.9-0.7c0,0.1-2.7,1.3-2.7,1.4c0.6,1.4,1.6,2.4,2.6,3.5c0.7,0.8,3-1.2,3.1-1c0.2,0.2-2.8,1.3-2.2,2.2
	c0.5,0.7,1.7,2.3,2.9,2.5c0.8,0.1,1.7-1.1,2.3-0.9c0.2,0-2,1.5-2,1.6c0.3,1.2,1.1,2,1.9,2.8c0.8,0.9,1.8,1.1,2.9,0.7
	c0.6-0.2,1.2-0.4,2-0.6c-0.3,0.5-0.6,0.9-0.8,1.3c-0.5,0.8-0.5,1.5,0.1,2.2c0.5,0.6,1.1,1.1,1.7,1.5c0.9,0.5,1.7,0.5,2.6,0
	c0.9-0.6,1.8-1.1,2.6-1.7c2.2-1.8,7.3-4.5,7.3-4.5c0,0.1-0.1,0.1-0.1,0.2c-0.8,1-2.2,3.1-2.8,3.8c-0.6,0.7-1.6,1.1-2.3,1.7
	c-1.3,0.9-2.6,1.7-3.9,2.6c-1.8,1.1-3.5,2.3-5.1,3.7c-2.9,2.3-8.7,6.8-8.6,7.3s1.3,0.2,1.6,0.2l0,0c0,0,0,0,0,0
	c-0.5,0.3-1.6,1.7-2.2,2.3c-0.3,0.2-0.3,0.4,0.2,0.5c0.2,0,1.2-0.1,1.5-0.2c0.4-0.2,1.2-0.6,1.2-0.6c0,0,0,0,0,0c0,0-1.8,2-2.6,2.8
	c-0.2,0.2-0.4,0.3-0.3,0.6c0.1,0.2,0.9,0.2,1,0.1c-0.3,0.6-0.9,1-1.3,1.6c-0.1,0.2-0.4,0.6,0.1,0.5c1.2-0.2,1.1-0.3,0.1,0.7
	c-1.2,1.1-2.3,2.3-3.3,3.6c-0.5,0.6-0.5,0.9,0.3,1.1c0.1,0,0.8-0.1,0.5,0.1c-0.8,0.9-1.7,1.8-2.3,2.9c-0.3,0.4-0.3,0.8,0.3,0.8
	c0.5,0.1,0.6,0.2,0.3,0.7c-1.2,1.5-6.9,9-7.5,9.9c-0.1,0.2-0.3,0.4-0.2,0.6c0.1,0.2,0.5,0.1,0.7,0.1c1.2-0.6,7.1-7,7.8-7.5l0.1,0
	c0,0-4.9,6.6-5.6,7.5c-0.1,0.2-0.4,0.4-0.2,0.7c0.2,0.2,1.3,0.6,2.2-0.1c1.4-1.2,8.9-8.9,9.9-10.1c0.6,1.2,2.3,1.5,3.2,0.6
	c0.7-0.7,1.7-1.9,2.3-2.7c0.2-0.2,0.1,0.3,0.3,0.4c0.5,0.3,1.1-0.2,1.6-0.7c0.3-0.4,0.6-0.7,1-1.1c0.8-0.9,1.6-2.1,2.4-2.9
	c0.3,1.1,1.3,0.7,2.3-0.4c0.2-0.3,0.7-0.9,0.9-1.1c0.4,1,1.3,0.9,2.1,0c0.7-0.9,1.6-2.2,2.3-3.1c0.2-0.3,0.1,0,0.4,0.2
	c0.7,0.4,1.2,0.2,1.7-0.3c0.5-0.6,1-1.3,1.5-1.9c0.8-1,1.7-0.9,2-1c1.3-0.2,2.2-1.2,2.1-1.1c0.4-0.1,1.1-0.2,1.7-0.6
	c1.8-1,2-3.3,1.9-4.2c0.5-0.9,2.9-3,3.5-3.3c0.3-0.2,1.3-1.1,1.4-1.4c1.5,0,2.3-1.6,2.3-1.6l0,0c0.1,0,3.1-0.5,4.4-1
	c0.6-0.2,5.9-1.3,7.8-1.7c1-0.2,5-1.1,6-1.3c1.3-0.3,2.5-0.8,3.7-1.4l0,0c0.3,0.2,0.5,0,0.8,0c2.4-0.5,9.8-3.6,11.1-4.5
	c1-0.2,1.8-0.7,2.6-1.2c0.8-0.4,1.6-0.8,2-1.8c0.1-0.2,0.2-0.2,0.4-0.1c0.5,0.3,1,0.1,1.4-0.1c0.7-0.4,1.4-0.8,2.1-1.2
	c1.2-0.7,1.3-2.5,0.2-3.5c-0.1-0.2-0.1-0.4-0.2-0.5v0c0.8,0.2,1.5,0.5,2.3,0.7c1.2,0.4,2.4,0.4,3.5-0.4c0.6-0.4,1.2-0.7,0.7-1.6
	c-0.1-0.1,0-0.2,0-0.3l0,0c0,0,0.1,0,0.1,0v0c1.2,0.2,2-0.6,2.8-1.2c0.4-0.3,0.7-0.6,0.3-1.2c1.7,0.2,2.9-0.7,4-1.8"/>
</svg>
