<?xml version="1.0" encoding="utf-8"?>
<!-- Generator: Adobe Illustrator 21.0.0, SVG Export Plug-In . SVG Version: 6.00 Build 0)  -->
<svg version="1.1" id="OBJECTS" xmlns="http://www.w3.org/2000/svg" xmlns:xlink="http://www.w3.org/1999/xlink" x="0px" y="0px"
	 viewBox="0 0 617 404" enable-background="new 0 0 617 404" xml:space="preserve">
<g>
	<g>
		<g>
			<g>
				<radialGradient id="SVGID_1_" cx="346.7183" cy="259.0898" r="224.9881" gradientUnits="userSpaceOnUse">
					<stop  offset="0" style="stop-color:#FFE6C7"/>
					<stop  offset="0.1468" style="stop-color:#FBE2B2"/>
					<stop  offset="0.2998" style="stop-color:#F9DFA2"/>
					<stop  offset="0.4232" style="stop-color:#F8DE9D"/>
					<stop  offset="0.9355" style="stop-color:#CB8F36"/>
				</radialGradient>
				<path fill="url(#SVGID_1_)" d="M394.8,145.8c-12.2,4.2-17.7,26.3-17.9,27.3c-0.1,0.6,0.2,1.2,0.8,1.4c0.1,0,0.2,0.1,0.3,0.1
					c0.5,0,0.9-0.3,1.1-0.7c0.1-0.2,7.3-17.8,22.5-18.5c14.8-0.7,15.7,8.7,15.8,9.1c0,0.4,0.2,0.7,0.5,0.9c0.3,0.2,0.7,0.2,1,0.1
					c0.2-0.1,4-1.7,5.4-5.5c0.9-2.5,0.6-5.3-1-8.4C418.8,142.9,408.9,140.9,394.8,145.8z M422.2,159C422.2,159,422.2,159,422.2,159
					c-0.7,1.9-3.3,2.1-4.3,0.5c-2.1-3.3-6.6-6.9-16.4-6.5c-6.5,0.3-11.6,3.3-15.5,6.8c-0.6,0.6-1.6-0.2-1.2-0.9
					c2.6-4.8,6.2-9.4,10.7-10.9c4-1.4,8.5-2.5,12.7-2.5c5.3,0,10.2,1.8,13,7C422.5,154.9,422.8,157.1,422.2,159z"/>
				<radialGradient id="SVGID_2_" cx="346.7162" cy="259.0896" r="224.9902" gradientUnits="userSpaceOnUse">
					<stop  offset="0" style="stop-color:#FFE6C7"/>
					<stop  offset="0.1468" style="stop-color:#FBE2B2"/>
					<stop  offset="0.2998" style="stop-color:#F9DFA2"/>
					<stop  offset="0.4232" style="stop-color:#F8DE9D"/>
					<stop  offset="0.9355" style="stop-color:#CB8F36"/>
				</radialGradient>
				<path fill="url(#SVGID_2_)" d="M463.8,117c-8.4-6.5-11.8-2.8-13-4.4c-1.3-1.6,9.4-7.6,18.2,0.8c8.9,8.4,4.7,18,6.7,18.6
					c2,0.6,9.1-16.1-0.8-26.4c-9.9-10.3-23.2-6.6-25.6-2.6c-1.9,3.3-1.6,6-2.7,7.8c-0.1,0.2-0.4,0.2-0.5,0.1
					c-2.9-2.1-9.1-6.1-17.3-8.4c-0.2-0.1-0.3-0.3-0.3-0.5c1.4-3.9,2.4-7.9,2.9-12.1c2.7-26.3-0.4-40.7-10.3-48.1
					c-3.3-2.4-7-2.9-10.1-1.3c-2.7,1.4-4.3,4-4.3,6.7c0,1.6,0.7,4.5,4.9,6.4c0.5,0.2,1.2,0,1.5-0.5c0,0,1.6-2.8,4.6-3.1
					c2.9-0.3,6.5,2,10.3,6.4c0.1,0.1,0.1,0.2,0.2,0.2c0.9,3.1,1.5,6.7,1.7,10.7c0,0,0,0,0,0c-1.9,14.2-5.8,24-12.3,33.2
					c-0.1,0.1-0.2,0.2-0.3,0.2c-2.7-0.1-5.6,0.1-8.5,0.7c-0.4,0.1-0.6-0.4-0.3-0.7c4.5-3.4,9-7.7,9.1-11.2c0.2-4.4-1.4-6.4-2.7-7.3
					c-1.3-0.8-3.5-1.5-7,0.1c-0.4,0.2-0.6,0.6-0.7,1c0,0.4,0.2,0.8,0.6,1c0.1,0,1.4,0.8,1.6,2.8c0.3,2.3-0.7,7.7-10.9,17.5
					c0,0-0.1,0.1-0.1,0.1c-2.2,1-4.4,2.2-6.7,3.7c-3.7,2.5-7,5.3-9.9,8.5c-0.2,0.2-0.6,0.1-0.7-0.2c-0.2-1.1-0.5-2.2-0.9-2.3
					c-0.7-0.2-2.1,3.5-1.7,6.3c0,0.1,0,0.2-0.1,0.3c-16.6,21.5-18.3,52-18.3,52.4c0,0.6,0.5,1.2,1.1,1.2c0,0,0,0,0.1,0
					c0.6,0,1.1-0.5,1.1-1.1c0-0.4,1.7-29.7,17.5-50.6c0.1-0.1,0.3-0.2,0.5-0.1c1.8,0.6,5,1.4,8-0.3c3.1-1.8-1.7-2.7-4.7-3.1
					c-0.3,0-0.5-0.4-0.2-0.7c2.8-3.1,6-5.9,9.7-8.3c7.6-5,15.1-7,21.9-7.3c0.3,0,0.5,0.4,0.3,0.6c-5.9,7.4-13.8,14.8-24.1,24.1
					c-23.9,21.6-22.5,45.7-22.4,46.7c0,0.6,0.5,1.1,1.1,1.1c0,0,0,0,0.1,0c0.6,0,1.1-0.5,1.1-1.2c0-0.2,0-15.1,16.4-26.8
					c15.2-10.8,32.4-24.9,40.2-42.8c0.1-0.2,0.3-0.3,0.5-0.2c6.7,1.8,12.1,4.9,15.3,7c0.3,0.2,0.2,0.6-0.1,0.7
					c-2.2,0.8-5.5,3-8.4,8.9c-4.8,9.9,3.8,22.9,14.9,26.1c11.1,3.2,17.1-3.4,16.5-5.1c-0.6-1.6-7.8,2.2-16.4-4.5
					c-8.6-6.7-4.9-20.6-3.1-20.3c1.8,0.4-2.4,7.1,4.8,13.2c7.2,6.1,16.3,6.1,22,11.8c5.7,5.7,5.4,0.5,3.4-2.8
					C474.8,136.1,472.1,123.5,463.8,117z M424.5,50c-2.2-1.6-4.4-2.4-6.4-2.4c-0.3,0-0.5,0-0.8,0c-2.7,0.3-4.5,1.9-5.5,3
					c-0.1,0.2-0.4,0.2-0.5,0.1c-1.5-1-2.4-2.3-2.4-3.8c0-1.8,1.2-3.6,3-4.6c2.4-1.2,5.2-0.8,7.7,1.1c2.2,1.6,4,3.6,5.4,6
					C425.3,49.9,424.9,50.3,424.5,50z M410.2,93.4c1.2-2.5,1.7-4.8,1.4-6.7c-0.1-1-0.5-1.9-0.9-2.5c-0.1-0.2,0-0.6,0.3-0.6
					c0.9-0.1,1.8,0,2.5,0.5c1.2,0.8,1.8,2.7,1.7,5.4c-0.1,1.4-1.4,3.3-3.3,5.2C411,95.4,409.7,94.4,410.2,93.4z M425,104.3
					c-7.7,17.2-24.4,30.8-39.2,41.3c-3.2,2.2-5.8,4.6-7.9,7c-0.9,1-2.5,0-1.9-1.2c3.2-6.9,8.3-14.7,16.4-22.1
					c11-10,19.5-17.9,25.8-26.2c0.1-0.1,0.2-0.2,0.3-0.2c2.1,0.1,4.2,0.4,6.1,0.8C425,103.8,425.1,104.1,425,104.3z M426.2,101.4
					c-0.1,0.2-0.3,0.3-0.5,0.2c-1.7-0.4-3.4-0.6-5.1-0.8c-0.3,0-0.5-0.4-0.3-0.6c3.7-5.4,6.5-11.1,8.5-17.8c0.1-0.5,0.8-0.3,0.8,0.1
					c-0.1,2.2-0.3,4.5-0.6,6.9C428.7,93.7,427.7,97.6,426.2,101.4z M438.9,124c-1,5.1,0.4,7.8-0.7,8.4c-1,0.6-2.4-4.6-1.7-8.2
					c0.7-3.7,5-9.1,6.7-8.2C444.4,116.5,439.9,118.9,438.9,124z M456.3,101.7c5.8-0.7,9.1,1,8.7,1.7c-0.5,0.7-5-1.7-9.3,0.6
					c-4.3,2.3-5,5.5-6.2,4.8C448.6,108.4,450.5,102.4,456.3,101.7z M464,130.5c-0.8,0.4-17.3-14.7-15.3-15.1
					C453.5,114.5,464.8,130.1,464,130.5z"/>
				<radialGradient id="SVGID_3_" cx="268.9406" cy="259.0907" r="224.9917" gradientUnits="userSpaceOnUse">
					<stop  offset="0" style="stop-color:#FFE6C7"/>
					<stop  offset="0.1468" style="stop-color:#FBE2B2"/>
					<stop  offset="0.2998" style="stop-color:#F9DFA2"/>
					<stop  offset="0.4232" style="stop-color:#F8DE9D"/>
					<stop  offset="0.9355" style="stop-color:#CB8F36"/>
				</radialGradient>
				<path fill="url(#SVGID_3_)" d="M229.7,145.8c-14.1-4.9-24-2.9-28.5,5.6c-1.6,3.1-2,5.9-1,8.4c1.4,3.8,5.3,5.4,5.4,5.5
					c0.3,0.1,0.7,0.1,1-0.1c0.3-0.2,0.5-0.5,0.5-0.9c0-0.4,1-9.8,15.8-9.1c15.3,0.7,22.5,18.3,22.5,18.5c0.2,0.4,0.6,0.7,1.1,0.7
					c0.1,0,0.2,0,0.3-0.1c0.6-0.2,0.9-0.8,0.8-1.4C247.4,172.1,241.9,150,229.7,145.8z M237.2,158.6c-3.7-3-8.4-5.4-14.2-5.7
					c-0.6,0-1.1,0-1.6,0c-8.7,0-12.8,3.4-14.8,6.5c-1.1,1.7-3.6,1.5-4.3-0.4c0,0,0,0,0-0.1c-0.7-1.9-0.4-4.1,0.9-6.5
					c4.9-9.3,16.7-7.6,25.7-4.5c4,1.4,7.3,5.1,9.8,9.4C239.4,158.3,238.1,159.4,237.2,158.6z"/>
				<radialGradient id="SVGID_4_" cx="268.9407" cy="259.0899" r="224.9893" gradientUnits="userSpaceOnUse">
					<stop  offset="0" style="stop-color:#FFE6C7"/>
					<stop  offset="0.1468" style="stop-color:#FBE2B2"/>
					<stop  offset="0.2998" style="stop-color:#F9DFA2"/>
					<stop  offset="0.4232" style="stop-color:#F8DE9D"/>
					<stop  offset="0.9355" style="stop-color:#CB8F36"/>
				</radialGradient>
				<path fill="url(#SVGID_4_)" d="M244.4,114.3c-0.5,0.1-0.9,1.8-1,3.1c-3-3.4-6.5-6.5-10.5-9.1c-2.3-1.5-4.5-2.7-6.7-3.7
					c-10.2-9.8-11.2-15.2-10.9-17.5c0.3-2,1.6-2.8,1.6-2.8c0.4-0.2,0.6-0.6,0.6-1c0-0.4-0.3-0.8-0.7-1c-3.5-1.6-5.7-0.9-7-0.1
					c-1.3,0.9-2.9,2.9-2.7,7.3c0.2,3.8,5.7,8.7,10.5,12.2c-3.6-0.8-7.1-1.1-10.5-1c-6.7-9.2-10.5-19-12.5-33.3c0,0,0,0,0,0
					c0.3-4.1,0.9-7.6,1.7-10.7c0.1-0.1,0.2-0.1,0.2-0.2c3.8-4.5,7.3-6.7,10.3-6.4c3,0.3,4.6,3,4.6,3.1c0.3,0.5,0.9,0.7,1.5,0.5
					c4.2-1.9,4.9-4.9,4.9-6.4c0.1-2.7-1.6-5.3-4.3-6.7c-3.2-1.6-6.9-1.2-10.1,1.3c-9.9,7.4-13,21.8-10.3,48.1
					c0.4,4.4,1.5,8.5,3,12.5c-8.7,2.4-15.2,6.6-18,8.7c-1.4-1.7-0.9-4.6-2.9-8.1c-2.4-4.1-15.7-7.7-25.6,2.6
					c-9.9,10.3-2.8,27-0.8,26.4c2-0.6-2.2-10.3,6.7-18.6c8.9-8.4,19.5-2.4,18.2-0.8c-1.3,1.6-4.7-2-13,4.4c-8.4,6.5-11,19.1-13,22.4
					c-2,3.3-2.3,8.5,3.4,2.8c5.7-5.7,14.8-5.7,22-11.8c7.2-6.1,3-12.8,4.8-13.2c1.8-0.4,5.4,13.5-3.1,20.3
					c-8.6,6.7-15.7,2.9-16.4,4.5c-0.6,1.6,5.3,8.2,16.5,5.1c11.1-3.2,19.7-16.2,14.9-26.1c-3.2-6.6-7-8.6-9.1-9.1
					c3.1-2.2,8.9-5.6,16.3-7.5c7.7,18.1,25,32.3,40.3,43.1c16.4,11.6,16.4,26.6,16.4,26.8c0,0.6,0.5,1.1,1.1,1.2c0,0,0,0,0.1,0
					c0.6,0,1.1-0.5,1.1-1.1c0.1-1,1.5-25.1-22.4-46.7c-10.6-9.6-18.7-17.1-24.7-24.7c7,0.1,14.8,2.1,22.8,7.3
					c3.8,2.5,7.2,5.6,10.2,8.9c-2.9,0.3-8.8,1.3-5.5,3.2c3.1,1.8,6.6,0.9,8.3,0.2c15.9,20.9,17.6,50.5,17.7,50.9
					c0,0.6,0.5,1.1,1.1,1.1c0,0,0,0,0.1,0c0.6,0,1.1-0.6,1.1-1.2c0-0.4-1.8-31-18.4-52.5C246.5,118,245.1,114.2,244.4,114.3z
					 M215.7,97.4c-3.6-2.9-6.3-5.9-6.4-8c-0.1-2.6,0.5-4.5,1.7-5.4c0.5-0.4,1.2-0.5,1.8-0.5c0.4,0,0.9,0.1,1.3,0.2
					c-0.5,0.7-1,1.7-1.2,3c-0.4,2.8,0.7,6.3,3.4,10.2C216.6,97.2,216.1,97.7,215.7,97.4z M204.8,43.5c1.6-1.2,3.2-1.8,4.8-1.8
					c1,0,2,0.2,2.9,0.7c1.9,1,3.1,2.8,3,4.6c0,1.6-1,2.9-2.7,4c-0.9-1.2-2.8-3-5.7-3.3c-2.7-0.3-5.7,0.9-8.7,3.6
					C200,48,202.2,45.5,204.8,43.5z M168.8,104c-4.3-2.3-8.8,0.1-9.3-0.6c-0.5-0.7,2.9-2.4,8.7-1.7c5.8,0.7,7.7,6.6,6.8,7.1
					C173.8,109.5,173.1,106.3,168.8,104z M160.5,130.5c-0.8-0.4,10.5-15.9,15.3-15.1C177.8,115.8,161.2,130.9,160.5,130.5z
					 M181.2,116c1.7-0.9,6.1,4.6,6.7,8.2c0.7,3.7-0.7,8.8-1.7,8.2c-1-0.6,0.4-3.2-0.7-8.4C184.6,118.9,180.1,116.5,181.2,116z
					 M195.4,89.5c-0.3-2.6-0.5-5.1-0.6-7.5c0-0.4,0.5-0.5,0.7-0.1c2.1,7.1,5.1,13.1,9.1,18.8c-2.1,0.2-4.2,0.5-6.1,0.9
					C196.9,97.8,195.8,93.8,195.4,89.5z M232,129.4c8.7,7.9,13.9,16.2,17.1,23.4c0.4,1-0.9,1.8-1.6,0.9c-2.3-2.7-5.2-5.5-8.8-8.1
					c-14.9-10.6-31.8-24.4-39.4-41.8c2.2-0.5,4.5-0.8,6.8-0.9C212.3,111.4,220.8,119.3,232,129.4z"/>
			</g>
		</g>
		<g>
			<g>
				<radialGradient id="SVGID_5_" cx="303.5915" cy="259.0898" r="224.9903" gradientUnits="userSpaceOnUse">
					<stop  offset="0" style="stop-color:#FFE6C7"/>
					<stop  offset="0.1468" style="stop-color:#FBE2B2"/>
					<stop  offset="0.2998" style="stop-color:#F9DFA2"/>
					<stop  offset="0.4232" style="stop-color:#F8DE9D"/>
					<stop  offset="0.9355" style="stop-color:#CB8F36"/>
				</radialGradient>
				<path fill="url(#SVGID_5_)" d="M504.4,169.7c-0.3,0-0.3-0.5,0-0.5c5.5-0.5,21-2.3,26.4-8.4c6.9-7.8,5.7-14.1,2.2-13.6
					c-3.5,0.5-1.4-4.5,2.8-5.4c4.2-0.9,10.4,2.7,7.1,12C539.8,162.6,519.1,170.9,504.4,169.7z"/>
				<radialGradient id="SVGID_6_" cx="303.5924" cy="259.0902" r="224.9893" gradientUnits="userSpaceOnUse">
					<stop  offset="0" style="stop-color:#FFE6C7"/>
					<stop  offset="0.1468" style="stop-color:#FBE2B2"/>
					<stop  offset="0.2998" style="stop-color:#F9DFA2"/>
					<stop  offset="0.4232" style="stop-color:#F8DE9D"/>
					<stop  offset="0.9355" style="stop-color:#CB8F36"/>
				</radialGradient>
				<path fill="url(#SVGID_6_)" d="M611.5,152.3c5.3,7.6-0.4,14.7-4,14.3c-3.6-0.4-6.7-3.4-6.2-6.5c0.5-3.3,3.5,1.7,5.4-3.6
					c1.9-5.3-10.4-16-26.4-9c-16,7-29.4,19-46.1,22.4c-16.8,3.4-14.2,3.6-3,3c11.2-0.6,30.3-15.3,41.5-17
					c11.2-1.7,18.4,2.2,19.2,8.6c0.8,6.4-4.8,6.2-5.2,4.8c-0.4-1.4,1.4-6.7-10.4-6.4c-7.2,0.2-12.4,2.9-18.4,5.4
					c-2.6,1.1-7.7,3.2-13.2,4.5c-0.6,0.1-0.5,1.1,0.1,1.1h66.3c0.5,0,0.9,0.4,0.9,0.9v1.1c0,0.5-0.4,0.9-0.9,0.9H504.9
					c-0.8,0-1.4-0.6-1.4-1.4v-1.1l0,0V174c0-0.8,0.6-1.4,1.3-1.4c4.4-0.3,18.7-1.4,26.8-5.5c9.7-4.9,23.7-18.6,44.5-22.6
					C596.8,140.3,606.2,144.7,611.5,152.3z"/>
				<radialGradient id="SVGID_7_" cx="303.5889" cy="259.0899" r="224.9924" gradientUnits="userSpaceOnUse">
					<stop  offset="0" style="stop-color:#FFE6C7"/>
					<stop  offset="0.1468" style="stop-color:#FBE2B2"/>
					<stop  offset="0.2998" style="stop-color:#F9DFA2"/>
					<stop  offset="0.4232" style="stop-color:#F8DE9D"/>
					<stop  offset="0.9355" style="stop-color:#CB8F36"/>
				</radialGradient>
				<path fill="url(#SVGID_7_)" d="M498.1,165.5v11.1c0,1,0.8,1.8,1.8,1.8h0.2c1,0,1.8-0.8,1.8-1.8v-11.1c0-1-0.8-1.8-1.8-1.8h-0.2
					C498.9,163.7,498.1,164.5,498.1,165.5z"/>
			</g>
			<g>
				<radialGradient id="SVGID_8_" cx="303.5923" cy="259.0898" r="224.9893" gradientUnits="userSpaceOnUse">
					<stop  offset="0" style="stop-color:#FFE6C7"/>
					<stop  offset="0.1468" style="stop-color:#FBE2B2"/>
					<stop  offset="0.2998" style="stop-color:#F9DFA2"/>
					<stop  offset="0.4232" style="stop-color:#F8DE9D"/>
					<stop  offset="0.9355" style="stop-color:#CB8F36"/>
				</radialGradient>
				<path fill="url(#SVGID_8_)" d="M111.6,169.7c0.3,0,0.3-0.5,0-0.5c-5.5-0.5-21-2.3-26.4-8.4c-6.9-7.8-5.7-14.1-2.2-13.6
					c3.5,0.5,1.4-4.5-2.8-5.4c-4.2-0.9-10.4,2.7-7.1,12C76.2,162.6,96.9,170.9,111.6,169.7z"/>
				<radialGradient id="SVGID_9_" cx="303.5921" cy="259.0902" r="224.9894" gradientUnits="userSpaceOnUse">
					<stop  offset="0" style="stop-color:#FFE6C7"/>
					<stop  offset="0.1468" style="stop-color:#FBE2B2"/>
					<stop  offset="0.2998" style="stop-color:#F9DFA2"/>
					<stop  offset="0.4232" style="stop-color:#F8DE9D"/>
					<stop  offset="0.9355" style="stop-color:#CB8F36"/>
				</radialGradient>
				<path fill="url(#SVGID_9_)" d="M4.5,152.3c-5.3,7.6,0.4,14.7,4,14.3c3.6-0.4,6.7-3.4,6.2-6.5c-0.5-3.3-3.5,1.7-5.4-3.6
					c-1.9-5.3,10.4-16,26.4-9c16,7,29.4,19,46.1,22.4c16.8,3.4,14.2,3.6,3,3c-11.2-0.6-30.3-15.3-41.5-17
					c-11.2-1.7-18.4,2.2-19.2,8.6c-0.8,6.4,4.8,6.2,5.2,4.8c0.4-1.4-1.4-6.7,10.4-6.4c7.2,0.2,12.4,2.9,18.4,5.4
					c2.6,1.1,7.7,3.2,13.2,4.5c0.6,0.1,0.5,1.1-0.1,1.1H4.8c-0.5,0-0.9,0.4-0.9,0.9v1.1c0,0.5,0.4,0.9,0.9,0.9h106.3
					c0.8,0,1.4-0.6,1.4-1.4v-1.1l0,0V174c0-0.8-0.6-1.4-1.3-1.4c-4.4-0.3-18.7-1.4-26.8-5.5c-9.7-4.9-23.7-18.6-44.5-22.6
					C19.2,140.3,9.8,144.7,4.5,152.3z"/>
				<radialGradient id="SVGID_10_" cx="303.5949" cy="259.0899" r="224.9918" gradientUnits="userSpaceOnUse">
					<stop  offset="0" style="stop-color:#FFE6C7"/>
					<stop  offset="0.1468" style="stop-color:#FBE2B2"/>
					<stop  offset="0.2998" style="stop-color:#F9DFA2"/>
					<stop  offset="0.4232" style="stop-color:#F8DE9D"/>
					<stop  offset="0.9355" style="stop-color:#CB8F36"/>
				</radialGradient>
				<path fill="url(#SVGID_10_)" d="M117.9,165.5v11.1c0,1-0.8,1.8-1.8,1.8h-0.2c-1,0-1.8-0.8-1.8-1.8v-11.1c0-1,0.8-1.8,1.8-1.8
					h0.2C117.1,163.7,117.9,164.5,117.9,165.5z"/>
			</g>
		</g>
		<g>
			<radialGradient id="SVGID_11_" cx="303.5923" cy="259.0899" r="224.9902" gradientUnits="userSpaceOnUse">
				<stop  offset="0" style="stop-color:#FFE6C7"/>
				<stop  offset="0.1468" style="stop-color:#FBE2B2"/>
				<stop  offset="0.2998" style="stop-color:#F9DFA2"/>
				<stop  offset="0.4232" style="stop-color:#F8DE9D"/>
				<stop  offset="0.9355" style="stop-color:#CB8F36"/>
			</radialGradient>
			<rect x="13.1" y="174.3" fill="url(#SVGID_11_)" width="584.5" height="2"/>
		</g>
		<g>
			<radialGradient id="SVGID_12_" cx="303.5921" cy="259.0899" r="224.9904" gradientUnits="userSpaceOnUse">
				<stop  offset="0" style="stop-color:#FFE6C7"/>
				<stop  offset="0.1468" style="stop-color:#FBE2B2"/>
				<stop  offset="0.2998" style="stop-color:#F9DFA2"/>
				<stop  offset="0.4232" style="stop-color:#F8DE9D"/>
				<stop  offset="0.9355" style="stop-color:#CB8F36"/>
			</radialGradient>
			<rect x="3.9" y="182.3" fill="url(#SVGID_12_)" width="608.2" height="2"/>
		</g>
		<g>
			<radialGradient id="SVGID_13_" cx="303.5918" cy="259.0893" r="224.9899" gradientUnits="userSpaceOnUse">
				<stop  offset="0" style="stop-color:#FFE6C7"/>
				<stop  offset="0.1468" style="stop-color:#FBE2B2"/>
				<stop  offset="0.2998" style="stop-color:#F9DFA2"/>
				<stop  offset="0.4232" style="stop-color:#F8DE9D"/>
				<stop  offset="0.9355" style="stop-color:#CB8F36"/>
			</radialGradient>
			<path fill="url(#SVGID_13_)" d="M477.2,177.4c0.2-0.6,0.4-1.3,0.5-2.2c0,0,0,0,0,0c0-0.1,2-10.4-7.1-15.7c1-1.1,1.9-2.1,2.3-2.2
				c1.5-0.4,2.3,1.2,2.4,1.2c0.1,0.3,0.4,0.4,0.7,0.3c0.3-0.1,0.5-0.3,0.5-0.6c0.2-2.4-0.5-4.5-2-5.7c-1-0.9-3-1.8-6.3-0.9
				c-2.5,0.6-4.3,2.7-6.3,5.1c-9.3-1.2-18.1,2.5-28,6.8c-11,4.7-23.4,10-40.3,10.8c-2.9,0.1-4.7,0.1-4.8,0.1c0,0,0,0-0.1,0
				c0,0,0,0-0.1,0c0,0,0,0-0.1,0c0,0,0,0-0.1,0s0,0-0.1,0c0,0,0,0-0.1,0c0,0,0,0-0.1,0c0,0,0,0,0,0c0,0,0,0,0,0.1c0,0,0,0,0,0
				c0,0,0,0,0,0.1c0,0,0,0,0,0.1c0,0,0,0,0,0.1c0,0,0,0,0,0.1c0,0,0,0,0,0.1c0,0,0,0,0,0.1c0,0,0,0,0,0l0,0l0,0c0,0,0,0,0,0
				c0,0,0,0.1,0,0.1c0,0,0,0,0,0c0,0,0,0.1,0,0.1c0,0,0,0,0,0c0,0,0,0,0,0.1c0,0,0,0,0,0c0,0,0,0,0,0.1c0,0,0,0,0,0c0,0,0,0,0.1,0
				c0,0,0,0,0.1,0c0,0,0,0,0.1,0c0,0,0,0,0.1,0c0,0,0,0,0.1,0c0,0,0,0,0.1,0c0,0,0,0,0.1,0c0,0,0,0,0,0l0,0h74.4
				c0.1,0,0.2,0,0.3-0.1c-0.1,1,0.2,2,0.7,3.1c1.2,2,3.3,3.4,5.6,3.6C472.3,182.6,475.9,180.6,477.2,177.4z M476.4,170.5
				c-1-1.7-2.6-3.7-5.2-5.8c-1.1-0.8-2.2-1.5-3.5-2.1c0.7-0.7,1.3-1.4,1.9-2.1C474.4,163.2,476,167.3,476.4,170.5z M424.1,174.4
				h-7.4c-0.5,0-0.6-0.7-0.1-0.8c1.9-0.4,3.6-0.8,5.2-1.2c2.1-0.6,4.7-1.6,7.7-2.7c8-3,18.6-6.9,27.7-7.3c-1.6,1.6-3.5,3.1-5.8,4.5
				C442.5,171.9,425,174.3,424.1,174.4z M434.4,164.8c9.8-4.2,17.9-7.7,26.5-6.8c-0.8,1-1.6,1.9-2.5,2.9c-9.7,0-21,4.3-29.5,7.4
				c-3,1.1-5.5,2.1-7.6,2.7c-1.3,0.4-2.7,0.7-4.1,1c-0.4,0.1-0.5-0.5-0.2-0.6C423.4,169.5,429.1,167.1,434.4,164.8z M465.4,178.1
				c-0.6-1.1-0.8-2.2-0.3-3.1c0.6-1.3,2.7-2.2,4.3-1.9c1.1,0.2,1.7,1,1.9,2.3c-1.1,0.2-3.2,0.8-3.6,2.4l0,0.1
				c-0.1,0.4-0.2,1-0.1,1.7c0.1,0.3-0.3,0.5-0.5,0.3C466.3,179.4,465.8,178.7,465.4,178.1z M468.9,178.2L468.9,178.2
				c0.3-1.1,2.4-1.5,3.1-1.6c0.4,0,0.6-0.3,0.6-0.7c-0.1-2.2-1.2-3.8-3-4.1c-2.2-0.5-4.9,0.8-5.8,2.6c0,0.1-0.1,0.2-0.1,0.2
				c-0.1-0.2-0.3-0.3-0.5-0.3h-24.5c6.4-0.8,13.4-1.9,17.4-3.3c4.2-1.5,7.7-4.6,10.5-7.5c1.3,0.5,2.5,1.2,3.6,2.1c3.7,3,5.7,6,6,8.7
				h-2.9c-0.4,0-0.7,0.3-0.7,0.7c0,0.4,0.3,0.7,0.7,0.7h2.8c-0.1,0.4-0.2,0.8-0.3,1.2c-1,2.5-3.6,4-5.4,4.1
				C468.5,180,468.7,179,468.9,178.2z"/>
			<radialGradient id="SVGID_14_" cx="303.5922" cy="259.0893" r="224.9881" gradientUnits="userSpaceOnUse">
				<stop  offset="0" style="stop-color:#FFE6C7"/>
				<stop  offset="0.1468" style="stop-color:#FBE2B2"/>
				<stop  offset="0.2998" style="stop-color:#F9DFA2"/>
				<stop  offset="0.4232" style="stop-color:#F8DE9D"/>
				<stop  offset="0.9355" style="stop-color:#CB8F36"/>
			</radialGradient>
			<path fill="url(#SVGID_14_)" d="M146.1,182.4c2.3-0.2,4.5-1.6,5.6-3.6c0.6-1,0.8-2.1,0.7-3.1c0.1,0,0.2,0.1,0.3,0.1h74.4l0,0
				c0,0,0,0,0,0c0,0,0,0,0.1,0c0,0,0,0,0.1,0c0,0,0,0,0.1,0c0,0,0,0,0.1,0c0,0,0,0,0.1,0c0,0,0,0,0.1,0c0,0,0,0,0.1,0c0,0,0,0,0,0
				c0,0,0,0,0-0.1c0,0,0,0,0,0c0,0,0,0,0-0.1c0,0,0,0,0,0c0,0,0-0.1,0-0.1c0,0,0,0,0,0c0,0,0-0.1,0-0.1c0,0,0,0,0,0l0,0l0,0
				c0,0,0,0,0,0c0,0,0,0,0-0.1c0,0,0,0,0-0.1c0,0,0,0,0-0.1c0,0,0,0,0-0.1c0,0,0,0,0-0.1c0,0,0,0,0-0.1c0,0,0,0,0,0c0,0,0,0,0-0.1
				c0,0,0,0,0,0c0,0,0,0-0.1,0c0,0,0,0-0.1,0c0,0,0,0-0.1,0c0,0,0,0-0.1,0c0,0,0,0-0.1,0c0,0,0,0-0.1,0c0,0,0,0-0.1,0
				c-0.1,0-1.9,0-4.8-0.1c-16.9-0.8-29.3-6.1-40.3-10.8c-9.9-4.3-18.7-8-28-6.8c-2-2.4-3.8-4.5-6.3-5.1c-3.3-0.8-5.2,0-6.3,0.9
				c-1.5,1.2-2.2,3.3-2,5.7c0,0.3,0.2,0.5,0.5,0.6c0.3,0.1,0.6-0.1,0.7-0.3c0-0.1,0.9-1.6,2.4-1.2c0.4,0.1,1.3,1.1,2.3,2.2
				c-9.1,5.3-7.1,15.6-7.1,15.7c0,0,0,0,0,0c0,0.9,0.2,1.6,0.5,2.2C140.1,180.6,143.7,182.6,146.1,182.4z M146.4,160.5
				c0.6,0.6,1.2,1.3,1.9,2.1c-1.2,0.5-2.4,1.2-3.5,2.1c-2.6,2.1-4.2,4-5.2,5.8C140,167.3,141.6,163.2,146.4,160.5z M164.6,166.8
				c-2.4-1.4-4.2-2.9-5.8-4.5c9.1,0.4,19.7,4.3,27.7,7.3c3,1.1,5.6,2.1,7.7,2.7c1.6,0.5,3.3,0.9,5.2,1.2c0.5,0.1,0.4,0.8-0.1,0.8
				h-7.4C191,174.3,173.5,171.9,164.6,166.8z M198.9,171.5c0.4,0.1,0.2,0.7-0.2,0.6c-1.5-0.3-2.9-0.6-4.1-1
				c-2.1-0.6-4.6-1.6-7.6-2.7c-8.5-3.2-19.8-7.4-29.5-7.4c-0.9-1-1.7-2-2.5-2.9c8.6-0.9,16.7,2.6,26.5,6.8
				C186.9,167.1,192.6,169.5,198.9,171.5z M149,179.9c-0.2,0.2-0.5,0-0.5-0.3c0.1-0.7,0-1.3-0.1-1.7l0-0.1c-0.4-1.7-2.5-2.2-3.6-2.4
				c0.2-1.3,0.8-2,1.9-2.3c1.6-0.3,3.7,0.6,4.3,1.9c0.4,0.9,0.3,2-0.3,3.1C150.2,178.7,149.7,179.4,149,179.9z M145.5,181
				c-1.8-0.1-4.4-1.6-5.4-4.1c-0.2-0.4-0.3-0.8-0.3-1.2h2.8c0.4,0,0.7-0.3,0.7-0.7c0-0.4-0.3-0.7-0.7-0.7h-2.9
				c0.2-2.7,2.2-5.7,6-8.7c1.1-0.9,2.3-1.6,3.6-2.1c2.8,2.9,6.4,5.9,10.5,7.5c4,1.5,11,2.6,17.4,3.3h-24.5c-0.2,0-0.4,0.1-0.5,0.3
				c0-0.1-0.1-0.2-0.1-0.2c-0.9-1.8-3.6-3.1-5.8-2.6c-1.8,0.4-2.9,1.9-3,4.1c0,0.4,0.3,0.7,0.6,0.7c0.7,0.1,2.8,0.5,3.1,1.5l0,0.1
				C147.3,179,147.5,180,145.5,181z"/>
		</g>
	</g>
	<g>
		<g>
			<g>
				<radialGradient id="SVGID_15_" cx="302.0912" cy="211.8827" r="187.4985" gradientUnits="userSpaceOnUse">
					<stop  offset="0" style="stop-color:#FFE6C7"/>
					<stop  offset="4.781194e-02" style="stop-color:#FEE5C1"/>
					<stop  offset="0.3072" style="stop-color:#FAE0A7"/>
					<stop  offset="0.4609" style="stop-color:#F8DE9D"/>
					<stop  offset="0.6227" style="stop-color:#E9C37A"/>
					<stop  offset="0.875" style="stop-color:#D39E49"/>
					<stop  offset="1" style="stop-color:#CB8F36"/>
				</radialGradient>
				<path fill="url(#SVGID_15_)" d="M459,314.5c-0.2,0-0.2,0.4,0,0.4c4.2,0.4,16.2,1.8,20.3,6.4c5.3,6,4.4,10.8,1.7,10.4
					c-2.7-0.4-1.1,3.5,2.2,4.1c3.2,0.7,8-2.1,5.4-9.2C486.2,319.9,470.3,313.5,459,314.5z"/>
				<radialGradient id="SVGID_16_" cx="302.0928" cy="211.8844" r="187.4959" gradientUnits="userSpaceOnUse">
					<stop  offset="0" style="stop-color:#FFE6C7"/>
					<stop  offset="4.781194e-02" style="stop-color:#FEE5C1"/>
					<stop  offset="0.3072" style="stop-color:#FAE0A7"/>
					<stop  offset="0.4609" style="stop-color:#F8DE9D"/>
					<stop  offset="0.6227" style="stop-color:#E9C37A"/>
					<stop  offset="0.875" style="stop-color:#D39E49"/>
					<stop  offset="1" style="stop-color:#CB8F36"/>
				</radialGradient>
				<path fill="url(#SVGID_16_)" d="M541.3,327.9c4.1-5.8-0.3-11.3-3.1-11c-2.8,0.3-5.1,2.6-4.8,5c0.4,2.6,2.7-1.3,4.1,2.8
					c1.5,4.1-8,12.3-20.3,6.9c-12.3-5.4-22.6-14.6-35.5-17.2c-12.9-2.6-10.9-2.7-2.3-2.3c8.6,0.5,23.3,11.7,31.9,13.1
					c8.6,1.3,14.1-1.7,14.7-6.6c0.6-4.9-3.7-4.8-4-3.7c-0.3,1.1,1.1,5.1-8,4.9c-5.5-0.1-9.5-2.2-14.1-4.1c-2-0.8-5.9-2.5-10.2-3.4
					c-0.5-0.1-0.4-0.8,0.1-0.8h51c0.4,0,0.7-0.3,0.7-0.7v-0.9c0-0.4-0.3-0.7-0.7-0.7h-81.7c-0.6,0-1.1,0.5-1.1,1.1v0.9l0,0v0.2
					c0,0.6,0.4,1.1,1,1.1c3.4,0.2,14.4,1.1,20.6,4.3c7.4,3.8,18.2,14.3,34.2,17.4C530,337.1,537.2,333.7,541.3,327.9z"/>
				<radialGradient id="SVGID_17_" cx="302.0878" cy="211.8843" r="187.4998" gradientUnits="userSpaceOnUse">
					<stop  offset="0" style="stop-color:#FFE6C7"/>
					<stop  offset="4.781194e-02" style="stop-color:#FEE5C1"/>
					<stop  offset="0.3072" style="stop-color:#FAE0A7"/>
					<stop  offset="0.4609" style="stop-color:#F8DE9D"/>
					<stop  offset="0.6227" style="stop-color:#E9C37A"/>
					<stop  offset="0.875" style="stop-color:#D39E49"/>
					<stop  offset="1" style="stop-color:#CB8F36"/>
				</radialGradient>
				<path fill="url(#SVGID_17_)" d="M454.1,317.7v-8.6c0-0.8,0.6-1.4,1.4-1.4h0.2c0.8,0,1.4,0.6,1.4,1.4v8.6c0,0.8-0.6,1.4-1.4,1.4
					h-0.2C454.8,319.1,454.1,318.5,454.1,317.7z"/>
			</g>
			<g>
				<radialGradient id="SVGID_18_" cx="302.0919" cy="211.8827" r="187.4978" gradientUnits="userSpaceOnUse">
					<stop  offset="0" style="stop-color:#FFE6C7"/>
					<stop  offset="4.781194e-02" style="stop-color:#FEE5C1"/>
					<stop  offset="0.3072" style="stop-color:#FAE0A7"/>
					<stop  offset="0.4609" style="stop-color:#F8DE9D"/>
					<stop  offset="0.6227" style="stop-color:#E9C37A"/>
					<stop  offset="0.875" style="stop-color:#D39E49"/>
					<stop  offset="1" style="stop-color:#CB8F36"/>
				</radialGradient>
				<path fill="url(#SVGID_18_)" d="M157,314.5c0.2,0,0.2,0.4,0,0.4c-4.2,0.4-16.2,1.8-20.3,6.4c-5.3,6-4.4,10.8-1.7,10.4
					c2.7-0.4,1.1,3.5-2.2,4.1c-3.2,0.7-8-2.1-5.4-9.2C129.8,319.9,145.7,313.5,157,314.5z"/>
				<radialGradient id="SVGID_19_" cx="302.0923" cy="211.8844" r="187.497" gradientUnits="userSpaceOnUse">
					<stop  offset="0" style="stop-color:#FFE6C7"/>
					<stop  offset="4.781194e-02" style="stop-color:#FEE5C1"/>
					<stop  offset="0.3072" style="stop-color:#FAE0A7"/>
					<stop  offset="0.4609" style="stop-color:#F8DE9D"/>
					<stop  offset="0.6227" style="stop-color:#E9C37A"/>
					<stop  offset="0.875" style="stop-color:#D39E49"/>
					<stop  offset="1" style="stop-color:#CB8F36"/>
				</radialGradient>
				<path fill="url(#SVGID_19_)" d="M74.7,327.9c-4.1-5.8,0.3-11.3,3.1-11c2.8,0.3,5.1,2.6,4.8,5c-0.4,2.6-2.7-1.3-4.1,2.8
					c-1.5,4.1,8,12.3,20.3,6.9c12.3-5.4,22.6-14.6,35.5-17.2c12.9-2.6,10.9-2.7,2.3-2.3c-8.6,0.5-23.3,11.7-31.9,13.1
					c-8.6,1.3-14.1-1.7-14.7-6.6c-0.6-4.9,3.7-4.8,4-3.7c0.3,1.1-1.1,5.1,8,4.9c5.5-0.1,9.5-2.2,14.1-4.1c2-0.8,5.9-2.5,10.2-3.4
					c0.5-0.1,0.4-0.8-0.1-0.8H75c-0.4,0-0.7-0.3-0.7-0.7v-0.9c0-0.4,0.3-0.7,0.7-0.7h81.7c0.6,0,1.1,0.5,1.1,1.1v0.9l0,0v0.2
					c0,0.6-0.4,1.1-1,1.1c-3.4,0.2-14.4,1.1-20.6,4.3c-7.4,3.8-18.2,14.3-34.2,17.4S78.8,333.7,74.7,327.9z"/>
				<radialGradient id="SVGID_20_" cx="302.0918" cy="211.8843" r="187.496" gradientUnits="userSpaceOnUse">
					<stop  offset="0" style="stop-color:#FFE6C7"/>
					<stop  offset="4.781194e-02" style="stop-color:#FEE5C1"/>
					<stop  offset="0.3072" style="stop-color:#FAE0A7"/>
					<stop  offset="0.4609" style="stop-color:#F8DE9D"/>
					<stop  offset="0.6227" style="stop-color:#E9C37A"/>
					<stop  offset="0.875" style="stop-color:#D39E49"/>
					<stop  offset="1" style="stop-color:#CB8F36"/>
				</radialGradient>
				<path fill="url(#SVGID_20_)" d="M161.9,317.7v-8.6c0-0.8-0.6-1.4-1.4-1.4h-0.2c-0.8,0-1.4,0.6-1.4,1.4v8.6
					c0,0.8,0.6,1.4,1.4,1.4h0.2C161.2,319.1,161.9,318.5,161.9,317.7z"/>
			</g>
		</g>
		<g>
			<radialGradient id="SVGID_21_" cx="302.0922" cy="211.8837" r="187.4958" gradientUnits="userSpaceOnUse">
				<stop  offset="0" style="stop-color:#FFE6C7"/>
				<stop  offset="4.781194e-02" style="stop-color:#FEE5C1"/>
				<stop  offset="0.3072" style="stop-color:#FAE0A7"/>
				<stop  offset="0.4609" style="stop-color:#F8DE9D"/>
				<stop  offset="0.6227" style="stop-color:#E9C37A"/>
				<stop  offset="0.875" style="stop-color:#D39E49"/>
				<stop  offset="1" style="stop-color:#CB8F36"/>
			</radialGradient>
			<rect x="83.4" y="309.4" fill="url(#SVGID_21_)" width="449.3" height="1.6"/>
		</g>
		<g>
			<radialGradient id="SVGID_22_" cx="302.0923" cy="211.8839" r="187.4962" gradientUnits="userSpaceOnUse">
				<stop  offset="0" style="stop-color:#FFE6C7"/>
				<stop  offset="4.781194e-02" style="stop-color:#FEE5C1"/>
				<stop  offset="0.3072" style="stop-color:#FAE0A7"/>
				<stop  offset="0.4609" style="stop-color:#F8DE9D"/>
				<stop  offset="0.6227" style="stop-color:#E9C37A"/>
				<stop  offset="0.875" style="stop-color:#D39E49"/>
				<stop  offset="1" style="stop-color:#CB8F36"/>
			</radialGradient>
			<rect x="74.3" y="303.3" fill="url(#SVGID_22_)" width="467.5" height="1.6"/>
		</g>
		<g>
			<radialGradient id="SVGID_23_" cx="302.0923" cy="211.8853" r="187.4958" gradientUnits="userSpaceOnUse">
				<stop  offset="0" style="stop-color:#FFE6C7"/>
				<stop  offset="4.781194e-02" style="stop-color:#FEE5C1"/>
				<stop  offset="0.3072" style="stop-color:#FAE0A7"/>
				<stop  offset="0.4609" style="stop-color:#F8DE9D"/>
				<stop  offset="0.6227" style="stop-color:#E9C37A"/>
				<stop  offset="0.875" style="stop-color:#D39E49"/>
				<stop  offset="1" style="stop-color:#CB8F36"/>
			</radialGradient>
			<path fill="url(#SVGID_23_)" d="M432.5,304.8c-1.8,0.1-3.5,1.2-4.3,2.7c-0.5,0.8-0.6,1.6-0.6,2.4c-0.1,0-0.1,0-0.2,0h-57.2l0,0
				c0,0,0,0,0,0c0,0,0,0-0.1,0c0,0,0,0,0,0c0,0,0,0-0.1,0c0,0,0,0,0,0c0,0,0,0,0,0c0,0,0,0,0,0c0,0,0,0,0,0c0,0,0,0,0,0c0,0,0,0,0,0
				c0,0,0,0,0,0c0,0,0,0,0,0.1c0,0,0,0,0,0c0,0,0,0,0,0.1c0,0,0,0,0,0c0,0,0,0.1,0,0.1c0,0,0,0,0,0l0,0l0,0c0,0,0,0,0,0c0,0,0,0,0,0
				c0,0,0,0,0,0.1c0,0,0,0,0,0c0,0,0,0,0,0.1c0,0,0,0,0,0c0,0,0,0,0,0c0,0,0,0,0,0c0,0,0,0,0,0c0,0,0,0,0,0c0,0,0,0,0,0c0,0,0,0,0,0
				c0,0,0,0,0,0c0,0,0,0,0.1,0c0,0,0,0,0,0c0,0,0,0,0.1,0c0,0,0,0,0,0c0,0,1.5,0,3.7,0.1c13,0.6,22.5,4.7,31,8.3
				c7.6,3.3,14.4,6.2,21.6,5.2c1.5,1.9,2.9,3.4,4.8,3.9c2.5,0.6,4,0,4.8-0.7c1.1-1,1.7-2.5,1.5-4.4c0-0.2-0.2-0.4-0.4-0.5
				c-0.2,0-0.5,0.1-0.6,0.3c0,0.1-0.7,1.3-1.8,1c-0.3-0.1-1-0.8-1.8-1.7c7-4.1,5.5-12,5.5-12.1c0,0,0,0,0,0c0-0.7-0.2-1.2-0.4-1.7
				C437.1,306.1,434.3,304.6,432.5,304.8z M432.2,321.5c-0.4-0.5-0.9-1-1.5-1.6c1-0.4,1.8-0.9,2.7-1.6c2-1.6,3.3-3.1,4-4.4
				C437.1,316.3,435.9,319.5,432.2,321.5z M418.2,316.8c1.8,1,3.2,2.2,4.5,3.4c-7-0.3-15.2-3.3-21.3-5.6c-2.3-0.9-4.3-1.6-5.9-2.1
				c-1.2-0.4-2.5-0.7-4-0.9c-0.4-0.1-0.3-0.6,0.1-0.6h5.7C398,311,411.4,312.8,418.2,316.8z M391.8,313.1c-0.3-0.1-0.2-0.5,0.1-0.5
				c1.1,0.2,2.2,0.5,3.2,0.8c1.6,0.5,3.6,1.2,5.9,2.1c6.5,2.4,15.2,5.7,22.7,5.7c0.7,0.8,1.3,1.5,1.9,2.3c-6.6,0.7-12.8-2-20.4-5.2
				C401.1,316.5,396.7,314.6,391.8,313.1z M430.2,306.7c0.2-0.1,0.4,0,0.4,0.2c-0.1,0.5,0,1,0.1,1.3l0,0c0.3,1.3,1.9,1.7,2.8,1.9
				c-0.1,1-0.6,1.6-1.4,1.7c-1.2,0.3-2.8-0.5-3.3-1.5c-0.3-0.7-0.2-1.5,0.3-2.4C429.3,307.6,429.7,307.1,430.2,306.7z M432.9,305.8
				c1.4,0.1,3.4,1.2,4.1,3.2c0.1,0.3,0.2,0.6,0.2,0.9h-2.2c-0.3,0-0.5,0.2-0.5,0.5c0,0.3,0.2,0.5,0.5,0.5h2.2
				c-0.2,2.1-1.7,4.4-4.6,6.7c-0.8,0.7-1.8,1.2-2.8,1.6c-2.2-2.2-4.9-4.6-8.1-5.7c-3.1-1.1-8.5-2-13.4-2.5h18.8
				c0.2,0,0.3-0.1,0.4-0.2c0,0.1,0.1,0.1,0.1,0.2c0.7,1.4,2.8,2.4,4.4,2c1.4-0.3,2.2-1.5,2.3-3.2c0-0.3-0.2-0.5-0.5-0.5
				c-0.6,0-2.2-0.4-2.4-1.2l0,0C431.5,307.4,431.3,306.5,432.9,305.8z"/>
			<radialGradient id="SVGID_24_" cx="302.092" cy="211.8853" r="187.4947" gradientUnits="userSpaceOnUse">
				<stop  offset="0" style="stop-color:#FFE6C7"/>
				<stop  offset="4.781194e-02" style="stop-color:#FEE5C1"/>
				<stop  offset="0.3072" style="stop-color:#FAE0A7"/>
				<stop  offset="0.4609" style="stop-color:#F8DE9D"/>
				<stop  offset="0.6227" style="stop-color:#E9C37A"/>
				<stop  offset="0.875" style="stop-color:#D39E49"/>
				<stop  offset="1" style="stop-color:#CB8F36"/>
			</radialGradient>
			<path fill="url(#SVGID_24_)" d="M178,308.6c-0.2,0.4-0.3,1-0.4,1.7c0,0,0,0,0,0c0,0.1-1.5,8,5.5,12.1c-0.8,0.8-1.5,1.6-1.8,1.7
				c-1.1,0.3-1.8-0.9-1.8-1c-0.1-0.2-0.3-0.3-0.6-0.3c-0.2,0-0.4,0.2-0.4,0.5c-0.2,1.9,0.4,3.4,1.5,4.4c0.8,0.7,2.3,1.4,4.8,0.7
				c1.9-0.5,3.3-2,4.8-3.9c7.2,0.9,13.9-1.9,21.6-5.2c8.5-3.6,18-7.7,31-8.3c2.2-0.1,3.6-0.1,3.7-0.1c0,0,0,0,0,0c0,0,0,0,0.1,0
				c0,0,0,0,0,0c0,0,0,0,0,0c0,0,0,0,0,0c0,0,0,0,0,0c0,0,0,0,0,0c0,0,0,0,0,0c0,0,0,0,0,0c0,0,0,0,0,0c0,0,0,0,0,0c0,0,0,0,0,0
				c0,0,0,0,0-0.1c0,0,0,0,0,0c0,0,0,0,0-0.1c0,0,0,0,0,0c0,0,0,0,0,0l0,0l0,0c0,0,0,0,0,0c0,0,0-0.1,0-0.1c0,0,0,0,0,0
				c0,0,0,0,0-0.1c0,0,0,0,0,0c0,0,0,0,0-0.1c0,0,0,0,0,0c0,0,0,0,0,0c0,0,0,0,0,0c0,0,0,0,0,0c0,0,0,0,0,0c0,0,0,0,0,0c0,0,0,0,0,0
				c0,0,0,0-0.1,0c0,0,0,0,0,0c0,0,0,0-0.1,0c0,0,0,0,0,0l0,0h-57.2c-0.1,0-0.1,0-0.2,0c0.1-0.8-0.1-1.6-0.6-2.4
				c-0.9-1.5-2.6-2.6-4.3-2.7C181.7,304.6,178.9,306.1,178,308.6z M178.6,313.9c0.7,1.3,2,2.8,4,4.4c0.8,0.7,1.7,1.2,2.7,1.6
				c-0.5,0.6-1,1.1-1.5,1.6C180.1,319.5,178.9,316.3,178.6,313.9z M218.8,310.9h5.7c0.4,0,0.5,0.6,0.1,0.6c-1.4,0.3-2.8,0.6-4,0.9
				c-1.6,0.5-3.6,1.2-5.9,2.1c-6.1,2.3-14.3,5.3-21.3,5.6c1.2-1.2,2.7-2.4,4.5-3.4C204.6,312.8,218,311,218.8,310.9z M210.8,318.3
				c-7.6,3.2-13.8,5.9-20.4,5.2c0.6-0.7,1.2-1.5,1.9-2.3c7.4,0,16.2-3.3,22.7-5.7c2.3-0.9,4.3-1.6,5.9-2.1c1-0.3,2-0.6,3.2-0.8
				c0.3-0.1,0.4,0.4,0.1,0.5C219.3,314.6,214.9,316.5,210.8,318.3z M187,308c0.5,0.8,0.6,1.7,0.3,2.4c-0.5,1-2.1,1.7-3.3,1.5
				c-0.8-0.2-1.3-0.8-1.4-1.7c0.9-0.1,2.5-0.6,2.8-1.9l0,0c0.1-0.3,0.2-0.8,0.1-1.3c0-0.2,0.2-0.4,0.4-0.2
				C186.3,307.1,186.7,307.6,187,308z M184.3,308L184.3,308c-0.2,0.8-1.8,1.2-2.4,1.2c-0.3,0-0.5,0.3-0.5,0.5
				c0.1,1.7,0.9,2.9,2.3,3.2c1.7,0.3,3.8-0.6,4.4-2c0-0.1,0.1-0.1,0.1-0.2c0.1,0.1,0.2,0.2,0.4,0.2h18.8c-4.9,0.6-10.3,1.4-13.4,2.5
				c-3.2,1.2-5.9,3.5-8.1,5.7c-1-0.4-1.9-0.9-2.8-1.6c-2.9-2.3-4.4-4.6-4.6-6.7h2.2c0.3,0,0.5-0.2,0.5-0.5c0-0.3-0.2-0.5-0.5-0.5
				h-2.2c0-0.3,0.1-0.6,0.2-0.9c0.8-1.9,2.8-3,4.1-3.2C184.7,306.5,184.5,307.4,184.3,308z"/>
		</g>
		<g>
			<radialGradient id="SVGID_25_" cx="302.093" cy="211.8846" r="187.4957" gradientUnits="userSpaceOnUse">
				<stop  offset="0" style="stop-color:#FFE6C7"/>
				<stop  offset="4.781194e-02" style="stop-color:#FEE5C1"/>
				<stop  offset="0.3072" style="stop-color:#FAE0A7"/>
				<stop  offset="0.4609" style="stop-color:#F8DE9D"/>
				<stop  offset="0.6227" style="stop-color:#E9C37A"/>
				<stop  offset="0.875" style="stop-color:#D39E49"/>
				<stop  offset="1" style="stop-color:#CB8F36"/>
			</radialGradient>
			<path fill="url(#SVGID_25_)" d="M347.1,316.2c0.5-2-0.4-3.9-2.4-5.1c-0.3-0.2-0.7-0.2-1-0.1c-0.3,0.1-0.6,0.4-0.7,0.7
				c0,0-1.6,3.7-11.4,3.5c-2.6-2.1-4.3-4.4-4.3-4.5c-0.2-0.3-0.6-0.5-1-0.5c-0.2,0-0.5,0.1-0.7,0.2c-0.5,0.4-0.6,1.1-0.3,1.7
				c0.3,0.4,6.4,8.6,13.7,8.6C343.7,320.8,346.5,318.5,347.1,316.2z M344.8,315.6c-0.4,1.4-2.4,2.9-5.8,2.9c-1.3,0-2.6-0.4-3.8-0.9
				c5.6-0.5,8.1-2.3,9.3-3.7C344.9,314.4,345,315,344.8,315.6z"/>
			<radialGradient id="SVGID_26_" cx="302.0927" cy="211.8856" r="187.4947" gradientUnits="userSpaceOnUse">
				<stop  offset="0" style="stop-color:#FFE6C7"/>
				<stop  offset="4.781194e-02" style="stop-color:#FEE5C1"/>
				<stop  offset="0.3072" style="stop-color:#FAE0A7"/>
				<stop  offset="0.4609" style="stop-color:#F8DE9D"/>
				<stop  offset="0.6227" style="stop-color:#E9C37A"/>
				<stop  offset="0.875" style="stop-color:#D39E49"/>
				<stop  offset="1" style="stop-color:#CB8F36"/>
			</radialGradient>
			<path fill="url(#SVGID_26_)" d="M389.4,315.8c-9.7-3.4-19.6,0.2-29.2,3.6c-7.2,2.6-14,5-19.9,4.1c-10.6-1.7-13.9-4.2-14.7-5
				c-2.7-3.9-3.8-7.2-3.8-7.3c-0.2-0.5-0.6-0.8-1.1-0.8c-0.1,0-0.2,0-0.4,0.1c-0.6,0.2-1,0.9-0.8,1.5c0,0.1,1.1,3.3,3.6,7.2
				c0,0,0,0.1,0,0.1c0.1,0.2,0.2,0.4,0.6,0.8c3.6,5.2,9.9,11.2,19.9,12.4c18.1,2.2,27.4-5.7,27.8-6c0.2-0.2,0.3-0.4,0.4-0.6
				c0.1-0.2,0.1-0.7-0.2-1.3c-0.4-0.5-1-1-2-1.3c3.3-2.3,10.1-6.2,16.4-5.1c4,0.7,5.2,4.9,5.5,6.1c0.6,2.9,0.1,5.7-1.3,6.7
				c-1.2,0.9-3,0.1-4.2-0.6c-0.5-0.3-1.3-0.2-1.6,0.3c-0.1,0.1-1.9,2.9-0.9,5.7c0.7,2,2.7,3.5,5.8,4.4c4,1.2,8.4-2,10-7.2
				C401.5,327.2,399.2,319.2,389.4,315.8z M375.4,317.4c-5.1,2.1-9,5.3-9.2,5.5c-0.4,0.3-0.5,0.8-0.4,1.2c0.1,0.5,0.5,0.8,1,0.9
				c1,0.1,1.6,0.3,2.1,0.4c-2.9,1.9-11.3,6.3-24.8,4.6c-5.2-0.6-9.3-2.7-12.5-5.2c-0.4-0.3-0.1-0.9,0.4-0.7c2.1,0.6,4.8,1.2,8.1,1.8
				c1,0.2,2.1,0.2,3.1,0.2c5.6,0,11.7-2.2,18-4.4C365.8,319.9,370.6,318.2,375.4,317.4z M397.2,332.8c-1.1,3.4-4,6.6-7.1,5.7
				c-2.3-0.7-3.7-1.7-4.2-2.9c-0.3-0.9-0.1-1.9,0.1-2.6c1.1,0.5,2.1,0.8,3,0.8c1.2,0,2-0.4,2.7-0.8c2.2-1.6,3.1-5.2,2.3-9.1
				c-0.3-1.5-0.9-2.8-1.6-3.9C397.8,323.3,398.5,328.8,397.2,332.8z"/>
			<radialGradient id="SVGID_27_" cx="302.093" cy="211.8849" r="187.496" gradientUnits="userSpaceOnUse">
				<stop  offset="0" style="stop-color:#FFE6C7"/>
				<stop  offset="4.781194e-02" style="stop-color:#FEE5C1"/>
				<stop  offset="0.3072" style="stop-color:#FAE0A7"/>
				<stop  offset="0.4609" style="stop-color:#F8DE9D"/>
				<stop  offset="0.6227" style="stop-color:#E9C37A"/>
				<stop  offset="0.875" style="stop-color:#D39E49"/>
				<stop  offset="1" style="stop-color:#CB8F36"/>
			</radialGradient>
			<path fill="url(#SVGID_27_)" d="M315.8,312.7c-0.1-0.6-0.6-1-1.1-1c0,0,0,0,0,0c-0.6,0-1,0.4-1.2,0.9c-0.1,0.5-2.7,13,8.7,21.8
				c1.2,0.9,2.4,1.8,3.6,2.7c6.4,4.8,12.5,9.4,13.1,14.5c0.3,2.4-0.7,4.9-3,7.5c-0.2,0.3-0.3,0.7-0.3,1c0.1,0.4,0.3,0.7,0.7,0.8
				c0.1,0,8.1,3.3,12.7-5.2c1.7-3.1,2.1-5.9,1.3-8.6c-1.4-4.7-6.4-9-16.8-14.6C318.6,324.6,316.7,318.9,315.8,312.7z M332.3,334.7
				c9.6,5.2,14.5,9.2,15.6,13.2c0.6,2.1,0.3,4.3-1.1,6.8c-2,3.7-4.7,4.6-6.8,4.6c-0.6,0-0.9-0.6-0.6-1.1c1.4-2.3,2-4.5,1.7-6.8
				c-0.7-6.1-7.1-11-14-16.1c-1.2-0.9-2.4-1.8-3.5-2.7c-3.3-2.5-5.3-5.5-6.4-8.2c-0.2-0.4,0.4-0.8,0.7-0.4
				C320.5,327.2,324.9,330.7,332.3,334.7z"/>
			<radialGradient id="SVGID_28_" cx="302.0922" cy="211.8846" r="187.4966" gradientUnits="userSpaceOnUse">
				<stop  offset="0" style="stop-color:#FFE6C7"/>
				<stop  offset="4.781194e-02" style="stop-color:#FEE5C1"/>
				<stop  offset="0.3072" style="stop-color:#FAE0A7"/>
				<stop  offset="0.4609" style="stop-color:#F8DE9D"/>
				<stop  offset="0.6227" style="stop-color:#E9C37A"/>
				<stop  offset="0.875" style="stop-color:#D39E49"/>
				<stop  offset="1" style="stop-color:#CB8F36"/>
			</radialGradient>
			<path fill="url(#SVGID_28_)" d="M290.7,312.2c0.4-0.5,0.3-1.3-0.3-1.7c-0.2-0.2-0.5-0.2-0.7-0.2c-0.4,0-0.7,0.2-1,0.5
				c0,0-1.8,2.4-4.3,4.5c-9.8,0.1-11.4-3.5-11.4-3.5c-0.1-0.3-0.4-0.6-0.7-0.7c-0.3-0.1-0.7-0.1-1,0.1c-2,1.2-2.9,3.1-2.4,5.1
				c0.6,2.3,3.4,4.6,8.1,4.6C284.3,320.8,290.4,312.6,290.7,312.2z M280.8,317.5c-1.2,0.6-2.5,0.9-3.8,0.9c-3.4,0-5.4-1.5-5.8-2.9
				c-0.2-0.6,0-1.2,0.4-1.7C272.7,315.2,275.3,317,280.8,317.5z"/>
			<radialGradient id="SVGID_29_" cx="302.092" cy="211.8856" r="187.4946" gradientUnits="userSpaceOnUse">
				<stop  offset="0" style="stop-color:#FFE6C7"/>
				<stop  offset="4.781194e-02" style="stop-color:#FEE5C1"/>
				<stop  offset="0.3072" style="stop-color:#FAE0A7"/>
				<stop  offset="0.4609" style="stop-color:#F8DE9D"/>
				<stop  offset="0.6227" style="stop-color:#E9C37A"/>
				<stop  offset="0.875" style="stop-color:#D39E49"/>
				<stop  offset="1" style="stop-color:#CB8F36"/>
			</radialGradient>
			<path fill="url(#SVGID_29_)" d="M296.4,311.9c0.2-0.6-0.2-1.3-0.8-1.5c-0.1,0-0.2-0.1-0.4-0.1c-0.5,0-1,0.3-1.1,0.8
				c0,0.1-1.1,3.4-3.8,7.3c-0.8,0.8-4.1,3.3-14.7,5c-5.9,1-12.7-1.5-19.9-4.1c-9.6-3.4-19.5-7-29.2-3.6c-9.7,3.4-12,11.4-10,17.8
				c1.7,5.3,6,8.4,10,7.2c3.1-0.9,5.1-2.4,5.8-4.4c1-2.9-0.8-5.6-0.9-5.7c-0.4-0.5-1.1-0.7-1.6-0.3c-1.2,0.8-3,1.5-4.2,0.6
				c-1.4-1-2-3.8-1.3-6.7c0.3-1.3,1.5-5.4,5.5-6.1c6.3-1.1,13.1,2.8,16.4,5.1c-1,0.3-1.6,0.8-2,1.3c-0.4,0.6-0.3,1.1-0.2,1.3
				c0.1,0.2,0.2,0.4,0.4,0.6c0.4,0.3,9.7,8.3,27.8,6c10-1.2,16.3-7.2,19.9-12.4c0.3-0.4,0.5-0.7,0.6-0.8c0,0,0-0.1,0-0.1
				C295.4,315.2,296.4,312,296.4,311.9z M223.7,319.8c-0.7,1.1-1.3,2.4-1.6,3.9c-0.9,3.9,0.1,7.5,2.3,9.1c0.6,0.5,1.5,0.8,2.7,0.8
				c0.8,0,1.8-0.2,3-0.8c0.3,0.7,0.5,1.7,0.1,2.6c-0.5,1.3-1.9,2.3-4.2,2.9c-3.2,0.9-6-2.2-7.1-5.7
				C217.5,328.8,218.2,323.3,223.7,319.8z M284.5,324.8c-3.2,2.5-7.3,4.6-12.5,5.2c-13.5,1.7-21.9-2.7-24.8-4.6
				c0.4-0.1,1.1-0.3,2.1-0.4c0.5-0.1,0.8-0.4,1-0.9c0.1-0.5,0-0.9-0.4-1.2c-0.3-0.2-4.1-3.4-9.2-5.5c4.8,0.8,9.6,2.6,14.3,4.3
				c6.3,2.3,12.3,4.4,18,4.4c1.1,0,2.1-0.1,3.1-0.2c3.3-0.5,5.9-1.1,8.1-1.8C284.6,323.9,284.9,324.5,284.5,324.8z"/>
			<radialGradient id="SVGID_30_" cx="302.0924" cy="211.8849" r="187.4958" gradientUnits="userSpaceOnUse">
				<stop  offset="0" style="stop-color:#FFE6C7"/>
				<stop  offset="4.781194e-02" style="stop-color:#FEE5C1"/>
				<stop  offset="0.3072" style="stop-color:#FAE0A7"/>
				<stop  offset="0.4609" style="stop-color:#F8DE9D"/>
				<stop  offset="0.6227" style="stop-color:#E9C37A"/>
				<stop  offset="0.875" style="stop-color:#D39E49"/>
				<stop  offset="1" style="stop-color:#CB8F36"/>
			</radialGradient>
			<path fill="url(#SVGID_30_)" d="M302.5,312.6c-0.1-0.5-0.6-0.9-1.2-0.9c0,0,0,0,0,0c-0.6,0-1.1,0.5-1.1,1
				c-0.9,6.1-2.8,11.9-17.6,19.8c-10.4,5.6-15.4,9.9-16.8,14.6c-0.8,2.7-0.4,5.5,1.3,8.6c4.6,8.5,12.6,5.2,12.7,5.2
				c0.4-0.2,0.6-0.5,0.7-0.8c0.1-0.4,0-0.8-0.3-1c-2.3-2.7-3.3-5.1-3-7.5c0.5-5.1,6.6-9.6,13.1-14.5c1.2-0.9,2.4-1.8,3.6-2.7
				C305.2,325.7,302.6,313.1,302.5,312.6z M298.8,324.3c-1.2,2.8-3.2,5.7-6.4,8.2c-1.2,0.9-2.4,1.8-3.5,2.7
				c-6.9,5.1-13.4,10-14,16.1c-0.2,2.3,0.3,4.5,1.7,6.8c0.3,0.5,0,1.2-0.6,1.1c-2,0-4.8-0.9-6.8-4.6c-1.4-2.6-1.8-4.7-1.1-6.8
				c1.2-4,6-8,15.6-13.2c7.4-4,11.8-7.5,14.5-10.7C298.4,323.5,299,323.9,298.8,324.3z"/>
			<radialGradient id="SVGID_31_" cx="302.0927" cy="211.8838" r="187.4975" gradientUnits="userSpaceOnUse">
				<stop  offset="0" style="stop-color:#FFE6C7"/>
				<stop  offset="4.781194e-02" style="stop-color:#FEE5C1"/>
				<stop  offset="0.3072" style="stop-color:#FAE0A7"/>
				<stop  offset="0.4609" style="stop-color:#F8DE9D"/>
				<stop  offset="0.6227" style="stop-color:#E9C37A"/>
				<stop  offset="0.875" style="stop-color:#D39E49"/>
				<stop  offset="1" style="stop-color:#CB8F36"/>
			</radialGradient>
			<path fill="url(#SVGID_31_)" d="M317.6,386.4c-1.2,1.5-2.2,3.3-1.6,4.7c0.2,0.4,0.7,1.3,2.3,1.2c3.5-0.2,6.9-3.4,7.5-6.2
				c0.3-1.4-0.2-2.6-1.4-3.2c-0.4-0.2-0.7-0.3-1.1-0.3c-1.5,0-3,1.1-4,2c-0.9-0.7-3.2-2.9-5.2-10.3c-0.1-0.5-0.6-0.9-1.1-0.9
				c-0.1,0-0.2,0-0.3,0c-0.6,0.2-1,0.8-0.8,1.5C313.8,382.2,316.1,385.2,317.6,386.4z M318.3,389.9c0.3-0.8,1.5-2.7,3.2-4
				c1.1-0.9,1.7-0.9,1.8-0.9c0.1,0,0.2,0.1,0.1,0.6C323.1,387.2,320.8,389.8,318.3,389.9z"/>
			<radialGradient id="SVGID_32_" cx="302.0923" cy="211.8847" r="187.4964" gradientUnits="userSpaceOnUse">
				<stop  offset="0" style="stop-color:#FFE6C7"/>
				<stop  offset="4.781194e-02" style="stop-color:#FEE5C1"/>
				<stop  offset="0.3072" style="stop-color:#FAE0A7"/>
				<stop  offset="0.4609" style="stop-color:#F8DE9D"/>
				<stop  offset="0.6227" style="stop-color:#E9C37A"/>
				<stop  offset="0.875" style="stop-color:#D39E49"/>
				<stop  offset="1" style="stop-color:#CB8F36"/>
			</radialGradient>
			<path fill="url(#SVGID_32_)" d="M301.7,395.2c0.1,1.2,1,2.3,2.4,2.9c2.3,1,5.7,0.7,7.4-0.6c1-0.7,1.4-1.8,1.3-2.9
				c-0.3-2-2.2-3.1-4.3-3.4l0.6-16.4c0-0.7-0.5-1.2-1.1-1.2c0,0,0,0,0,0c-0.6,0-1.2,0.5-1.2,1.1l-0.6,16.5c0,0,0,0,0,0
				C303.1,391.5,301.4,393.1,301.7,395.2z M306.3,393.5c2-0.3,3.9,0.4,4.1,1.4c0,0.1,0.1,0.4-0.3,0.7c-0.6,0.5-1.7,0.7-2.8,0.7
				c-0.8,0-1.6-0.1-2.2-0.4c-0.4-0.2-0.9-0.5-1-0.9l0,0C303.9,394.1,305.5,393.6,306.3,393.5z"/>
			<radialGradient id="SVGID_33_" cx="302.0922" cy="211.8824" r="187.4985" gradientUnits="userSpaceOnUse">
				<stop  offset="0" style="stop-color:#FFE6C7"/>
				<stop  offset="4.781194e-02" style="stop-color:#FEE5C1"/>
				<stop  offset="0.3072" style="stop-color:#FAE0A7"/>
				<stop  offset="0.4609" style="stop-color:#F8DE9D"/>
				<stop  offset="0.6227" style="stop-color:#E9C37A"/>
				<stop  offset="0.875" style="stop-color:#D39E49"/>
				<stop  offset="1" style="stop-color:#CB8F36"/>
			</radialGradient>
			<path fill="url(#SVGID_33_)" d="M290.3,383.3c-1.1,2-0.4,4.4,1.7,6.1c1.9,1.5,4.8,2.4,6.3,1.1c0.6-0.5,1.1-1.5,0.5-3.5
				c-0.1-0.5-0.4-1-0.6-1.5c1.5-1.2,4.4-4.2,6.3-10.5c0.2-0.6-0.2-1.3-0.8-1.5c-0.1,0-0.2,0-0.3,0c-0.5,0-1,0.3-1.1,0.9
				c-1.6,5.5-4,8.1-5.3,9.1c-0.9-1.1-2.1-2-3.4-2.2c-0.1,0-0.2,0-0.3,0C292.4,381.3,291.2,381.6,290.3,383.3z M292.4,384.4
				c0.5-0.9,0.9-0.8,1.2-0.6c1.7,0.7,3.2,4,3.1,4.9c-0.1,0-0.2,0-0.3,0c-0.6,0-1.8-0.3-2.9-1.2C292.8,386.9,291.7,385.8,292.4,384.4
				z"/>
			<radialGradient id="SVGID_34_" cx="302.0926" cy="211.8842" r="187.4966" gradientUnits="userSpaceOnUse">
				<stop  offset="0" style="stop-color:#FFE6C7"/>
				<stop  offset="4.781194e-02" style="stop-color:#FEE5C1"/>
				<stop  offset="0.3072" style="stop-color:#FAE0A7"/>
				<stop  offset="0.4609" style="stop-color:#F8DE9D"/>
				<stop  offset="0.6227" style="stop-color:#E9C37A"/>
				<stop  offset="0.875" style="stop-color:#D39E49"/>
				<stop  offset="1" style="stop-color:#CB8F36"/>
			</radialGradient>
			<path fill="url(#SVGID_34_)" d="M303,334.5c1.8,0,3.1,0.3,3.1,0.3c0.5,0.1,0.9,0.6,0.9,1.1c0,0.5-0.3,1-0.8,1.2
				c-0.4,0.1-9.3,2.9-10.1,13.9c-0.7,11.2,7.8,18.2,7.9,18.2c0.5,0.4,0.6,1,0.3,1.5c-0.3,0.5-1,0.7-1.5,0.5
				c-0.2-0.1-20.6-9.3-15.7-24.5C290.5,336.1,298.5,334.5,303,334.5z"/>
			<radialGradient id="SVGID_35_" cx="302.0924" cy="211.8861" r="187.4944" gradientUnits="userSpaceOnUse">
				<stop  offset="0" style="stop-color:#FFE6C7"/>
				<stop  offset="4.781194e-02" style="stop-color:#FEE5C1"/>
				<stop  offset="0.3072" style="stop-color:#FAE0A7"/>
				<stop  offset="0.4609" style="stop-color:#F8DE9D"/>
				<stop  offset="0.6227" style="stop-color:#E9C37A"/>
				<stop  offset="0.875" style="stop-color:#D39E49"/>
				<stop  offset="1" style="stop-color:#CB8F36"/>
			</radialGradient>
			<path fill="url(#SVGID_35_)" d="M310.4,334.8L310.4,334.8c0.2,0,18,0.2,18,15.9c0,15.4-15.5,20.8-15.7,20.9
				c-0.5,0.2-1.1,0-1.4-0.5c-0.3-0.5-0.2-1.1,0.2-1.5c0.1-0.1,9.6-8.7,7.8-19.6c-1.7-10.6-8.9-12.8-9.2-12.8c-0.6-0.2-1-0.7-0.9-1.3
				C309.3,335.2,309.8,334.8,310.4,334.8z"/>
			<radialGradient id="SVGID_36_" cx="302.0925" cy="211.886" r="187.4938" gradientUnits="userSpaceOnUse">
				<stop  offset="0" style="stop-color:#FFE6C7"/>
				<stop  offset="4.781194e-02" style="stop-color:#FEE5C1"/>
				<stop  offset="0.3072" style="stop-color:#FAE0A7"/>
				<stop  offset="0.4609" style="stop-color:#F8DE9D"/>
				<stop  offset="0.6227" style="stop-color:#E9C37A"/>
				<stop  offset="0.875" style="stop-color:#D39E49"/>
				<stop  offset="1" style="stop-color:#CB8F36"/>
			</radialGradient>
			<path fill="url(#SVGID_36_)" d="M307.3,336.9c-0.2,0-0.5,0.1-0.7,0.2c-13.4,9.9-6.7,21.5-4.3,25c3.5,5,4.4,8.5,4.4,8.5
				c0.1,0.6,0.7,1,1.3,0.9c0.6-0.1,1-0.6,1-1.3c-0.1-1.4,1.4-3.6,3-6c3-4.5,6.6-10,5.5-16.6C315.6,337.1,307.3,336.9,307.3,336.9z
				 M308.5,361.1c-0.2,0.3-0.5,0.3-0.6,0.3c-1.6-0.3-2.1-14.1-1.5-19.4c0.3-2.7,0.8-4,1.7-4c0,0,0,0,0.1,0c0.4,0,0.7,0.3,1,0.9
				C310.7,342.8,310,359.1,308.5,361.1z"/>
			<radialGradient id="SVGID_37_" cx="302.0919" cy="211.8842" r="187.4978" gradientUnits="userSpaceOnUse">
				<stop  offset="0" style="stop-color:#FFE6C7"/>
				<stop  offset="4.781194e-02" style="stop-color:#FEE5C1"/>
				<stop  offset="0.3072" style="stop-color:#FAE0A7"/>
				<stop  offset="0.4609" style="stop-color:#F8DE9D"/>
				<stop  offset="0.6227" style="stop-color:#E9C37A"/>
				<stop  offset="0.875" style="stop-color:#D39E49"/>
				<stop  offset="1" style="stop-color:#CB8F36"/>
			</radialGradient>
			<path fill="url(#SVGID_37_)" d="M312.2,331.8c-1.6,1.1-5.6,2.5-9-0.4c-0.1-0.1-0.5-0.4-0.5-0.9c0-0.5,0.3-0.8,0.5-1.1
				c2.3-2.4,3.6-8.5,3.9-17.9c0-0.5,0.4-0.9,0.9-0.9c0,0,0,0,0,0c0.5,0,0.9,0.4,0.9,0.9c0.2,9.7,1.6,18.2,3,18.7
				c0.3,0.1,0.6,0.4,0.6,0.7C312.7,331.2,312.5,331.6,312.2,331.8z"/>
		</g>
	</g>
	<g>
		<g>
			<radialGradient id="SVGID_38_" cx="311.9847" cy="37.1564" r="13.0723" gradientUnits="userSpaceOnUse">
				<stop  offset="0" style="stop-color:#FFE6C7"/>
				<stop  offset="4.781194e-02" style="stop-color:#FEE5C1"/>
				<stop  offset="0.3072" style="stop-color:#FAE0A7"/>
				<stop  offset="0.4609" style="stop-color:#F8DE9D"/>
				<stop  offset="0.6227" style="stop-color:#E9C37A"/>
				<stop  offset="0.875" style="stop-color:#D39E49"/>
				<stop  offset="1" style="stop-color:#CB8F36"/>
			</radialGradient>
			<path fill="url(#SVGID_38_)" d="M329,43c-10.7-4.2-23.7-4-33.9,0c-4.7-10.9,20.6-15.3,31-8.2C329,36.9,330.4,39.7,329,43z"/>
		</g>
		<g>
			<radialGradient id="SVGID_39_" cx="311.9951" cy="154.3266" r="36.6125" gradientUnits="userSpaceOnUse">
				<stop  offset="0" style="stop-color:#FFE6C7"/>
				<stop  offset="4.781194e-02" style="stop-color:#FEE5C1"/>
				<stop  offset="0.3072" style="stop-color:#FAE0A7"/>
				<stop  offset="0.4609" style="stop-color:#F8DE9D"/>
				<stop  offset="0.6227" style="stop-color:#E9C37A"/>
				<stop  offset="0.875" style="stop-color:#D39E49"/>
				<stop  offset="1" style="stop-color:#CB8F36"/>
			</radialGradient>
			<path fill="url(#SVGID_39_)" d="M363.3,147.3c-1.2,3.8-0.5,1.5-4,12.8c-7.3,2.7-15.9,0.8-20.3-4.5c-6.3,7.6-20.6,7.7-26.9,0
				c-6.4,7.7-20.6,7.7-26.9,0c-4.4,5.2-12.9,7.3-20.3,4.5c-3.7-11.5-2.9-9-4-12.8c4.8,1.3,12.1,2,12.1,2c19.6,2.1,57.8,2.2,78.4,0
				C351.2,149.3,358.5,148.6,363.3,147.3z"/>
			<radialGradient id="SVGID_40_" cx="311.9956" cy="169.4063" r="32.4085" gradientUnits="userSpaceOnUse">
				<stop  offset="0" style="stop-color:#FFE6C7"/>
				<stop  offset="4.781194e-02" style="stop-color:#FEE5C1"/>
				<stop  offset="0.3072" style="stop-color:#FAE0A7"/>
				<stop  offset="0.4609" style="stop-color:#F8DE9D"/>
				<stop  offset="0.6227" style="stop-color:#E9C37A"/>
				<stop  offset="0.875" style="stop-color:#D39E49"/>
				<stop  offset="1" style="stop-color:#CB8F36"/>
			</radialGradient>
			<path fill="url(#SVGID_40_)" d="M357.2,166.7l-2.1,6.5c0,0-16.4,4-43.1,4c-26.7,0-43.1-4-43.1-4l-2.1-6.5
				c6.6,1.6,14.1-0.2,18.2-5.2c6.3,7.6,20.6,7.7,26.9,0c6.4,7.7,20.6,7.6,26.9,0C343,166.5,350.6,168.3,357.2,166.7z"/>
		</g>
		<g>
			<radialGradient id="SVGID_41_" cx="311.9945" cy="95.3991" r="46.6105" gradientUnits="userSpaceOnUse">
				<stop  offset="0" style="stop-color:#FFE6C7"/>
				<stop  offset="4.781194e-02" style="stop-color:#FEE5C1"/>
				<stop  offset="0.3072" style="stop-color:#FAE0A7"/>
				<stop  offset="0.4609" style="stop-color:#F8DE9D"/>
				<stop  offset="0.6227" style="stop-color:#E9C37A"/>
				<stop  offset="0.875" style="stop-color:#D39E49"/>
				<stop  offset="1" style="stop-color:#CB8F36"/>
			</radialGradient>
			<path fill="url(#SVGID_41_)" d="M349.5,98.6L349.5,98.6c-3.4,16.2-10,34.4-16.9,49.2c-5.6,0.2-11.9,0.3-18.6,0.3
				c15.8-22.9,31.4-74.6-2-74.6c-33.3,0-17.8,51.8-2,74.6c-6.8,0-13-0.1-18.6-0.3c-6.9-14.7-13.5-33-16.9-49.2h0
				c-1.5-7.1-2.2-12.7-2-18.7c0,0,0,0,0,0c1-22,16.6-37.3,39.4-37.3c23,0,38.5,15.4,39.4,37.3c0,0,0,0,0,0
				C351.7,86.1,350.9,92,349.5,98.6z"/>
		</g>
		<g>
			<radialGradient id="SVGID_42_" cx="251.0374" cy="108.6106" r="31.9171" gradientUnits="userSpaceOnUse">
				<stop  offset="0" style="stop-color:#FFE6C7"/>
				<stop  offset="4.781194e-02" style="stop-color:#FEE5C1"/>
				<stop  offset="0.3072" style="stop-color:#FAE0A7"/>
				<stop  offset="0.4609" style="stop-color:#F8DE9D"/>
				<stop  offset="0.6227" style="stop-color:#E9C37A"/>
				<stop  offset="0.875" style="stop-color:#D39E49"/>
				<stop  offset="1" style="stop-color:#CB8F36"/>
			</radialGradient>
			<path fill="url(#SVGID_42_)" d="M275.1,146.8c-5.7-0.5-10.3-1.3-13.7-2.1l-4.6-1c-10.4-9-26.2-25.1-29-42.2
				c-4.3-25.9,12.2-31.1,23.2-31.1c8.5,0,14.9,3.4,19.1,7.1c-0.7,7,0.1,13,1.5,19.8c-10.4-3.4-22,2.7-19.6,18.3
				C253.8,128,267.2,140.4,275.1,146.8z"/>
		</g>
		<g>
			<radialGradient id="SVGID_43_" cx="372.9525" cy="108.6106" r="31.9168" gradientUnits="userSpaceOnUse">
				<stop  offset="0" style="stop-color:#FFE6C7"/>
				<stop  offset="4.781194e-02" style="stop-color:#FEE5C1"/>
				<stop  offset="0.3072" style="stop-color:#FAE0A7"/>
				<stop  offset="0.4609" style="stop-color:#F8DE9D"/>
				<stop  offset="0.6227" style="stop-color:#E9C37A"/>
				<stop  offset="0.875" style="stop-color:#D39E49"/>
				<stop  offset="1" style="stop-color:#CB8F36"/>
			</radialGradient>
			<path fill="url(#SVGID_43_)" d="M396.3,101.5c-2.9,17.1-18.6,33.2-29,42.2c0,0-8.3,2.1-18.3,3.1c7.9-6.4,21.3-18.9,23.2-31.1
				c2.1-13.9-6.7-19.3-13.8-19.3c-2.1,0-4,0.4-5.8,0.9c0.4-1.8,0.7-3.6,1-5.4c0.8-5,0.9-9.8,0.5-14.4c4.2-3.6,10.6-7.1,19.1-7.1
				C384.1,70.4,400.6,75.7,396.3,101.5z"/>
		</g>
		<g>
			<radialGradient id="SVGID_44_" cx="311.9956" cy="18.2574" r="13.5545" gradientUnits="userSpaceOnUse">
				<stop  offset="0" style="stop-color:#FFE6C7"/>
				<stop  offset="4.781194e-02" style="stop-color:#FEE5C1"/>
				<stop  offset="0.3072" style="stop-color:#FAE0A7"/>
				<stop  offset="0.4609" style="stop-color:#F8DE9D"/>
				<stop  offset="0.6227" style="stop-color:#E9C37A"/>
				<stop  offset="0.875" style="stop-color:#D39E49"/>
				<stop  offset="1" style="stop-color:#CB8F36"/>
			</radialGradient>
			<path fill="url(#SVGID_44_)" d="M326.2,24.6c0,2.3-0.5,4.5-1.3,6.6c-3.5-1.6-7.9-2.5-12.9-2.5c-5,0-9.4,0.9-12.9,2.5
				c-0.9-2-1.3-4.2-1.3-6.6c0-6.1,7.2-13.7,12.5-18.5c1-0.9,2.5-0.9,3.5,0C319.1,10.9,326.2,18.5,326.2,24.6z"/>
		</g>
	</g>
</g>
<g>
	<g>
		<path fill="#EBC67F" d="M41.1,229.9h-8.4v12.5c0,4.8,0,5,0.5,5.7c0.7,0.8,2.3,1,6.2,1h1.6v4.1H11.4v-4.1h1.1c3.9,0,5.5-0.3,6.2-1
			c0.5-0.7,0.5-0.9,0.5-5.7v-32.5c0-4.8,0-5-0.5-5.7c-0.7-0.8-2.3-1.1-6.2-1.1h-1.1V199h29.8c15.9,0,23.6,4.7,23.6,15.1
			C64.7,224.6,56.8,229.9,41.1,229.9z M39.8,203.1h-3c-3.4,0-4.1,0.8-4.1,4.5v18.2h4.4c9.7,0,13.2-3.2,13.2-11.8
			C50.3,206.5,47,203.1,39.8,203.1z"/>
		<path fill="#EBC67F" d="M98.9,230.6c-3.2,0-5.6-2.3-5.6-5.6c0-1.3,0.3-2.2,1.3-3.5c-2.6,0.8-4.1,2.1-5.7,4.9
			c-1.9,3.3-3.2,9.2-3.2,14.5v5c0,3.1,0.8,3.5,5.6,3.5h1.7v3.8H67.9v-3.8h1.1c4.8,0,4.9-0.5,4.9-3.5v-16.5c0-7-0.2-7.3-4.8-7.3h-1.1
			v-3.8l16.7-0.5v9.1c2.7-6.9,6.7-10.2,12.5-10.2c4.8,0,8.3,3.2,8.3,7.6C105.3,227.8,102.5,230.6,98.9,230.6z"/>
		<path fill="#EBC67F" d="M108.7,253.2v-3.8h1c4.7,0,4.8-0.5,4.8-3.5v-16.7c0-6.7-0.2-7.1-4.8-7.1h-1v-3.8l17.6-0.5v28.2
			c0,2.9,0.1,3.5,4.7,3.5h1.2v3.8H108.7z M120.4,211.2c-2.9,0-5.3-2.4-5.3-5.3c0-2.9,2.4-5.3,5.3-5.3c2.9,0,5.3,2.4,5.3,5.3
			C125.7,208.9,123.3,211.2,120.4,211.2z"/>
		<path fill="#EBC67F" d="M161.6,253.2v-3.8c4.4,0,5.2-0.5,5.2-3.5v-15c0-4.8-2-7.4-5.5-7.4c-2.7,0-5.3,1.7-6.5,4.4
			c-0.9,1.8-1.2,3.8-1.2,7.1v10.8c0,2.9,0.8,3.5,5.2,3.5v3.8h-22.9v-3.8h1.1c4.8,0,4.9-0.5,4.9-3.5v-16.5c0-7-0.2-7.3-4.8-7.3h-1.1
			v-3.8l17.2-0.5v6.6c3.7-5.6,7.4-7.7,13.4-7.7c3.9,0,7.3,1.3,9.3,3.6c2,2.2,2.9,5,2.9,9.7v16c0,3.1,0.1,3.5,4.9,3.5h1.1v3.8H161.6z
			"/>
		<path fill="#EBC67F" d="M208.2,254.3c-12.1,0-20.2-7.4-20.2-18.3c0-11.3,9-19.4,21.5-19.4c9.1,0,14.9,4.1,14.9,10.2
			c0,3.8-2.6,6.4-6.8,6.4c-3.6,0-6.2-2.3-6.2-5.5c0-1.4,0.3-2.1,1.6-3.7c0.7-0.8,0.8-1.2,0.8-1.4c0-1.2-1.8-2.1-4-2.1
			c-5.6,0-8.9,5.3-8.9,14.2c0,9.3,3.5,14.6,9.6,14.6c5.3,0,8.3-3.1,10.7-9.3l3.9,1.3C222.5,249.9,216.6,254.3,208.2,254.3z"/>
		<path fill="#EBC67F" d="M250.1,254.3c-12.5,0-20.3-7.7-20.3-18.5c0-10.8,8.6-19.2,20.2-19.2c11,0,17.9,7.1,17.9,18.3v1.2h-25.1
			c0,9.6,4.4,13.1,10.2,13.1c4.9,0,8.3-2.5,11.3-8.3l3.7,1.5C264.7,250.4,258.9,254.3,250.1,254.3z M250.3,220.5
			c-4.5,0-7.4,4.4-7.4,11.5h11.3c1.5,0,2-0.6,2-2.4C256.2,223.6,254.1,220.5,250.3,220.5z"/>
		<path fill="#EBC67F" d="M290.4,254.3c-3.9,0-7.8-1-10.6-2.6l-2.9,1.3h-3.2l-0.4-13h3.4c3.6,7.1,7.9,10.4,13.7,10.4
			c4,0,6.5-1.7,6.5-4.4c0-2.3-1.5-3.5-5.3-4.4l-5.5-1.2c-4.9-1-7.1-2.1-9.3-4.3c-2-2-3.2-4.6-3.2-7.4c0-7.1,6.1-12.2,14.5-12.2
			c3.6,0,6.5,0.8,9.3,2.4l2.8-1.7h3.2l0.3,11.9h-3.5c-3.7-6.2-7.2-8.7-12-8.7c-3.7,0-6.3,1.8-6.3,4.4c0,2,1,2.7,4.7,3.7l6.8,1.7
			c5.4,1.3,7,2,8.9,3.8c2.1,1.9,3.2,4.5,3.2,7.7C305.5,249,299.2,254.3,290.4,254.3z"/>
		<path fill="#EBC67F" d="M344.5,254.3c-3.8,0-6.7-2-8-5.3c-4,3.9-7.9,5.3-14.3,5.3c-7.3,0-11.6-3.2-11.6-8.8
			c0-7.2,5.1-9.9,21.8-13.5c0.7-0.1,1.7-0.3,2.5-0.5v-3.9c0-5.2-1.7-7.1-6.2-7.1c-3,0-5.6,1.1-5.6,2.4c0,0.3,1.7,2.6,1.7,4.1
			c0,2.8-2.7,4.9-6.2,4.9s-6.1-2.4-6.1-5.6c0-5.9,6.8-9.7,17.1-9.7c10.9,0,16.9,3.2,16.9,12.8v13.2c0,4.4,0.4,5.4,2,5.4
			c0.8,0,2.1-1,2.9-1c0.7,0,1.1,0.5,1.1,1.2C352.8,251.3,348.8,254.3,344.5,254.3z M334.9,235.5l-4,0.9c-5.4,1.2-7.7,3.6-7.7,7.5
			c0,3.2,1.9,5.3,4.8,5.3c4.2,0,6.9-3.7,6.9-9.5V235.5z"/>
		<path fill="#EBC67F" d="M377.5,253.2v-4.1h1.1c3.9,0,5.5-0.3,6.2-1.1c0.5-0.6,0.5-0.9,0.5-5.6v-32.6c0-4.7,0-5-0.5-5.6
			c-0.7-0.8-2.3-1.1-6.2-1.1h-1.1V199h29.2v4.1h-1.1c-3.9,0-5.6,0.3-6.2,1.1c-0.5,0.6-0.5,0.8-0.5,5.6v32.6c0,4.8,0,5,0.5,5.6
			c0.7,0.8,2.3,1.1,6.2,1.1h1.1v4.1H377.5z"/>
		<path fill="#EBC67F" d="M428.6,254.3c-3.9,0-7.8-1-10.6-2.6l-2.9,1.3h-3.2l-0.4-13h3.4c3.6,7.1,7.9,10.4,13.7,10.4
			c4,0,6.5-1.7,6.5-4.4c0-2.3-1.5-3.5-5.3-4.4l-5.5-1.2c-4.9-1-7.1-2.1-9.3-4.3c-2-2-3.2-4.6-3.2-7.4c0-7.1,6.1-12.2,14.5-12.2
			c3.6,0,6.5,0.8,9.3,2.4l2.8-1.7h3.2l0.3,11.9h-3.5c-3.7-6.2-7.2-8.7-12-8.7c-3.7,0-6.3,1.8-6.3,4.4c0,2,1,2.7,4.7,3.7l6.8,1.7
			c5.4,1.3,7,2,8.9,3.8c2.1,1.9,3.2,4.5,3.2,7.7C443.6,249,437.4,254.3,428.6,254.3z"/>
		<path fill="#EBC67F" d="M482.7,254.3c-3.8,0-6.7-2-8-5.3c-4,3.9-7.9,5.3-14.3,5.3c-7.3,0-11.6-3.2-11.6-8.8
			c0-7.2,5.1-9.9,21.8-13.5c0.7-0.1,1.7-0.3,2.5-0.5v-3.9c0-5.2-1.7-7.1-6.2-7.1c-3,0-5.6,1.1-5.6,2.4c0,0.3,1.7,2.6,1.7,4.1
			c0,2.8-2.7,4.9-6.2,4.9s-6.1-2.4-6.1-5.6c0-5.9,6.8-9.7,17.1-9.7c10.9,0,16.9,3.2,16.9,12.8v13.2c0,4.4,0.4,5.4,2,5.4
			c0.8,0,2.1-1,2.9-1c0.7,0,1.1,0.5,1.1,1.2C491,251.3,487,254.3,482.7,254.3z M473.1,235.5l-4,0.9c-5.4,1.2-7.7,3.6-7.7,7.5
			c0,3.2,1.9,5.3,4.8,5.3c4.2,0,6.9-3.7,6.9-9.5V235.5z"/>
		<path fill="#EBC67F" d="M518.7,254.3c-5.6,0-9.5-1.8-13-6.1l-4.9,6h-3.7c0.8-4.1,1-9.2,1-16.5v-27.9c0-6.7-0.2-7-4.8-7H492V199
			l18-1.1v24.3c3.1-3.9,6.6-5.6,11.6-5.6c9.5,0,16.3,7.6,16.3,18.2C537.9,246.3,530.1,254.3,518.7,254.3z M517.9,222.2
			c-5.3,0-8,5.1-8,15.1c0,8.5,2.6,13.1,7.6,13.1c4.9,0,7.4-5,7.4-14.7C525,226.7,522.6,222.2,517.9,222.2z"/>
		<path fill="#EBC67F" d="M563.3,254.3c-12.5,0-20.3-7.7-20.3-18.5c0-10.8,8.6-19.2,20.2-19.2c11,0,17.9,7.1,17.9,18.3v1.2H556
			c0,9.6,4.4,13.1,10.2,13.1c4.9,0,8.3-2.5,11.3-8.3l3.7,1.5C577.8,250.4,572.1,254.3,563.3,254.3z M563.4,220.5
			c-4.5,0-7.4,4.4-7.4,11.5h11.3c1.5,0,2-0.6,2-2.4C569.4,223.6,567.3,220.5,563.4,220.5z"/>
		<path fill="#EBC67F" d="M585.1,253.2v-3.8h1.1c4.9,0,5-0.5,5-3.5v-36.1c0-6.7-0.2-7-4.8-7h-1.4V199l18-1.1v48
			c0,1.9,0.2,2.5,1.1,2.9c0.5,0.3,2,0.5,3.5,0.5h1v3.8H585.1z"/>
	</g>
</g>
<g>
	<g>
		<path fill="#EBC67F" d="M191.1,286.1c0,1.1,0.1,2.4,0.2,3.8c-1.4-0.1-3.7-0.1-6.9-0.1c-3.9,0-6.8,0-8.8,0.1v-0.6
			c0.7,0,1.3-0.1,1.6-0.2s0.6-0.4,0.7-0.7c0.1-0.3,0.2-0.9,0.2-1.6v-14.9c0-0.8-0.1-1.3-0.2-1.6c-0.1-0.3-0.3-0.6-0.7-0.7
			s-0.9-0.2-1.6-0.2v-0.6c2,0.1,4.9,0.1,8.8,0.1c3,0,5.1,0,6.3-0.1c-0.1,1.3-0.2,2.5-0.2,3.5c0,0.8,0,1.4,0.1,1.9h-0.7
			c-0.1-1.3-0.3-2.3-0.6-2.9c-0.2-0.6-0.6-1.1-1.1-1.4c-0.5-0.3-1.3-0.4-2.4-0.4h-2.5c-0.7,0-1.3,0.1-1.6,0.2s-0.6,0.3-0.7,0.7
			c-0.1,0.3-0.2,0.9-0.2,1.6v7.1h2c1,0,1.7-0.3,2-0.9c0.3-0.6,0.5-1.2,0.6-1.8s0.1-1,0.2-1.2h0.7c-0.1,1-0.1,1.9-0.1,2.8l0,1.4
			c0,1,0.1,2.4,0.2,4.3h-0.7c0-0.1-0.1-0.6-0.2-1.5c-0.1-0.8-0.4-1.5-0.8-1.9c-0.5-0.4-1.1-0.6-1.9-0.6h-2v7.2
			c0,0.8,0.1,1.3,0.2,1.6c0.1,0.3,0.3,0.6,0.7,0.7s0.9,0.2,1.6,0.2h2.2c1.3,0,2.2-0.2,2.9-0.5c0.7-0.3,1.1-0.9,1.4-1.6
			c0.3-0.7,0.5-1.8,0.7-3.2h0.7C191.1,284.5,191.1,285.2,191.1,286.1z"/>
		<path fill="#EBC67F" d="M213.6,288.6c-0.1-0.3-0.3-0.4-0.5-0.4c-0.2,0-0.4,0.1-0.6,0.2c-0.6,0.4-1.2,0.8-1.7,1
			c-0.5,0.3-1.1,0.5-1.7,0.7c-0.6,0.2-1.4,0.3-2.2,0.3c-1.9,0-3.6-0.4-5-1.3s-2.6-2.1-3.3-3.7c-0.8-1.6-1.2-3.6-1.2-5.8
			c0-2.2,0.4-4.2,1.2-5.9s2-3,3.4-4c1.5-0.9,3.1-1.4,5-1.4c1.2,0,2.2,0.2,3.1,0.5c0.9,0.3,1.7,0.8,2.5,1.4c0.2,0.2,0.4,0.3,0.6,0.3
			c0.4,0,0.7-0.6,0.8-1.8h0.7c-0.1,1.3-0.1,3.6-0.1,6.9h-0.7c-0.1-0.9-0.3-1.6-0.4-2.1s-0.3-0.9-0.4-1.3c-0.2-0.3-0.4-0.7-0.7-1.1
			c-0.6-0.8-1.4-1.4-2.3-1.8c-0.9-0.4-1.9-0.6-3-0.6c-1.3,0-2.5,0.4-3.4,1.3c-1,0.9-1.7,2.1-2.3,3.7c-0.5,1.6-0.8,3.5-0.8,5.6
			c0,2.2,0.3,4,0.9,5.6c0.6,1.6,1.4,2.7,2.4,3.6c1,0.8,2.2,1.2,3.5,1.2c1,0,2-0.2,2.9-0.6c1-0.4,1.7-1,2.2-1.7
			c0.4-0.5,0.7-1.1,0.9-1.8c0.2-0.6,0.3-1.6,0.5-3h0.7c0,3.4,0,5.8,0.1,7.2h-0.7C213.8,289.3,213.8,288.9,213.6,288.6z"/>
		<path fill="#EBC67F" d="M235.8,269.6c1.4,0.9,2.6,2.1,3.3,3.7s1.2,3.6,1.2,5.8c0,2.2-0.4,4.2-1.2,5.9s-2,3-3.4,4s-3.1,1.4-5,1.4
			c-1.9,0-3.6-0.4-5-1.3s-2.6-2.1-3.3-3.7c-0.8-1.6-1.2-3.6-1.2-5.8c0-2.2,0.4-4.2,1.2-5.9s2-3,3.4-4c1.5-0.9,3.1-1.4,5-1.4
			C232.7,268.3,234.4,268.7,235.8,269.6z M227.2,270.2c-1,0.9-1.7,2.1-2.3,3.7c-0.5,1.6-0.8,3.4-0.8,5.5c0,2.1,0.3,3.9,0.9,5.5
			c0.6,1.6,1.4,2.8,2.4,3.7s2.1,1.3,3.4,1.3c1.3,0,2.4-0.4,3.4-1.3c1-0.9,1.7-2.1,2.3-3.7c0.5-1.6,0.8-3.4,0.8-5.5
			c0-2.1-0.3-3.9-0.9-5.5s-1.4-2.8-2.4-3.7s-2.1-1.3-3.4-1.3C229.4,268.8,228.2,269.3,227.2,270.2z"/>
		<path fill="#EBC67F" d="M274.1,289.9c-0.5,0.3-1.1,0.5-1.8,0.5c-0.8,0-1.5-0.2-2-0.7s-0.9-1.3-1.2-2.5l-0.7-3
			c-0.2-1-0.5-1.8-0.7-2.4c-0.2-0.6-0.5-1-1-1.3c-0.4-0.3-1-0.5-1.8-0.5H262v6.9c0,0.8,0.1,1.3,0.2,1.6s0.3,0.6,0.7,0.7
			c0.3,0.1,0.9,0.2,1.6,0.2v0.6c-0.9-0.1-2.2-0.1-3.8-0.1c-1.7,0-3,0-3.9,0.1v-0.6c0.7,0,1.3-0.1,1.6-0.2c0.3-0.1,0.6-0.4,0.7-0.7
			s0.2-0.9,0.2-1.6v-14.9c0-0.8-0.1-1.3-0.2-1.6s-0.3-0.6-0.7-0.7c-0.3-0.1-0.9-0.2-1.6-0.2v-0.6c0.8,0.1,2.1,0.1,3.7,0.1
			c0.8,0,1.7,0,2.6,0s1.6,0,2,0c1.6,0,2.9,0.2,4,0.7c1.1,0.5,1.9,1.1,2.5,1.9c0.5,0.8,0.8,1.7,0.8,2.7c0,0.8-0.2,1.6-0.6,2.4
			c-0.4,0.8-1,1.5-1.9,2.1c-0.9,0.6-2,1.1-3.4,1.3l0.4,0.1c0.9,0.1,1.6,0.4,2.2,0.7c0.5,0.3,1,0.7,1.3,1.2s0.6,1.2,0.8,2.1l0.8,3.1
			c0.1,0.6,0.3,1.1,0.4,1.4c0.1,0.3,0.3,0.6,0.5,0.8c0.2,0.2,0.4,0.2,0.7,0.2c0.3,0,0.6-0.1,0.8-0.3c0.2-0.2,0.5-0.5,0.8-0.9
			l0.5,0.3C275,289.1,274.5,289.6,274.1,289.9z M267.3,278.6c0.8-0.4,1.3-1,1.6-1.7s0.4-1.6,0.4-2.6c0-1.6-0.4-2.9-1.2-3.7
			c-0.8-0.8-2.1-1.3-3.8-1.3c-0.6,0-1.1,0.1-1.4,0.2c-0.3,0.1-0.5,0.4-0.6,0.8s-0.2,0.9-0.2,1.6v7.4h2
			C265.4,279.3,266.5,279.1,267.3,278.6z"/>
		<path fill="#EBC67F" d="M294.9,286.1c0,1.1,0.1,2.4,0.2,3.8c-1.4-0.1-3.7-0.1-6.9-0.1c-3.9,0-6.8,0-8.8,0.1v-0.6
			c0.7,0,1.3-0.1,1.6-0.2c0.3-0.1,0.6-0.4,0.7-0.7s0.2-0.9,0.2-1.6v-14.9c0-0.8-0.1-1.3-0.2-1.6s-0.3-0.6-0.7-0.7
			c-0.3-0.1-0.9-0.2-1.6-0.2v-0.6c2,0.1,4.9,0.1,8.8,0.1c3,0,5.1,0,6.3-0.1c-0.1,1.3-0.2,2.5-0.2,3.5c0,0.8,0,1.4,0.1,1.9h-0.7
			c-0.1-1.3-0.3-2.3-0.6-2.9c-0.2-0.6-0.6-1.1-1.1-1.4s-1.3-0.4-2.4-0.4h-2.5c-0.7,0-1.3,0.1-1.6,0.2c-0.3,0.1-0.6,0.3-0.7,0.7
			c-0.1,0.3-0.2,0.9-0.2,1.6v7.1h2c1,0,1.7-0.3,2-0.9c0.3-0.6,0.5-1.2,0.6-1.8s0.1-1,0.2-1.2h0.7c-0.1,1-0.1,1.9-0.1,2.8l0,1.4
			c0,1,0.1,2.4,0.2,4.3h-0.7c0-0.1-0.1-0.6-0.2-1.5s-0.4-1.5-0.8-1.9c-0.5-0.4-1.1-0.6-1.9-0.6h-2v7.2c0,0.8,0.1,1.3,0.2,1.6
			c0.1,0.3,0.3,0.6,0.7,0.7c0.3,0.1,0.9,0.2,1.6,0.2h2.2c1.3,0,2.2-0.2,2.9-0.5s1.1-0.9,1.4-1.6s0.5-1.8,0.7-3.2h0.7
			C294.9,284.5,294.9,285.2,294.9,286.1z"/>
		<path fill="#EBC67F" d="M303.8,287.9c0.9,1.3,2.2,1.9,4,1.9c0.7,0,1.3-0.1,1.9-0.4s1.1-0.7,1.4-1.3c0.4-0.6,0.6-1.4,0.6-2.2
			c0-0.8-0.2-1.5-0.6-2.1c-0.4-0.6-0.9-1.2-1.5-1.7s-1.5-1.1-2.6-1.7c-1.2-0.7-2.2-1.4-2.9-1.9c-0.7-0.6-1.3-1.2-1.8-2
			c-0.5-0.8-0.7-1.7-0.7-2.8c0-1.1,0.3-2.1,0.8-2.9s1.2-1.4,2.1-1.8c0.9-0.4,1.8-0.6,2.8-0.6c0.6,0,1.2,0.1,1.6,0.2
			c0.4,0.1,0.8,0.2,1.1,0.4c0.3,0.2,0.6,0.3,1,0.6c0.5,0.3,0.8,0.4,1,0.4c0.2,0,0.3-0.1,0.4-0.3c0.1-0.2,0.2-0.5,0.2-1h0.7
			c-0.1,1.2-0.1,3.2-0.1,6.1h-0.7c-0.1-1-0.3-2-0.7-2.8s-0.9-1.6-1.6-2.1c-0.7-0.5-1.6-0.8-2.7-0.8c-0.7,0-1.3,0.1-1.9,0.4
			s-1,0.7-1.3,1.2s-0.5,1.1-0.5,1.8c0,1.1,0.3,2,1,2.6s1.4,1.3,2.3,1.8c0.9,0.5,1.5,0.9,1.8,1.1c1.3,0.8,2.3,1.5,3,2.1
			c0.7,0.6,1.3,1.3,1.8,2c0.4,0.8,0.7,1.7,0.7,2.7c0,1.2-0.3,2.3-0.9,3.1c-0.6,0.9-1.3,1.5-2.3,1.9s-2.1,0.6-3.3,0.6
			c-1,0-1.8-0.1-2.4-0.3c-0.6-0.2-1.2-0.5-1.8-0.8c-0.5-0.3-0.8-0.4-1-0.4c-0.2,0-0.3,0.1-0.4,0.3c-0.1,0.2-0.2,0.5-0.2,1h-0.7
			c0.1-1.1,0.1-3.5,0.1-7.2h0.7C302.4,285,302.9,286.6,303.8,287.9z"/>
		<path fill="#EBC67F" d="M326.3,269.6c-0.3,0.1-0.6,0.4-0.7,0.7s-0.2,0.9-0.2,1.6v14.9c0,0.8,0.1,1.3,0.2,1.6s0.3,0.6,0.7,0.7
			c0.3,0.1,0.9,0.2,1.6,0.2v0.6c-0.9-0.1-2.2-0.1-3.8-0.1c-1.7,0-3,0-3.9,0.1v-0.6c0.7,0,1.3-0.1,1.6-0.2c0.3-0.1,0.6-0.4,0.7-0.7
			s0.2-0.9,0.2-1.6v-14.9c0-0.8-0.1-1.3-0.2-1.6s-0.3-0.6-0.7-0.7c-0.3-0.1-0.9-0.2-1.6-0.2v-0.6c0.8,0.1,2.1,0.1,3.9,0.1
			c1.6,0,2.9,0,3.8-0.1v0.6C327.1,269.3,326.6,269.4,326.3,269.6z"/>
		<path fill="#EBC67F" d="M336.4,268.8l0.7,0c2.8-0.1,4.3-0.1,4.6-0.1c3.6,0,6.2,0.9,8,2.7s2.7,4.3,2.7,7.7c0,2.2-0.4,4.1-1.3,5.7
			c-0.9,1.6-2.1,2.9-3.8,3.8c-1.6,0.9-3.6,1.3-5.9,1.3c-0.3,0-0.9,0-2,0s-1.8,0-2.3,0c-1.7,0-2.9,0-3.7,0.1v-0.6
			c0.7,0,1.3-0.1,1.6-0.2c0.3-0.1,0.6-0.4,0.7-0.7s0.2-0.9,0.2-1.6v-14.9c0-0.8-0.1-1.3-0.2-1.6s-0.3-0.6-0.7-0.7
			c-0.3-0.1-0.9-0.2-1.6-0.2v-0.6C334.5,268.8,335.5,268.8,336.4,268.8z M338.8,288.5c0.1,0.4,0.3,0.6,0.7,0.7
			c0.3,0.1,0.8,0.2,1.4,0.2c2.1,0,3.8-0.4,5-1.2s2.1-1.9,2.6-3.4c0.5-1.5,0.7-3.4,0.7-5.7c0-2.3-0.3-4.2-0.8-5.6
			c-0.5-1.5-1.4-2.5-2.6-3.3c-1.2-0.7-2.9-1.1-4.9-1.1c-0.6,0-1.1,0.1-1.4,0.2c-0.3,0.1-0.5,0.4-0.6,0.8s-0.2,0.9-0.2,1.6v15
			C338.7,287.6,338.7,288.1,338.8,288.5z"/>
		<path fill="#EBC67F" d="M373.5,286.1c0,1.1,0.1,2.4,0.2,3.8c-1.4-0.1-3.7-0.1-6.9-0.1c-3.9,0-6.8,0-8.8,0.1v-0.6
			c0.7,0,1.3-0.1,1.6-0.2c0.3-0.1,0.6-0.4,0.7-0.7s0.2-0.9,0.2-1.6v-14.9c0-0.8-0.1-1.3-0.2-1.6s-0.3-0.6-0.7-0.7
			c-0.3-0.1-0.9-0.2-1.6-0.2v-0.6c2,0.1,4.9,0.1,8.8,0.1c3,0,5.1,0,6.3-0.1c-0.1,1.3-0.2,2.5-0.2,3.5c0,0.8,0,1.4,0.1,1.9h-0.7
			c-0.1-1.3-0.3-2.3-0.6-2.9c-0.2-0.6-0.6-1.1-1.1-1.4s-1.3-0.4-2.4-0.4h-2.5c-0.7,0-1.3,0.1-1.6,0.2c-0.3,0.1-0.6,0.3-0.7,0.7
			c-0.1,0.3-0.2,0.9-0.2,1.6v7.1h2c1,0,1.7-0.3,2-0.9c0.3-0.6,0.5-1.2,0.6-1.8s0.1-1,0.2-1.2h0.7c-0.1,1-0.1,1.9-0.1,2.8l0,1.4
			c0,1,0.1,2.4,0.2,4.3h-0.7c0-0.1-0.1-0.6-0.2-1.5s-0.4-1.5-0.8-1.9c-0.5-0.4-1.1-0.6-1.9-0.6h-2v7.2c0,0.8,0.1,1.3,0.2,1.6
			c0.1,0.3,0.3,0.6,0.7,0.7c0.3,0.1,0.9,0.2,1.6,0.2h2.2c1.3,0,2.2-0.2,2.9-0.5s1.1-0.9,1.4-1.6s0.5-1.8,0.7-3.2h0.7
			C373.5,284.5,373.5,285.2,373.5,286.1z"/>
		<path fill="#EBC67F" d="M396.9,269.6c-0.3,0.2-0.6,0.5-0.7,0.8s-0.2,1-0.2,1.7v17.9h-0.7l-12.7-19.5v15.8c0,0.8,0.1,1.4,0.2,1.7
			s0.4,0.7,0.8,0.8s1,0.3,1.8,0.3v0.6c-0.7-0.1-1.7-0.1-3.1-0.1c-1.2,0-2.1,0-2.8,0.1v-0.6c0.7,0,1.2-0.1,1.6-0.3
			c0.3-0.2,0.6-0.5,0.7-0.8s0.2-1,0.2-1.7v-14.6c0-0.8-0.1-1.3-0.2-1.6s-0.3-0.6-0.7-0.7c-0.3-0.1-0.9-0.2-1.6-0.2v-0.6
			c0.7,0.1,1.6,0.1,2.8,0.1c0.9,0,1.7,0,2.4-0.1l10.7,16.3v-12.8c0-0.8-0.1-1.4-0.2-1.7s-0.4-0.7-0.8-0.8c-0.4-0.2-1-0.3-1.8-0.3
			v-0.6c0.7,0.1,1.7,0.1,3.1,0.1c1.2,0,2.1,0,2.8-0.1v0.6C397.7,269.3,397.2,269.4,396.9,269.6z"/>
		<path fill="#EBC67F" d="M420.2,288.6c-0.1-0.3-0.3-0.4-0.5-0.4c-0.2,0-0.4,0.1-0.6,0.2c-0.6,0.4-1.2,0.8-1.7,1
			c-0.5,0.3-1.1,0.5-1.7,0.7c-0.6,0.2-1.4,0.3-2.2,0.3c-1.9,0-3.6-0.4-5-1.3c-1.4-0.9-2.6-2.1-3.3-3.7c-0.8-1.6-1.2-3.6-1.2-5.8
			c0-2.2,0.4-4.2,1.2-5.9s2-3,3.4-4c1.5-0.9,3.1-1.4,5-1.4c1.2,0,2.2,0.2,3.1,0.5c0.9,0.3,1.7,0.8,2.5,1.4c0.2,0.2,0.4,0.3,0.6,0.3
			c0.4,0,0.7-0.6,0.8-1.8h0.7c-0.1,1.3-0.1,3.6-0.1,6.9h-0.7c-0.1-0.9-0.3-1.6-0.4-2.1s-0.3-0.9-0.4-1.3c-0.2-0.3-0.4-0.7-0.7-1.1
			c-0.6-0.8-1.4-1.4-2.3-1.8s-1.9-0.6-3-0.6c-1.3,0-2.5,0.4-3.4,1.3c-1,0.9-1.7,2.1-2.3,3.7s-0.8,3.5-0.8,5.6c0,2.2,0.3,4,0.9,5.6
			c0.6,1.6,1.4,2.7,2.4,3.6c1,0.8,2.2,1.2,3.5,1.2c1,0,2-0.2,2.9-0.6s1.7-1,2.2-1.7c0.4-0.5,0.7-1.1,0.9-1.8c0.2-0.6,0.3-1.6,0.5-3
			h0.7c0,3.4,0,5.8,0.1,7.2h-0.7C420.4,289.3,420.3,288.9,420.2,288.6z"/>
		<path fill="#EBC67F" d="M433.5,269.6c-0.3,0.1-0.6,0.4-0.7,0.7s-0.2,0.9-0.2,1.6v14.9c0,0.8,0.1,1.3,0.2,1.6s0.3,0.6,0.7,0.7
			c0.3,0.1,0.9,0.2,1.6,0.2v0.6c-0.9-0.1-2.2-0.1-3.8-0.1c-1.7,0-3,0-3.9,0.1v-0.6c0.7,0,1.3-0.1,1.6-0.2c0.3-0.1,0.6-0.4,0.7-0.7
			s0.2-0.9,0.2-1.6v-14.9c0-0.8-0.1-1.3-0.2-1.6s-0.3-0.6-0.7-0.7c-0.3-0.1-0.9-0.2-1.6-0.2v-0.6c0.8,0.1,2.1,0.1,3.9,0.1
			c1.6,0,2.9,0,3.8-0.1v0.6C434.4,269.3,433.9,269.4,433.5,269.6z"/>
		<path fill="#EBC67F" d="M458.6,289.4v0.6c-0.8-0.1-1.9-0.1-3.2-0.1c-1.7,0-3,0-3.9,0.1v-0.6c0.8,0,1.3-0.1,1.6-0.3
			c0.3-0.2,0.5-0.4,0.5-0.8c0-0.3-0.1-0.8-0.4-1.4l-1.9-4.9h-7.3l-1.2,3.2c-0.4,1-0.6,1.8-0.6,2.5c0,0.6,0.2,1.1,0.6,1.4
			c0.4,0.3,1.1,0.4,2,0.4v0.6c-1.2-0.1-2.3-0.1-3.5-0.1c-0.9,0-1.7,0-2.3,0.1v-0.6c1-0.2,1.8-1.1,2.4-2.6l7.1-18.2h0.5l7.4,18.9
			C457,288.7,457.7,289.3,458.6,289.4z M447.9,272.4l-3.5,9h6.8L447.9,272.4z"/>
		<path fill="#EBC67F" d="M468.2,269.6c-0.3,0.1-0.6,0.4-0.7,0.7s-0.2,0.9-0.2,1.6v14.9c0,0.8,0.1,1.3,0.2,1.6
			c0.1,0.3,0.3,0.6,0.7,0.7c0.3,0.1,0.9,0.2,1.6,0.2h2.2c1.3,0,2.2-0.2,2.9-0.5s1.1-0.9,1.4-1.7s0.5-1.9,0.7-3.4h0.7
			c-0.1,0.6-0.1,1.4-0.1,2.5c0,1.1,0.1,2.4,0.2,3.8c-1.4-0.1-3.7-0.1-6.9-0.1c-3.9,0-6.8,0-8.8,0.1v-0.6c0.7,0,1.3-0.1,1.6-0.2
			c0.3-0.1,0.6-0.4,0.7-0.7s0.2-0.9,0.2-1.6v-14.9c0-0.8-0.1-1.3-0.2-1.6s-0.3-0.6-0.7-0.7c-0.3-0.1-0.9-0.2-1.6-0.2v-0.6
			c0.8,0.1,2.1,0.1,3.9,0.1c1.6,0,2.9,0,3.8-0.1v0.6C469.1,269.3,468.6,269.4,468.2,269.6z"/>
	</g>
</g>
</svg>
