<?xml version="1.0" encoding="utf-8"?>
<!-- Generator: Adobe Illustrator 21.0.0, SVG Export Plug-In . SVG Version: 6.00 Build 0)  -->
<svg version="1.1" id="Camada_1" xmlns="http://www.w3.org/2000/svg" xmlns:xlink="http://www.w3.org/1999/xlink" x="0px" y="0px"
	 viewBox="0 0 605.3 371.1" enable-background="new 0 0 605.3 371.1" xml:space="preserve">
<path fill="#FFFFFF" d="M555.8,371.1H49.5C22.2,371.1,0,348.9,0,321.5v-272C0,22.2,22.2,0,49.5,0h506.2c27.4,0,49.5,22.2,49.5,49.5
	v272C605.3,348.9,583.1,371.1,555.8,371.1z"/>
<g>
	<g>
		<defs>
			<path id="SVGID_1_" d="M96.5,14.8c-22.7,0-43.5,18.4-46.4,41.1l-32,224.2c-2.9,22.7,13.2,41.1,35.9,41.1h425
				c22.7,0,43.5-18.4,46.4-41.1l32-224.2c2.9-22.7-13.2-41.1-35.9-41.1L96.5,14.8L96.5,14.8z"/>
		</defs>
		<clipPath id="SVGID_2_">
			<use xlink:href="#SVGID_1_"  overflow="visible"/>
		</clipPath>
		
			<linearGradient id="SVGID_3_" gradientUnits="userSpaceOnUse" x1="-673.0334" y1="-102.5784" x2="-672.0334" y2="-102.5784" gradientTransform="matrix(363.1556 363.1556 -363.1556 363.1556 207270.125 281654.1563)">
			<stop  offset="0" style="stop-color:#003789"/>
			<stop  offset="0.1866" style="stop-color:#003481"/>
			<stop  offset="0.5425" style="stop-color:#002B68"/>
			<stop  offset="1" style="stop-color:#001941"/>
		</linearGradient>
		<polygon clip-path="url(#SVGID_2_)" fill="url(#SVGID_3_)" points="287.8,-257.7 713.5,168 287.8,593.7 -137.9,168 		"/>
	</g>
</g>
<g>
	<g>
		<defs>
			<rect id="SVGID_4_" x="-112.9" y="-241" width="800" height="800"/>
		</defs>
		<clipPath id="SVGID_5_">
			<use xlink:href="#SVGID_4_"  overflow="visible"/>
		</clipPath>
		<path clip-path="url(#SVGID_5_)" fill="#FFFFFF" d="M131,298.3c-20.5,0-37-7.2-49.4-21.7s-17.1-32-14.1-52.5s12.7-37.9,29.3-52.4
			c16.5-14.5,35.1-21.7,55.6-21.7s36.9,7.2,49.3,21.7l-33.4,29.2c-5.5-6.4-12.8-9.7-21.9-9.7s-17.4,3.2-24.7,9.7
			c-7.4,6.4-11.7,14.2-13,23.2c-1.3,9.1,0.8,16.9,6.3,23.4c5.5,6.4,12.8,9.7,22,9.7c9.1,0,17.3-3.2,24.6-9.7l24.9,29.2
			C170,291.1,151.4,298.3,131,298.3"/>
	</g>
	<g>
		<defs>
			<rect id="SVGID_6_" x="-112.9" y="-241" width="800" height="800"/>
		</defs>
		<clipPath id="SVGID_7_">
			<use xlink:href="#SVGID_6_"  overflow="visible"/>
		</clipPath>
		<polygon clip-path="url(#SVGID_7_)" fill="#FFFFFF" points="357.8,149.9 351.8,191.1 265.3,191.1 262.9,207.6 322,207.6 
			317.3,240.6 258.1,240.6 255.7,257.1 342.3,257.1 336.3,298.3 208.6,298.3 230,149.9 		"/>
	</g>
	<g>
		<defs>
			<rect id="SVGID_8_" x="-112.9" y="-241" width="800" height="800"/>
		</defs>
		<clipPath id="SVGID_9_">
			<use xlink:href="#SVGID_8_"  overflow="visible"/>
		</clipPath>
		<path clip-path="url(#SVGID_9_)" fill="#FFFFFF" d="M422.9,298.3c-18.1,0-32.7-6.4-43.6-19.2c-11-12.8-15.1-28.3-12.5-46.4
			l12-82.8H420l-12,82.8c-1,6.7,0.6,12.5,4.7,17.2c4.1,4.8,9.5,7.2,16.2,7.2s12.8-2.4,18.2-7.2c5.5-4.8,8.7-10.5,9.6-17.2l12-82.8
			h41.2l-12,82.8c-2.6,18.1-11.3,33.6-25.9,46.4C457.3,291.9,440.9,298.3,422.9,298.3"/>
	</g>
</g>
<g>
	<g>
		<defs>
			<path id="SVGID_10_" d="M120.7,36.4c-20.2,0-38.6,16.4-41.2,36.5l-8.1,57l408.6-0.7l-73.4-92.8L120.7,36.4L120.7,36.4z"/>
		</defs>
		<clipPath id="SVGID_11_">
			<use xlink:href="#SVGID_10_"  overflow="visible"/>
		</clipPath>
		
			<linearGradient id="SVGID_12_" gradientUnits="userSpaceOnUse" x1="-672.6267" y1="-101.6549" x2="-671.6267" y2="-101.6549" gradientTransform="matrix(408.5853 0 0 408.5853 274896.75 41617.9023)">
			<stop  offset="0" style="stop-color:#7DBCE3"/>
			<stop  offset="6.990710e-02" style="stop-color:#7DBCE3"/>
			<stop  offset="0.4747" style="stop-color:#6796CA"/>
			<stop  offset="0.829" style="stop-color:#5777B3"/>
			<stop  offset="1" style="stop-color:#506BAB"/>
		</linearGradient>
		<rect x="71.4" y="36.4" clip-path="url(#SVGID_11_)" fill="url(#SVGID_12_)" width="408.6" height="93.6"/>
	</g>
</g>
<g>
	<g>
		<defs>
			<path id="SVGID_13_" d="M321.6,36.4l-74.4,92.8l344.6,0.7l4.2-57c-2.6-20.2-21-36.5-41.2-36.5L321.6,36.4L321.6,36.4z"/>
		</defs>
		<clipPath id="SVGID_14_">
			<use xlink:href="#SVGID_13_"  overflow="visible"/>
		</clipPath>
		
			<linearGradient id="SVGID_15_" gradientUnits="userSpaceOnUse" x1="-675.6082" y1="-101.5959" x2="-674.6082" y2="-101.5959" gradientTransform="matrix(-348.8662 0 0 348.8662 -235100.8281 35526.5703)">
			<stop  offset="0" style="stop-color:#7DBCE3"/>
			<stop  offset="6.990710e-02" style="stop-color:#7DBCE3"/>
			<stop  offset="0.4747" style="stop-color:#6796CA"/>
			<stop  offset="0.829" style="stop-color:#5777B3"/>
			<stop  offset="1" style="stop-color:#506BAB"/>
		</linearGradient>
		<rect x="247.2" y="36.4" clip-path="url(#SVGID_14_)" fill="url(#SVGID_15_)" width="348.9" height="93.6"/>
	</g>
</g>
<g enable-background="new    ">
	<path fill="#00306B" d="M47.7,338.2h3.9l-3.2,20.4h-3.9L47.7,338.2z"/>
	<path fill="#00306B" d="M54.7,338.2h3.9l5.8,13.2l2.1-13.2h3.9l-3.2,20.4h-3.8l-5.8-13.1l-2.1,13.1h-3.9L54.7,338.2z"/>
	<path fill="#00306B" d="M72.5,342.6c0.5-3.4,2.8-4.5,5.1-4.4c0,0,6.8,0.2,8.6,0.4l-0.5,3.2H78c-1.4,0-1.6,0.8-1.7,1.6l-0.5,3.2
		l7.9,0.3l-0.5,3.2l-8,0.3l-1.3,8.2H70L72.5,342.6z"/>
	<path fill="#00306B" d="M88.8,338.2h8.6c3.1,0,5.2,1.9,4.5,6.7c-0.7,5.1-3.2,5.5-4.2,5.6l2.9,8h-4.4l-2.4-7.8l-3.1-0.3l-1.3,8h-3.9
		L88.8,338.2z M95.5,347.5c1.5,0,2.3-0.8,2.5-2.9c0.3-2.3-0.2-2.9-1.5-2.9h-4.3l-0.9,5.8H95.5z"/>
</g>
<g enable-background="new    ">
	<path fill="#00306B" d="M107.2,338.2h4.4l3.4,20.4h-4l-0.8-4.5h-6.6l-2.2,4.5h-4.3L107.2,338.2z M109.9,350.6l-1.1-7.4l-3.5,7.4
		H109.9z"/>
</g>
<g enable-background="new    ">
	<path fill="#00306B" d="M116.8,342.2c0.6-3.4,2.8-4.1,5.1-4.1c0,0,6.8,0.2,8.6,0.4l-0.5,3.2h-7.8c-1.4,0-1.6,0.8-1.7,1.6l-0.5,3.1
		l7.9,0.3l-0.5,3.2l-7.9,0.3l-0.5,3.2c-0.2,1.5,0.7,1.4,1.5,1.4h7.5l-0.5,3.2c-1.6,0.2-8.5,0.5-8.5,0.5c-1.9,0.1-4.6-0.8-4-4.3
		L116.8,342.2z"/>
</g>
<g enable-background="new    ">
	<path fill="#00306B" d="M128.7,354.9c1.1,0.1,4.3,0.3,6.9,0.3c1.2,0,2.6-0.2,2.8-1.8l0.2-1.1c0.2-1.2,0.1-1.9-1.6-1.9h-2.8
		c-4.9,0-4.8-3.8-4.6-5.5l0.3-2.1c0.6-4.2,3.3-4.8,6.4-4.8c2.9,0,5.8,0.3,7.6,0.8l-0.5,3.1c-1.6-0.1-5.6-0.3-6.6-0.3
		c-1.8-0.1-2.7,0.1-3,2l-0.1,1c-0.3,1.8,0.4,1.9,1.9,1.9h2.9c3.9,0,4.4,3.1,4.1,5.4l-0.2,1.8c-0.4,4.8-4.1,5-6.6,5
		c-3.2,0-5.5-0.2-7.4-0.8L128.7,354.9z"/>
</g>
<g enable-background="new    ">
	<path fill="#00306B" d="M143.4,338.2h15l-0.6,3.6h-5.7l-2.6,16.8h-3.9l2.6-16.8h-5.5L143.4,338.2z"/>
	<path fill="#00306B" d="M160.7,338.2h8.6c3.1,0,5.2,1.9,4.5,6.7c-0.7,5.1-3.2,5.5-4.2,5.6l2.9,8h-4.4l-2.4-7.8l-3.1-0.3l-1.3,8
		h-3.9L160.7,338.2z M167.3,347.5c1.5,0,2.3-0.8,2.5-2.9c0.3-2.3-0.2-2.9-1.5-2.9H164l-0.9,5.8H167.3z"/>
	<path fill="#00306B" d="M177.5,338.2h3.9l-1.8,11.7c-0.6,3.8-0.1,5.2,2.9,5.2c3,0,4-1.6,4.6-5.2l1.9-11.7h3.9l-1.8,12.2
		c-1.1,6.7-4.2,8.3-9.1,8.3c-4.1,0-7.5-1.4-6.3-9.3L177.5,338.2z"/>
	<path fill="#00306B" d="M194.7,338.2h15l-0.6,3.6h-5.7l-2.6,16.8H197l2.6-16.8h-5.5L194.7,338.2z"/>
	<path fill="#00306B" d="M212,338.2h3.9l-1.8,11.7c-0.6,3.8-0.1,5.2,2.9,5.2c3,0,4-1.6,4.6-5.2l1.9-11.7h3.9l-1.8,12.2
		c-1.1,6.7-4.2,8.3-9.1,8.3c-4.1,0-7.5-1.4-6.3-9.3L212,338.2z"/>
	<path fill="#00306B" d="M230.1,338.2h8.6c3.1,0,5.2,1.9,4.5,6.7c-0.7,5.1-3.2,5.5-4.2,5.6l2.9,8h-4.4l-2.4-7.8l-3.1-0.3l-1.3,8
		h-3.9L230.1,338.2z M236.8,347.5c1.5,0,2.3-0.8,2.5-2.9c0.3-2.3-0.2-2.9-1.5-2.9h-4.3l-0.9,5.8H236.8z"/>
	<path fill="#00306B" d="M253.1,338.2h4.4l3.4,20.4h-4l-0.8-4.5h-6.6l-2.2,4.5H243L253.1,338.2z M255.7,350.6l-1.1-7.4l-3.5,7.4
		H255.7z"/>
</g>
<g enable-background="new    ">
	<path fill="#00306B" d="M283.3,342.2c0.6-3.4,2.8-4.1,5.1-4.1c0,0,6.8,0.2,8.6,0.4l-0.5,3.2h-7.8c-1.4,0-1.6,0.8-1.7,1.6l-0.5,3.1
		l7.9,0.3l-0.5,3.2l-7.9,0.3l-0.5,3.2c-0.2,1.5,0.7,1.4,1.5,1.4h7.5l-0.5,3.2c-1.6,0.2-8.5,0.5-8.5,0.5c-1.9,0.1-4.6-0.8-4-4.3
		L283.3,342.2z"/>
</g>
<g enable-background="new    ">
	<path fill="#00306B" d="M306.7,338.2h8.5c2.6,0,5.5,1.4,4.6,6.7c-0.9,6.4-4.4,6.2-6.7,6.1c-1.1-0.1-4.4-0.4-4.5-0.5l-1.3,8h-3.9
		L306.7,338.2z M313.4,347.6c1.2,0,2.1-0.6,2.5-3.1c0.4-2.4-0.6-2.9-1.6-2.9h-4.3l-0.9,6H313.4z"/>
</g>
<g enable-background="new    ">
	<path fill="#00306B" d="M325.2,338.2h4.4l3.4,20.4h-4l-0.8-4.5h-6.6l-2.2,4.5h-4.3L325.2,338.2z M327.9,350.6l-1.1-7.4l-3.5,7.4
		H327.9z"/>
</g>
<g enable-background="new    ">
	<path fill="#00306B" d="M335.8,338.2l2.1,15.2l7.1-15.2h4.3l-10,20.4h-4.5l-3.1-20.4H335.8z"/>
	<path fill="#00306B" d="M352,338.2h3.9l-3.2,20.4h-3.9L352,338.2z"/>
</g>
<g enable-background="new    ">
	<path fill="#00306B" d="M356.5,338.2h5.3l1.2,13.9l5.5-13.9h5.5l-1.3,20.4h-3.9l1-13.6l-5.5,13.6h-4.4l-1.3-13.6l-3.3,13.6h-3.9
		L356.5,338.2z"/>
</g>
<g enable-background="new    ">
	<path fill="#00306B" d="M377.1,342.2c0.6-3.4,2.8-4.1,5.1-4.1c0,0,6.8,0.2,8.6,0.4l-0.5,3.2h-7.8c-1.4,0-1.6,0.8-1.7,1.6l-0.5,3.1
		l7.9,0.3l-0.5,3.2l-7.9,0.3l-0.5,3.2c-0.2,1.5,0.7,1.4,1.5,1.4h7.5l-0.5,3.2c-1.6,0.2-8.5,0.5-8.5,0.5c-1.9,0.1-4.6-0.8-4-4.3
		L377.1,342.2z"/>
	<path fill="#00306B" d="M393.5,338.2h3.9l5.8,13.2l2.1-13.2h3.9l-3.2,20.4h-3.8l-5.8-13.1l-2.1,13.1h-3.9L393.5,338.2z"/>
</g>
<g enable-background="new    ">
	<path fill="#00306B" d="M409,338.2h15l-0.6,3.6h-5.7l-2.6,16.8h-3.9l2.6-16.8h-5.5L409,338.2z"/>
</g>
<g enable-background="new    ">
	<path fill="#00306B" d="M426.1,338.2h4.4l3.4,20.4h-4l-0.8-4.5h-6.6l-2.2,4.5H416L426.1,338.2z M428.8,350.6l-1.1-7.4l-3.5,7.4
		H428.8z"/>
</g>
<g enable-background="new    ">
	<path fill="#00306B" d="M442.5,338c2.9,0,4.9,0.3,7,1l-0.5,3c-0.3,0-3.3-0.5-6.1-0.4c-2,0-3.9-0.1-5,6.8c-0.8,4.5-0.2,6.6,2.8,6.8
		c2.2,0,4.5-0.1,6.3-0.3l-0.5,3.1c-2.1,0.7-4.1,0.8-7.2,0.8c-5.2-0.1-6.2-5-5.3-10.9C435,341.3,437,338,442.5,338z M436.3,361.8
		l1.3-0.4c0.8-0.3,1-0.8,1.1-1.9c0.4,0,2.6,0,2.6,0c-0.4,2.8-1.3,4-3.8,4h-1.6L436.3,361.8z"/>
</g>
<g enable-background="new    ">
	<path fill="#00306B" d="M458.3,338.2h4.4l3.4,20.4h-4l-0.8-4.5h-6.6l-2.2,4.5h-4.3L458.3,338.2z M460,332.9c1.3,0.1,1.8,0.9,2.8,1
		c0.9,0,2.3-0.6,2.8-1.1l0.4,1.7c-0.9,0.8-2.1,1.9-3.5,1.9c-1.3,0-1.9-1-2.9-1c-1.1,0-1.8,0.4-2.8,1l-0.4-1.5
		C457.3,333.9,458.6,332.9,460,332.9z M461,350.6l-1.1-7.4l-3.5,7.4H461z"/>
</g>
<g enable-background="new    ">
	<path fill="#00306B" d="M475.9,338c4.8,0,8.1,1.4,6.6,10.8c-1.4,9-4.7,9.8-9.7,9.8c-4.8,0-8.2-1.3-6.7-10.5
		C467.7,338.6,471.2,338,475.9,338z M473.4,355.1c3.1,0,4.5-1.1,5.3-6.6c1-6.3-0.3-6.9-3.2-6.9c-3,0-4.4,0.4-5.4,6.9
		C469.3,354.1,470,355.1,473.4,355.1z"/>
</g>
</svg>
