<?xml version="1.0" encoding="utf-8"?>
<!-- Generator: Adobe Illustrator 21.0.0, SVG Export Plug-In . SVG Version: 6.00 Build 0)  -->
<svg version="1.1" id="Camada_1" xmlns="http://www.w3.org/2000/svg" xmlns:xlink="http://www.w3.org/1999/xlink" x="0px" y="0px"
	 viewBox="0 0 403.8 439.4" enable-background="new 0 0 403.8 439.4" xml:space="preserve">
<g>
	<path fill="#201411" d="M12.9,328l-0.1-12.2v-5c0-20.4,1-34.7,2.9-42.7c2.3-9.9,5.6-16.7,9.7-20.5c5.6-5.3,12.7-7.9,21.3-7.9
		c2.1,0,3.6,0.5,4.6,1.5c1,1,1.5,2.2,1.5,3.7c0,1.4-0.4,2.7-1.2,3.8c-0.8,1.1-1.8,1.7-3.1,1.8h-9.3c-2.7,0-5.1,1.8-7.1,5.5
		c-1.9,3.7-3.4,8.1-4.3,13.4c-1.7,10-2.5,18.3-2.4,24.9v1l-0.9,40.1c0,8.5,0.4,14.3,1.3,17.6c0.9,3.2,1.8,5.9,2.7,7.9
		c0.9,2,2,3.6,3.3,4.9c3,3,6.8,4.5,11.4,4.5c1.5,0,3-0.6,4.3-1.8c1.5,0,2.9,0.4,4.2,1.1c1.2,0.7,1.8,1.9,1.8,3.5
		c0,5.5-3.6,8.2-10.9,8.2c-3,0-6.1-0.5-9.3-1.4c-3.3-0.9-5.7-1.9-7.3-3C17.3,370.9,12.9,354.6,12.9,328z"/>
</g>
<g>
	<path fill="#201411" d="M63.7,333l0.3-5.6c0-0.5-0.1-0.7-0.4-0.7V324c0-15.5,1.6-26.5,4.7-33.1c2.6-5.5,5.1-9,7.6-10.3
		c2.4-1.3,4.8-2,7.2-2c20,0,33.9,5.8,41.4,17.3c4.4,6.6,6.6,14.8,6.6,24.6v1.1l0.5,16.8c0,28.4-11.5,42.6-34.5,42.6
		c-9.5,0-16.8-3-21.9-9c-4.8-5.8-7.8-11.5-8.8-17.1C64.6,346.5,63.7,339.2,63.7,333z M79,312.8l-1.3,13.7c0,14.3,2,26.8,6.1,37.4
		c4.3,6.2,8.4,9.9,12.3,11c3.1,0,5.9-0.7,8.5-2.2c2.5-1.4,4.5-3.4,6-5.8c1.5-2.4,2.7-5,3.7-7.7c0.9-2.6,1.6-5.5,2.1-8.5
		c0.8-5.3,1.3-9.7,1.3-13.4c0-3.7-0.6-9.4-1.7-17.1c-1.1-7.7-1.7-13.4-1.7-17.1v-2.6c-0.2-3.6-2.2-6.8-6.2-9.6
		c-4-2.8-9-4.2-15.2-4.2c-5.9,0-9.8,1.9-11.8,5.7c-1.6,3.2-2.4,7.1-2.4,11.8L79,312.8z"/>
	<path fill="#201411" d="M160.5,328.7l-0.3,16c0,13.1,1.6,23.3,4.9,30.9l-2.9,4H155l-3.4-2.2c0.2-4.4,0.3-9.4,0.3-14.9
		c0-5.5-0.7-17.3-2.2-35.4c-1.5-18.1-2.2-31.5-2.2-40.5c0-4.7,2.9-7,8.6-7c9,0,16.6,1.3,22.7,4c6.1,2.7,9.2,6.6,9.2,11.6v10.4
		c0,2.8-0.9,5.4-2.8,7.8c-1.9,2.3-4,4.8-6.4,7.4c-2.4,2.6-3.8,4-4,4.3c0.9,2.4,2.6,7.1,4.9,14.2c5.1,15.4,10.7,26.4,16.8,33.2
		c1.8,1.9,2.7,3.4,2.7,4.5s-0.5,2-1.6,2.7c-1.1,0.7-2.5,1.1-4.2,1.1c-3.6,0-7.1-2.4-10.4-7.1c-3.3-4.7-6-10-8-15.8
		c-6.2-17.7-9.9-27.4-11.2-29.2H160.5z M161.5,285.1l-0.9,2.1c0,4,0.2,9.9,0.5,17.5c0.3,7.6,0.5,13.2,0.5,16.7
		c4-1.2,7.3-4.3,9.8-9.4c2.5-5.1,3.7-9,3.7-11.7c0-2.7-0.1-4.7-0.4-6c-0.3-1.3-0.8-2.7-1.6-4.2C171.4,286.9,167.5,285.3,161.5,285.1
		z"/>
	<path fill="#201411" d="M265,348.2l2.8,9.1c0,1.2,0.8,4.1,2.5,8.8c1.6,4.7,2.5,7.7,2.5,9.2v0.1c0,2.2-1.4,3.6-4.3,4.2
		c-3.6,0-6.4-0.3-8.5-1s-3-2-3-3.9c0-4.2-1.3-10.3-3.8-18.3l-25.5-2.2c-1.6,3.3-2.8,6.9-3.7,10.8c-0.8,3.9-1.6,6.7-2.4,8.5
		c-1.5,3.7-4.3,5.5-8.5,5.5c-2,0-3.9-0.4-5.6-1.1c-1.7-0.7-2.6-1.7-2.6-2.9l0.6-1.3c11.6-25.7,20.3-50.7,25.9-75
		c0.2-0.7,0.4-2.6,0.8-5.9c0.8-7.2,2.4-11.8,4.8-13.8h8.7c2.4,0,4.4,0.3,6.2,0.9c1.8,0.6,2.7,1.6,2.7,2.8c0,7.5,1.7,18.7,5.2,33.5
		C263.3,331.1,265,341.7,265,348.2z M251.5,351.2c-0.5-1.4-0.8-4-0.8-7.5c0-3.6-0.4-8-1.1-13.4c-0.7-5.3-1.8-11.5-3.1-18.6
		c-1.3-7.1-2.3-12.2-2.8-15.4c-7.8,24.8-12.9,42.3-15.2,52.5C231.6,349.9,239.2,350.7,251.5,351.2z"/>
	<path fill="#201411" d="M314.2,329.1l1.3,31.4v4.4l-0.1,4.1h3.4l7.5-0.1c7.1,0,10.6,1.2,10.6,3.7c0,1.3-0.9,2.3-2.6,3.2
		c-1.7,0.9-3.7,1.3-6,1.3h-11.4c-7.8,0-12.8-0.1-15-0.3c-1.3,0.1-2.4,0.1-3.2,0.1c-6.2,0-9.2-1.1-9.2-3.3c0-0.9,0.5-1.8,1.5-2.6
		c1-0.8,2-1.3,3-1.3h7.3l0.5-2l-1.8-31.4l1.4-32.9c0-5.6-0.4-10.9-1.3-15.9h-4.9l-5.9,0.1c-2.5,0-4.5-0.3-5.9-0.8
		c-1.4-0.6-2.1-1.6-2.1-3.1c0-2.3,4.3-3.4,12.8-3.4h30.8c7,0,10.5,1,10.5,3.1c0,0.9-0.8,1.8-2.3,2.5c-1.5,0.8-3.2,1.2-5.2,1.2h-13.3
		c0.7,4,1,8.6,1,13.7L314.2,329.1z"/>
	<path fill="#201411" d="M350.2,372.1l10.7,1.1c3.3,0,6.1-0.8,8.6-2.5c2.4-1.6,4.3-3.7,5.4-6.1c2.3-4.7,3.4-8.9,3.4-12.5
		c0-3.6-1.1-7.2-3.2-10.8c-2.1-3.6-4.7-6.9-7.8-9.9c-3.1-3.1-6.1-6.2-9.2-9.4c-7.2-7.5-10.9-14.9-10.9-22.1c0-4.4,1.3-8.4,3.9-11.8
		c4.9-6.4,11.4-9.5,19.5-9.5c3,0,5.9,0.6,8.7,1.7c2.7,1.1,4.1,2.3,4.1,3.6c0,2.3-2.1,3.4-6.3,3.4c-1.9,0-3.7-0.3-5.4-0.9
		c-5.5,0.1-9.2,3.6-11.1,10.5c-0.4,1.5-0.6,3.2-0.6,5.2c0,2,0.8,4.5,2.3,7.4c1.5,2.9,3.4,5.6,5.8,7.8c2.3,2.3,4.8,4.8,7.5,7.6
		c2.7,2.8,5.2,5.5,7.5,8.1c5.4,6,8,12.9,8,20.7c0.1,6-2.3,11.7-7.2,17.1c-2.4,2.7-5.7,4.9-10,6.6c-4.3,1.7-9.3,2.6-14.8,2.6v0.4
		c-7.1-0.6-11-2.5-11.6-5.7L350.2,372.1z"/>
</g>
<g>
	<path fill="#201411" d="M73.8,255.7v-22h9.4c1,0,1.9,0.2,2.7,0.6c0.8,0.4,1.5,0.9,2.1,1.6s1,1.4,1.4,2.3s0.5,1.7,0.5,2.6
		c0,0.8-0.1,1.5-0.3,2.2c-0.2,0.7-0.5,1.4-0.9,1.9c-0.4,0.6-0.9,1.1-1.5,1.5c-0.6,0.4-1.2,0.7-1.9,0.9l5.3,8.4h-3.2l-5-7.9h-5.8v7.9
		H73.8z M76.6,245.3h6.7c0.6,0,1.1-0.1,1.6-0.4c0.5-0.2,0.9-0.6,1.2-1c0.3-0.4,0.6-0.9,0.8-1.5c0.2-0.6,0.3-1.1,0.3-1.7
		c0-0.6-0.1-1.2-0.3-1.8c-0.2-0.5-0.5-1-0.9-1.5c-0.4-0.4-0.8-0.8-1.3-1c-0.5-0.2-1-0.4-1.5-0.4h-6.5V245.3z"/>
	<path fill="#201411" d="M100.8,256c-1.2,0-2.3-0.2-3.3-0.7c-1-0.4-1.9-1-2.6-1.8c-0.7-0.8-1.3-1.7-1.7-2.7c-0.4-1-0.6-2.1-0.6-3.2
		c0-1.1,0.2-2.2,0.6-3.2c0.4-1,1-1.9,1.7-2.7s1.6-1.4,2.6-1.8c1-0.4,2.1-0.7,3.3-0.7c1.2,0,2.3,0.2,3.3,0.7c1,0.5,1.9,1.1,2.6,1.8
		c0.7,0.8,1.2,1.6,1.6,2.6c0.4,1,0.6,2,0.6,3.1c0,0.2,0,0.4,0,0.6c0,0.2,0,0.3,0,0.4H95.5c0.1,0.8,0.2,1.5,0.6,2.2
		c0.3,0.7,0.7,1.2,1.2,1.7c0.5,0.5,1.1,0.8,1.7,1.1s1.3,0.4,2,0.4c0.5,0,1-0.1,1.5-0.2c0.5-0.1,0.9-0.3,1.3-0.5
		c0.4-0.2,0.8-0.5,1.1-0.8c0.3-0.3,0.6-0.7,0.7-1.1l2.4,0.7c-0.3,0.6-0.6,1.1-1.1,1.6c-0.5,0.5-1,0.9-1.6,1.3
		c-0.6,0.4-1.3,0.6-2,0.9S101.6,256,100.8,256z M106.4,246.5c-0.1-0.8-0.3-1.5-0.6-2.1c-0.3-0.7-0.7-1.2-1.2-1.7
		c-0.5-0.5-1-0.8-1.7-1.1c-0.6-0.3-1.3-0.4-2-0.4c-0.7,0-1.4,0.1-2,0.4c-0.6,0.3-1.2,0.6-1.7,1.1c-0.5,0.5-0.9,1-1.2,1.7
		c-0.3,0.6-0.5,1.3-0.5,2.1H106.4z"/>
	<path fill="#201411" d="M117.6,256c-1.3,0-2.6-0.2-3.8-0.6c-1.3-0.4-2.3-1-3.3-1.8l1.2-1.8c0.9,0.7,1.9,1.3,2.8,1.6
		c0.9,0.4,2,0.5,3,0.5c1.2,0,2.1-0.2,2.8-0.7c0.7-0.5,1-1.1,1-2c0-0.4-0.1-0.7-0.3-1c-0.2-0.3-0.5-0.5-0.8-0.7s-0.8-0.4-1.4-0.6
		c-0.6-0.2-1.2-0.3-2-0.5c-1-0.2-1.8-0.5-2.5-0.7c-0.7-0.2-1.3-0.5-1.7-0.8c-0.5-0.3-0.8-0.7-1-1.1s-0.3-1-0.3-1.6
		c0-0.8,0.2-1.5,0.5-2.2c0.3-0.6,0.8-1.2,1.3-1.6c0.6-0.4,1.2-0.7,2-1c0.8-0.2,1.6-0.3,2.4-0.3c1.2,0,2.4,0.2,3.4,0.6
		c1.1,0.4,1.9,0.9,2.7,1.5l-1.2,1.6c-0.7-0.6-1.4-1-2.3-1.3c-0.8-0.3-1.7-0.4-2.6-0.4c-1,0-1.8,0.2-2.5,0.6c-0.7,0.4-1,1.1-1,2
		c0,0.4,0.1,0.7,0.2,0.9c0.1,0.2,0.4,0.5,0.7,0.7c0.3,0.2,0.7,0.4,1.2,0.5c0.5,0.1,1.1,0.3,1.8,0.5c1.1,0.2,2,0.5,2.8,0.8
		c0.8,0.3,1.5,0.6,2,0.9c0.5,0.4,0.9,0.8,1.2,1.2c0.3,0.5,0.4,1.1,0.4,1.7c0,1.5-0.6,2.7-1.7,3.6C121.2,255.6,119.6,256,117.6,256z"
		/>
	<path fill="#201411" d="M127.3,236.5v-3.4h2.7v3.4H127.3z M127.3,255.7v-16.2h2.7v16.2H127.3z"/>
	<path fill="#201411" d="M141.1,256c-1.1,0-2.1-0.2-3.1-0.7c-0.9-0.5-1.8-1.1-2.4-1.8c-0.7-0.8-1.2-1.7-1.6-2.7
		c-0.4-1-0.6-2.1-0.6-3.2c0-1.1,0.2-2.2,0.5-3.2c0.4-1,0.9-1.9,1.5-2.7s1.4-1.4,2.3-1.8c0.9-0.4,1.9-0.7,3-0.7c1.3,0,2.5,0.3,3.5,1
		c1,0.7,1.8,1.5,2.4,2.5v-9.7h2.7v19.3c0,0.6,0.3,1,0.9,1v2.4c-0.3,0-0.5,0.1-0.7,0.1s-0.3,0-0.5,0c-0.5,0-1-0.2-1.4-0.5
		c-0.4-0.4-0.6-0.8-0.6-1.3v-1.4c-0.6,1.1-1.5,1.9-2.6,2.5C143.4,255.7,142.2,256,141.1,256z M141.7,253.7c0.5,0,1-0.1,1.5-0.3
		c0.5-0.2,1-0.4,1.5-0.8s0.9-0.7,1.2-1.2c0.3-0.4,0.6-0.9,0.7-1.4v-4.6c-0.2-0.5-0.5-1-0.8-1.5c-0.4-0.5-0.8-0.9-1.3-1.2
		s-1-0.6-1.5-0.8c-0.5-0.2-1-0.3-1.6-0.3c-0.8,0-1.5,0.2-2.2,0.5c-0.6,0.3-1.2,0.8-1.7,1.4c-0.5,0.6-0.8,1.2-1.1,2
		c-0.2,0.7-0.4,1.5-0.4,2.2c0,0.8,0.1,1.6,0.4,2.3c0.3,0.7,0.7,1.4,1.2,1.9c0.5,0.5,1.1,1,1.8,1.3
		C140.2,253.5,140.9,253.7,141.7,253.7z"/>
	<path fill="#201411" d="M161,256c-1.2,0-2.3-0.2-3.3-0.7c-1-0.4-1.9-1-2.6-1.8c-0.7-0.8-1.3-1.7-1.7-2.7c-0.4-1-0.6-2.1-0.6-3.2
		c0-1.1,0.2-2.2,0.6-3.2c0.4-1,1-1.9,1.7-2.7s1.6-1.4,2.6-1.8c1-0.4,2.1-0.7,3.3-0.7c1.2,0,2.3,0.2,3.3,0.7c1,0.5,1.9,1.1,2.6,1.8
		c0.7,0.8,1.2,1.6,1.6,2.6c0.4,1,0.6,2,0.6,3.1c0,0.2,0,0.4,0,0.6c0,0.2,0,0.3,0,0.4h-13.4c0.1,0.8,0.2,1.5,0.6,2.2
		c0.3,0.7,0.7,1.2,1.2,1.7c0.5,0.5,1.1,0.8,1.7,1.1s1.3,0.4,2,0.4c0.5,0,1-0.1,1.5-0.2c0.5-0.1,0.9-0.3,1.3-0.5
		c0.4-0.2,0.8-0.5,1.1-0.8c0.3-0.3,0.6-0.7,0.7-1.1l2.4,0.7c-0.3,0.6-0.6,1.1-1.1,1.6c-0.5,0.5-1,0.9-1.6,1.3
		c-0.6,0.4-1.3,0.6-2,0.9S161.8,256,161,256z M166.6,246.5c-0.1-0.8-0.3-1.5-0.6-2.1c-0.3-0.7-0.7-1.2-1.2-1.7
		c-0.5-0.5-1-0.8-1.7-1.1c-0.6-0.3-1.3-0.4-2-0.4c-0.7,0-1.4,0.1-2,0.4c-0.6,0.3-1.2,0.6-1.7,1.1c-0.5,0.5-0.9,1-1.2,1.7
		c-0.3,0.6-0.5,1.3-0.5,2.1H166.6z"/>
	<path fill="#201411" d="M186.2,255.7h-2.7v-9c0-1.7-0.3-3-0.8-3.8c-0.5-0.8-1.3-1.2-2.4-1.2c-0.6,0-1.1,0.1-1.7,0.3
		c-0.6,0.2-1.1,0.5-1.6,0.9c-0.5,0.4-0.9,0.8-1.3,1.3c-0.4,0.5-0.7,1.1-0.8,1.7v9.8h-2.7v-16.2h2.5v3.5c0.6-1.1,1.6-2,2.8-2.7
		c1.2-0.7,2.5-1,3.9-1c0.9,0,1.7,0.2,2.3,0.5c0.6,0.3,1.1,0.8,1.5,1.4c0.4,0.6,0.6,1.3,0.8,2.2c0.2,0.8,0.2,1.7,0.2,2.7V255.7z"/>
	<path fill="#201411" d="M189.4,247.6c0-1.1,0.2-2.2,0.6-3.2c0.4-1,0.9-1.9,1.7-2.6c0.7-0.8,1.6-1.4,2.6-1.8s2.1-0.7,3.4-0.7
		c1.6,0,3,0.4,4.2,1.1s2,1.7,2.6,2.9l-2.7,0.8c-0.4-0.8-1-1.4-1.7-1.8c-0.7-0.4-1.6-0.6-2.5-0.6c-0.7,0-1.4,0.2-2.1,0.4
		c-0.7,0.3-1.2,0.7-1.7,1.3c-0.5,0.5-0.9,1.2-1.1,1.9c-0.3,0.7-0.4,1.5-0.4,2.4c0,0.8,0.1,1.6,0.4,2.4s0.7,1.4,1.2,1.9
		c0.5,0.5,1.1,1,1.7,1.3s1.3,0.5,2.1,0.5c0.5,0,0.9-0.1,1.4-0.2c0.5-0.1,0.9-0.3,1.3-0.5c0.4-0.2,0.7-0.5,1-0.8
		c0.3-0.3,0.5-0.6,0.6-1l2.7,0.8c-0.2,0.6-0.6,1.1-1,1.6c-0.4,0.5-1,0.9-1.6,1.3c-0.6,0.4-1.3,0.6-2,0.8s-1.5,0.3-2.3,0.3
		c-1.2,0-2.3-0.2-3.3-0.7c-1-0.5-1.9-1.1-2.6-1.8c-0.7-0.8-1.3-1.7-1.7-2.7C189.6,249.8,189.4,248.7,189.4,247.6z"/>
	<path fill="#201411" d="M207.6,236.5v-3.4h2.7v3.4H207.6z M207.6,255.7v-16.2h2.7v16.2H207.6z"/>
	<path fill="#201411" d="M218.9,256c-0.8,0-1.5-0.1-2.1-0.4c-0.7-0.3-1.2-0.6-1.7-1.1c-0.5-0.5-0.9-1-1.1-1.6
		c-0.3-0.6-0.4-1.3-0.4-2c0-0.7,0.2-1.4,0.5-2c0.3-0.6,0.8-1.1,1.4-1.6s1.3-0.8,2.2-1s1.7-0.4,2.7-0.4c0.8,0,1.6,0.1,2.4,0.2
		c0.8,0.1,1.5,0.3,2.1,0.6v-1.3c0-1.3-0.4-2.4-1.1-3.1s-1.8-1.1-3.2-1.1c-1.6,0-3.3,0.6-5.1,1.9l-0.9-1.8c2.1-1.4,4.2-2.1,6.3-2.1
		c2.1,0,3.8,0.6,5,1.7c1.2,1.1,1.8,2.7,1.8,4.8v6.6c0,0.6,0.3,1,0.9,1v2.4c-0.3,0-0.5,0.1-0.7,0.1s-0.4,0-0.6,0
		c-0.5,0-1-0.2-1.3-0.5c-0.3-0.3-0.5-0.7-0.6-1.2l-0.1-1.1c-0.7,1-1.6,1.7-2.7,2.2S220.1,256,218.9,256z M219.6,254
		c1,0,1.9-0.2,2.7-0.5c0.8-0.4,1.5-0.8,1.9-1.4c0.4-0.4,0.6-0.8,0.6-1.2v-2.4c-1.3-0.5-2.7-0.8-4.1-0.8c-1.4,0-2.5,0.3-3.3,0.9
		s-1.3,1.3-1.3,2.3c0,0.5,0.1,0.9,0.3,1.3c0.2,0.4,0.4,0.7,0.7,1c0.3,0.3,0.7,0.5,1.1,0.7C218.6,253.9,219.1,254,219.6,254z"/>
	<path fill="#201411" d="M232,233.1h2.7v18.4c0,0.6,0.2,1.1,0.5,1.4s0.8,0.5,1.3,0.5c0.2,0,0.5,0,0.8-0.1s0.6-0.2,0.9-0.3l0.4,2.2
		c-0.5,0.2-1,0.3-1.6,0.5s-1.2,0.2-1.6,0.2c-1.1,0-1.9-0.3-2.5-0.9c-0.6-0.6-0.9-1.4-0.9-2.5V233.1z"/>
	<path fill="#201411" d="M248.2,255.7v-22h9.2c1,0,1.9,0.2,2.7,0.6s1.5,0.9,2.1,1.6c0.6,0.7,1,1.4,1.4,2.3s0.5,1.7,0.5,2.6
		c0,0.9-0.2,1.8-0.5,2.6s-0.7,1.6-1.3,2.3c-0.6,0.7-1.2,1.2-2,1.6c-0.8,0.4-1.7,0.6-2.6,0.6H251v7.9H248.2z M251,245.3h6.4
		c0.6,0,1.1-0.1,1.6-0.4c0.5-0.2,0.9-0.6,1.2-1c0.3-0.4,0.6-0.9,0.8-1.5c0.2-0.6,0.3-1.1,0.3-1.8c0-0.6-0.1-1.2-0.3-1.8
		s-0.5-1-0.9-1.5c-0.4-0.4-0.8-0.7-1.3-1c-0.5-0.2-1-0.3-1.5-0.3H251V245.3z"/>
	<path fill="#201411" d="M275.6,241.9c-1.4,0-2.6,0.4-3.6,1.1c-1,0.7-1.8,1.6-2.2,2.8v10h-2.7v-16.2h2.5v3.7c0.6-1.1,1.3-2,2.2-2.7
		c0.9-0.7,1.9-1.1,2.9-1.2c0.2,0,0.4,0,0.5,0c0.1,0,0.3,0,0.4,0V241.9z"/>
	<path fill="#201411" d="M282.2,256c-0.8,0-1.5-0.1-2.1-0.4c-0.7-0.3-1.2-0.6-1.7-1.1c-0.5-0.5-0.9-1-1.1-1.6
		c-0.3-0.6-0.4-1.3-0.4-2c0-0.7,0.2-1.4,0.5-2c0.3-0.6,0.8-1.1,1.4-1.6c0.6-0.4,1.3-0.8,2.2-1c0.8-0.2,1.8-0.4,2.7-0.4
		c0.8,0,1.6,0.1,2.4,0.2c0.8,0.1,1.5,0.3,2.1,0.6v-1.3c0-1.3-0.4-2.4-1.1-3.1s-1.8-1.1-3.2-1.1c-1.6,0-3.3,0.6-5.1,1.9l-0.9-1.8
		c2.1-1.4,4.2-2.1,6.3-2.1c2.1,0,3.8,0.6,5,1.7c1.2,1.1,1.8,2.7,1.8,4.8v6.6c0,0.6,0.3,1,0.9,1v2.4c-0.3,0-0.5,0.1-0.7,0.1
		s-0.4,0-0.6,0c-0.5,0-1-0.2-1.3-0.5c-0.3-0.3-0.5-0.7-0.6-1.2l-0.1-1.1c-0.7,1-1.6,1.7-2.7,2.2S283.5,256,282.2,256z M282.9,254
		c1,0,1.9-0.2,2.7-0.5c0.8-0.4,1.5-0.8,1.9-1.4c0.4-0.4,0.6-0.8,0.6-1.2v-2.4c-1.3-0.5-2.7-0.8-4.1-0.8c-1.4,0-2.5,0.3-3.3,0.9
		s-1.3,1.3-1.3,2.3c0,0.5,0.1,0.9,0.3,1.3c0.2,0.4,0.4,0.7,0.7,1c0.3,0.3,0.7,0.5,1.1,0.7C282,253.9,282.4,254,282.9,254z"/>
	<path fill="#201411" d="M295.2,236.5v-3.4h2.7v3.4H295.2z M295.2,255.7v-16.2h2.7v16.2H295.2z"/>
	<path fill="#201411" d="M306.5,256c-0.8,0-1.5-0.1-2.1-0.4c-0.7-0.3-1.2-0.6-1.7-1.1c-0.5-0.5-0.9-1-1.1-1.6
		c-0.3-0.6-0.4-1.3-0.4-2c0-0.7,0.2-1.4,0.5-2c0.3-0.6,0.8-1.1,1.4-1.6c0.6-0.4,1.3-0.8,2.2-1c0.8-0.2,1.8-0.4,2.7-0.4
		c0.8,0,1.6,0.1,2.4,0.2c0.8,0.1,1.5,0.3,2.1,0.6v-1.3c0-1.3-0.4-2.4-1.1-3.1s-1.8-1.1-3.2-1.1c-1.6,0-3.3,0.6-5.1,1.9l-0.9-1.8
		c2.1-1.4,4.2-2.1,6.3-2.1c2.1,0,3.8,0.6,5,1.7c1.2,1.1,1.8,2.7,1.8,4.8v6.6c0,0.6,0.3,1,0.9,1v2.4c-0.3,0-0.5,0.1-0.7,0.1
		s-0.4,0-0.6,0c-0.5,0-1-0.2-1.3-0.5c-0.3-0.3-0.5-0.7-0.6-1.2l-0.1-1.1c-0.7,1-1.6,1.7-2.7,2.2S307.7,256,306.5,256z M307.2,254
		c1,0,1.9-0.2,2.7-0.5c0.8-0.4,1.5-0.8,1.9-1.4c0.4-0.4,0.6-0.8,0.6-1.2v-2.4c-1.3-0.5-2.7-0.8-4.1-0.8c-1.4,0-2.5,0.3-3.3,0.9
		s-1.3,1.3-1.3,2.3c0,0.5,0.1,0.9,0.3,1.3c0.2,0.4,0.4,0.7,0.7,1c0.3,0.3,0.7,0.5,1.1,0.7C306.2,253.9,306.7,254,307.2,254z"/>
	<path fill="#201411" d="M334,256c-1.1,0-2.1-0.2-3.1-0.7c-0.9-0.5-1.8-1.1-2.4-1.8c-0.7-0.8-1.2-1.7-1.6-2.7
		c-0.4-1-0.6-2.1-0.6-3.2c0-1.1,0.2-2.2,0.5-3.2c0.4-1,0.9-1.9,1.5-2.7s1.4-1.4,2.3-1.8c0.9-0.4,1.9-0.7,3-0.7c1.3,0,2.5,0.3,3.5,1
		c1,0.7,1.8,1.5,2.4,2.5v-9.7h2.7v19.3c0,0.6,0.3,1,0.9,1v2.4c-0.3,0-0.5,0.1-0.7,0.1s-0.3,0-0.5,0c-0.5,0-1-0.2-1.4-0.5
		s-0.6-0.8-0.6-1.3v-1.4c-0.6,1.1-1.5,1.9-2.6,2.5C336.3,255.7,335.2,256,334,256z M334.6,253.7c0.5,0,1-0.1,1.5-0.3
		c0.5-0.2,1-0.4,1.5-0.8c0.5-0.3,0.9-0.7,1.2-1.2c0.3-0.4,0.6-0.9,0.7-1.4v-4.6c-0.2-0.5-0.5-1-0.8-1.5c-0.4-0.5-0.8-0.9-1.3-1.2
		c-0.5-0.3-1-0.6-1.5-0.8c-0.5-0.2-1-0.3-1.6-0.3c-0.8,0-1.5,0.2-2.2,0.5s-1.2,0.8-1.7,1.4c-0.5,0.6-0.8,1.2-1.1,2
		c-0.2,0.7-0.4,1.5-0.4,2.2c0,0.8,0.1,1.6,0.4,2.3c0.3,0.7,0.7,1.4,1.2,1.9c0.5,0.5,1.1,1,1.8,1.3
		C333.1,253.5,333.9,253.7,334.6,253.7z"/>
	<path fill="#201411" d="M353.9,256c-1.2,0-2.3-0.2-3.3-0.7c-1-0.5-1.9-1.1-2.6-1.8c-0.7-0.8-1.3-1.7-1.7-2.7
		c-0.4-1-0.6-2.1-0.6-3.2c0-1.1,0.2-2.2,0.6-3.2s1-1.9,1.7-2.7c0.7-0.8,1.6-1.4,2.6-1.8c1-0.5,2.1-0.7,3.3-0.7s2.3,0.2,3.3,0.7
		s1.9,1.1,2.6,1.8s1.3,1.7,1.7,2.7c0.4,1,0.6,2.1,0.6,3.2c0,1.1-0.2,2.2-0.6,3.2c-0.4,1-0.9,1.9-1.7,2.7c-0.7,0.8-1.6,1.4-2.6,1.8
		C356.2,255.8,355.1,256,353.9,256z M348.5,247.7c0,0.8,0.1,1.6,0.4,2.4c0.3,0.7,0.7,1.4,1.1,1.9c0.5,0.5,1.1,1,1.7,1.3
		s1.3,0.5,2.1,0.5s1.4-0.2,2.1-0.5c0.7-0.3,1.2-0.7,1.7-1.3c0.5-0.5,0.9-1.2,1.2-1.9c0.3-0.7,0.4-1.5,0.4-2.4c0-0.8-0.1-1.6-0.4-2.3
		c-0.3-0.7-0.7-1.4-1.2-1.9c-0.5-0.5-1.1-1-1.7-1.3c-0.6-0.3-1.3-0.5-2.1-0.5s-1.4,0.2-2.1,0.5s-1.2,0.8-1.7,1.3
		c-0.5,0.5-0.9,1.2-1.1,1.9C348.7,246,348.5,246.8,348.5,247.7z"/>
	<path fill="#201411" d="M371,256c-1.3,0-2.6-0.2-3.8-0.6c-1.3-0.4-2.3-1-3.3-1.8l1.2-1.8c0.9,0.7,1.9,1.3,2.8,1.6
		c1,0.4,2,0.5,3,0.5c1.2,0,2.1-0.2,2.8-0.7c0.7-0.5,1-1.1,1-2c0-0.4-0.1-0.7-0.3-1c-0.2-0.3-0.5-0.5-0.8-0.7
		c-0.4-0.2-0.8-0.4-1.4-0.6s-1.2-0.3-2-0.5c-1-0.2-1.8-0.5-2.5-0.7c-0.7-0.2-1.3-0.5-1.7-0.8c-0.5-0.3-0.8-0.7-1-1.1
		c-0.2-0.4-0.3-1-0.3-1.6c0-0.8,0.2-1.5,0.5-2.2c0.3-0.6,0.8-1.2,1.3-1.6c0.6-0.4,1.2-0.7,2-1c0.8-0.2,1.6-0.3,2.4-0.3
		c1.2,0,2.4,0.2,3.4,0.6c1.1,0.4,1.9,0.9,2.7,1.5l-1.2,1.6c-0.7-0.6-1.4-1-2.3-1.3c-0.8-0.3-1.7-0.4-2.6-0.4c-1,0-1.8,0.2-2.5,0.6
		c-0.7,0.4-1,1.1-1,2c0,0.4,0.1,0.7,0.2,0.9c0.1,0.2,0.4,0.5,0.7,0.7s0.7,0.4,1.2,0.5c0.5,0.1,1.1,0.3,1.7,0.5
		c1.1,0.2,2,0.5,2.8,0.8c0.8,0.3,1.5,0.6,2,0.9c0.5,0.4,0.9,0.8,1.2,1.2c0.3,0.5,0.4,1.1,0.4,1.7c0,1.5-0.6,2.7-1.7,3.6
		S373,256,371,256z"/>
</g>
<g>
	<path fill="#213F7D" d="M308.9,418.8c0,0.5-0.1,0.9-0.3,1.2c-0.2,0.4-0.4,0.7-0.7,0.9s-0.7,0.4-1.1,0.6c-0.4,0.1-0.9,0.2-1.3,0.2
		H300v-11.2h5.8c0.4,0,0.7,0.1,1.1,0.3s0.6,0.4,0.8,0.7s0.4,0.6,0.5,0.9c0.1,0.3,0.2,0.7,0.2,1c0,0.5-0.1,1.1-0.4,1.5
		c-0.3,0.5-0.7,0.8-1.2,1.1c0.6,0.2,1.2,0.5,1.5,1C308.7,417.5,308.9,418.1,308.9,418.8z M301.8,412v3.3h3.3c0.2,0,0.4,0,0.6-0.1
		c0.2-0.1,0.3-0.2,0.5-0.3s0.3-0.3,0.3-0.5c0.1-0.2,0.1-0.4,0.1-0.7c0-0.5-0.1-0.9-0.4-1.2s-0.6-0.5-1-0.5H301.8z M307.1,418.5
		c0-0.2,0-0.5-0.1-0.7c-0.1-0.2-0.2-0.4-0.3-0.6s-0.3-0.3-0.5-0.4c-0.2-0.1-0.4-0.1-0.6-0.1h-3.7v3.4h3.6c0.2,0,0.4,0,0.6-0.1
		c0.2-0.1,0.4-0.2,0.5-0.4c0.1-0.2,0.3-0.3,0.3-0.5C307,418.9,307.1,418.7,307.1,418.5z"/>
	<path fill="#213F7D" d="M310.6,423.6c0.2,0,0.3,0.1,0.5,0.1c0.2,0,0.3,0,0.4,0c0.1,0,0.3,0,0.4-0.1c0.1-0.1,0.2-0.2,0.3-0.3
		c0.1-0.1,0.2-0.4,0.3-0.6c0.1-0.3,0.2-0.6,0.4-1l-3.4-8.3h1.8l2.6,6.7l2.3-6.7h1.6l-3.8,10.2c-0.2,0.5-0.5,0.9-0.9,1.2
		s-1,0.5-1.6,0.5c-0.1,0-0.3,0-0.4,0c-0.1,0-0.3,0-0.5-0.1V423.6z"/>
</g>
<g>
	<path fill="#213F7D" d="M323.8,410.4l3,8.5l3-8.5h2.3l-4.4,11.2h-1.8l-4.4-11.2H323.8z"/>
	<path fill="#213F7D" d="M336.9,421.8c-0.7,0-1.3-0.1-1.8-0.3c-0.5-0.2-1-0.5-1.4-0.9s-0.7-0.8-0.9-1.4c-0.2-0.5-0.3-1.1-0.3-1.6
		c0-0.6,0.1-1.1,0.3-1.7s0.5-1,0.9-1.4c0.4-0.4,0.8-0.7,1.4-0.9c0.5-0.2,1.2-0.3,1.8-0.3c0.7,0,1.3,0.1,1.8,0.3
		c0.5,0.2,1,0.5,1.4,0.9c0.4,0.4,0.7,0.8,0.9,1.4c0.2,0.5,0.3,1.1,0.3,1.6c0,0.1,0,0.3,0,0.4c0,0.1,0,0.2,0,0.3h-6.4
		c0,0.3,0.1,0.6,0.2,0.9c0.1,0.3,0.3,0.5,0.5,0.6c0.2,0.2,0.4,0.3,0.7,0.4c0.3,0.1,0.5,0.1,0.8,0.1c0.4,0,0.8-0.1,1.2-0.3
		c0.4-0.2,0.6-0.5,0.8-0.8l1.8,0.5c-0.3,0.6-0.8,1.2-1.5,1.6C338.7,421.6,337.9,421.8,336.9,421.8z M339.1,416.8
		c-0.1-0.6-0.3-1.1-0.7-1.5c-0.4-0.4-0.9-0.6-1.5-0.6c-0.3,0-0.6,0-0.8,0.2c-0.2,0.1-0.5,0.2-0.7,0.4c-0.2,0.2-0.3,0.4-0.5,0.6
		s-0.2,0.5-0.2,0.8H339.1z"/>
	<path fill="#213F7D" d="M347.5,415.2c-0.6,0-1.2,0.1-1.7,0.4c-0.5,0.2-0.9,0.6-1.1,1.1v5h-2.1v-8.3h1.9v1.8
		c0.1-0.3,0.3-0.5,0.5-0.8c0.2-0.2,0.4-0.4,0.6-0.6s0.5-0.3,0.7-0.4s0.5-0.1,0.7-0.1c0.1,0,0.2,0,0.3,0c0.1,0,0.1,0,0.2,0V415.2z"/>
	<path fill="#213F7D" d="M353.4,421.8c-0.6,0-1.2-0.1-1.7-0.4s-0.9-0.7-1.2-1.2v1.4h-1.9v-11.6h2.1v4.7c0.3-0.5,0.7-0.9,1.2-1.2
		c0.5-0.3,1-0.4,1.7-0.4c0.5,0,1,0.1,1.5,0.3c0.4,0.2,0.8,0.5,1.1,0.9s0.6,0.8,0.7,1.4c0.2,0.5,0.3,1.1,0.3,1.7
		c0,0.6-0.1,1.2-0.3,1.7c-0.2,0.5-0.5,1-0.8,1.4c-0.3,0.4-0.8,0.7-1.2,0.9C354.5,421.7,354,421.8,353.4,421.8z M352.8,420
		c0.3,0,0.6-0.1,0.9-0.2s0.5-0.3,0.7-0.5c0.2-0.2,0.4-0.5,0.5-0.8c0.1-0.3,0.2-0.6,0.2-1c0-0.3-0.1-0.7-0.2-1
		c-0.1-0.3-0.3-0.6-0.5-0.8c-0.2-0.2-0.4-0.4-0.7-0.6c-0.3-0.1-0.6-0.2-0.9-0.2c-0.5,0-0.9,0.2-1.3,0.5c-0.4,0.3-0.7,0.7-0.9,1.1v2
		c0.1,0.2,0.2,0.4,0.3,0.6s0.3,0.3,0.5,0.4c0.2,0.1,0.4,0.2,0.6,0.3C352.4,420,352.6,420,352.8,420z"/>
	<path fill="#213F7D" d="M362.6,421.8c-0.7,0-1.3-0.1-1.8-0.3c-0.5-0.2-1-0.5-1.4-0.9s-0.7-0.8-0.9-1.4c-0.2-0.5-0.3-1.1-0.3-1.6
		c0-0.6,0.1-1.1,0.3-1.7s0.5-1,0.9-1.4c0.4-0.4,0.8-0.7,1.4-0.9c0.5-0.2,1.2-0.3,1.8-0.3c0.7,0,1.3,0.1,1.8,0.3
		c0.5,0.2,1,0.5,1.4,0.9c0.4,0.4,0.7,0.8,0.9,1.4c0.2,0.5,0.3,1.1,0.3,1.6c0,0.1,0,0.3,0,0.4c0,0.1,0,0.2,0,0.3h-6.4
		c0,0.3,0.1,0.6,0.2,0.9c0.1,0.3,0.3,0.5,0.5,0.6c0.2,0.2,0.4,0.3,0.7,0.4c0.3,0.1,0.5,0.1,0.8,0.1c0.4,0,0.8-0.1,1.2-0.3
		c0.4-0.2,0.6-0.5,0.8-0.8l1.8,0.5c-0.3,0.6-0.8,1.2-1.5,1.6C364.3,421.6,363.5,421.8,362.6,421.8z M364.7,416.8
		c-0.1-0.6-0.3-1.1-0.7-1.5c-0.4-0.4-0.9-0.6-1.5-0.6c-0.3,0-0.6,0-0.8,0.2c-0.2,0.1-0.5,0.2-0.7,0.4c-0.2,0.2-0.3,0.4-0.5,0.6
		s-0.2,0.5-0.2,0.8H364.7z"/>
	<path fill="#213F7D" d="M375.9,421.7h-2.1V417c0-0.7-0.1-1.2-0.3-1.5c-0.2-0.3-0.6-0.5-1-0.5c-0.2,0-0.4,0-0.6,0.1
		c-0.2,0.1-0.4,0.2-0.6,0.4c-0.2,0.2-0.4,0.3-0.5,0.5c-0.2,0.2-0.3,0.4-0.3,0.7v4.8h-2.1v-8.3h1.9v1.5c0.3-0.5,0.7-0.9,1.3-1.2
		c0.6-0.3,1.2-0.4,2-0.4c0.5,0,0.9,0.1,1.3,0.3c0.3,0.2,0.6,0.4,0.8,0.7c0.2,0.3,0.3,0.7,0.4,1s0.1,0.8,0.1,1.2V421.7z"/>
	<path fill="#213F7D" d="M380.1,421.8c-0.4,0-0.8-0.1-1.1-0.2c-0.3-0.1-0.6-0.3-0.9-0.6c-0.3-0.2-0.5-0.5-0.6-0.8
		c-0.1-0.3-0.2-0.7-0.2-1c0-0.4,0.1-0.8,0.3-1.1c0.2-0.3,0.4-0.6,0.7-0.8c0.3-0.2,0.7-0.4,1.1-0.5s0.9-0.2,1.4-0.2
		c0.4,0,0.7,0,1.1,0.1c0.4,0.1,0.7,0.2,0.9,0.3v-0.5c0-0.5-0.2-1-0.5-1.3c-0.3-0.3-0.8-0.4-1.4-0.4c-0.4,0-0.9,0.1-1.3,0.2
		c-0.4,0.2-0.9,0.4-1.3,0.7l-0.6-1.3c1.1-0.7,2.2-1.1,3.5-1.1c1.2,0,2.1,0.3,2.8,0.9c0.7,0.6,1,1.4,1,2.5v2.6c0,0.2,0,0.4,0.1,0.5
		c0.1,0.1,0.2,0.1,0.4,0.2v1.8c-0.4,0.1-0.7,0.1-0.9,0.1c-0.4,0-0.7-0.1-0.9-0.3c-0.2-0.2-0.4-0.4-0.4-0.7l0-0.5
		c-0.4,0.5-0.8,0.9-1.3,1.1C381.2,421.7,380.7,421.8,380.1,421.8z M380.7,420.3c0.4,0,0.7-0.1,1-0.2c0.3-0.1,0.6-0.3,0.8-0.5
		c0.2-0.2,0.3-0.4,0.3-0.6v-1c-0.3-0.1-0.5-0.2-0.8-0.2c-0.3-0.1-0.6-0.1-0.9-0.1c-0.5,0-1,0.1-1.3,0.4c-0.3,0.2-0.5,0.6-0.5,0.9
		c0,0.4,0.1,0.7,0.4,0.9C379.9,420.2,380.3,420.3,380.7,420.3z"/>
</g>
<g>
	<path fill="#EECB52" d="M249.1,172.2c18,4.8,42.3,3.6,56.2,2.3l9.7-9.7c-23.5,5.9-50.9,3.9-58.5,3.2
		C254.1,169.5,251.6,170.9,249.1,172.2"/>
	<path fill="#EECB52" d="M207.5,72c5.6-2,11.7-3.1,18-3.1c30,0,54.3,24.3,54.3,54.3c0,6.8-1.3,13.3-3.6,19.4c5.7,0.6,14.4,1,23.9,0
		c16.3-1.8,15.8-8.8,26.8-8.1c5.1,0.3,11.6,1.4,16,2.3l11.4-11.4c2.3-2.3,2.3-6.1,0-8.5L253.3,15.7c-2.3-2.3-6.1-2.3-8.5,0L198,62.6
		"/>
	<path fill="#EECB52" d="M197.7,179.3l47.2,47.2c2.3,2.3,6.1,2.3,8.5,0l36.8-36.8c-53.1,6.5-87.7-12.6-87.7-12.6l-1.5-0.8
		L197.7,179.3z"/>
	<path fill="#EECB52" d="M327.2,152.6l10.4-10.4c-5.2,1-10.4,2-10.4,2c-8.1,0.7-6.6,4-17.8,7c-14.2,3.2-32,0.3-36.9-0.6
		c-0.6,1-1.1,2-1.8,2.9C293.1,157,315.2,154.5,327.2,152.6"/>
	<path fill="#59A8D7" d="M210.1,155.5c-4.5-6.8-7.1-6.1-11.9-2.1c-4.8,4-14,16.5-14.8,20.3c-0.8,3.9,0.5,4.7,6.3,4
		c3.7-0.4,6.1-0.2,7.3,2.4l19.2-19.2C214.5,161.1,212.7,159.5,210.1,155.5"/>
	<path fill="#59A8D7" d="M242.2,120.5c2.2-0.3,6.9-4,8.4-5.3l-9.8-9.8l-0.3,0.7c0,0-5.3,11.8-5.3,12.9S239.6,120.8,242.2,120.5"/>
	<path fill="#59A8D7" d="M183.9,188.4c-2.5,0.8-13,10.7-17.8,22.6l21.2-21.2C186.3,188.7,185.1,188,183.9,188.4"/>
	<path fill="#59A8D7" d="M60.6,109.2c5.2,0.6,4.3-2.4,4.5-6.7c0.2-4.3,3.4-7.5,7.7-6.7c4.3,0.9,1.1,11,7.5,10.1
		c6.5-0.9,9.9-3.9,9.2-11.8c-0.5-6-8.6-9.8-13.4-12.9l-23,23C54.8,106.2,57.4,108.8,60.6,109.2"/>
	<path fill="#59A8D7" d="M120.4,126.9c5.8,6.5,19.4,25.4,20.6,36.8c1.3,11.4-0.6,29.7,8,30.3c8.6,0.6,5.8-7,6.2-10.9
		c0.5-3.9,5-19.7,2.1-29.8c-2.9-10.2-5.2-15.3-8.9-17.6c-3.7-2.3-8.2-1.1-8.9-7.4c-0.6-6.3,8.9-6.3,8.9-6.3s1.5,0-0.5-5.3
		c-1.9-5.3-8.4-25-14-29.5s-11-2.1-11-7.4c0-5.3,2.6-8.2,7.9-7.3l5.3,1c0,0,0.5-0.8,0.5-3.7c0-2.9,0.5-10.5-0.3-13.7
		c-0.8-3.2-5.3-6.8-5.6-10.6c-0.3-3.9,1.3-5.5,4-6.1c2.7-0.6,3.9-2.3,4.2-7.9c0.2-3.6-0.2-9.7,1-13.7l-35.6,35.6l-0.4,10.9
		c0,0,6-1.1,6.7-5.8c0.6-4.7-0.4-11.4,3-11.2c3.4,0.2,9,5.2,9,5.2s3.4,1.5-2.1,8.6c-5.6,7.1-19.6,16.3-18.1,27.1
		c1.5,10.8,5.8,13.8,5.8,13.8s1.9-0.4,1.1-6.2s6.4-9.7,10.1-3.7c3.7,6,2.6,13.1-1.1,18.5C114.6,115.7,114.6,120.4,120.4,126.9"/>
	<path fill="#59A8D7" d="M79.1,163c0,0,11.4,7.5,15.1,7.3c3.7-0.2,2.4-6.5,6-7.3c3.7-0.9,5.6,4.7,8.8,3.4c3.2-1.3,8.8-8.6,8.8-8.6
		s0.9-1.9-2.4-6.5c-3.2-4.5-6-8.6-6-8.6s-1.9-2.6-5.6,1.1c-3.7,3.7-6.2,6.9-12.3,7.7s-13.3,3.7-15.3,0.2c-1.9-3.4,1.1-6.7-0.2-9
		c-1.3-2.4-9.5-1.9-7.5-9.9c1.9-8,12-6.7,16.8,0.9c4.7,7.5,14.6,1.9,14.6-1.9s-0.4-6-5-11.2c-4.5-5.2-15.5-3-15.5-3
		s-8.8,1.5-11.8,1.7c-3,0.2-5.4,1.5-6.2,4.9s-1.9,7.7-7.5,7.5c-5.6-0.2-6-5.6-4.7-9c1-2.6-0.4-8.2-2.6-11.9l-4.3,4.3
		c-3.1,3.1-3.1,8.1,0,11.2l36.3,36.3L79.1,163z"/>
	<path fill="#59A8D7" d="M142.1,224.9c0,0-16.8-24.1-20-53.8c0,0-4.1,3.7-5.2,4.9c-1.1,1.3-4.1,5.4-8.2,6c-2.2,0.3-7,0.1-11-0.1
		l43,43c0.4,0.4,0.9,0.8,1.4,1.1L142.1,224.9z"/>
	<path fill="#59A8D7" d="M152,16.7c-1.8-1.8-4.3-2.6-6.7-2.2c0,0,2.3,0.5,3.5,1.7c3.2,3.3,2.2,11.1,0.5,14.3
		c-1.5,3.5-3.4,9.8-0.5,10.6c2.9,0.8,6.9-4.8,12.3-5c5.3-0.2,8.7,4.8,6.9,9.5c-1.8,4.7-11.5,0.3-16.9,6.8
		c-5.5,6.5-3.5,16.5-2.1,24.7c1.5,8.2,3.2,27.6,11.6,27.3c8.4-0.3,6.8-6.8,5.2-7.9c-1.6-1.1-5.6-3.1-5.3-9.8
		c0.3-6.8,1.5-9.8,1.3-13.7c-0.2-3.9,0.2-7.6,4.4-7.3c4.2,0.3,5.6,6.9,5,9.5c-0.6,2.6-5.8,9.5-1,14c4.8,4.5,9.4-6.8,10.3-9.5
		c1-2.7,3.1-10,3.1-15.5c0-5.5,0.5-16.2,0.5-16.2L152,16.7z"/>
	<path fill="#59A8D7" d="M202.9,67.5c-1-0.3-2.1-0.5-3.5-0.6c-5.6-0.3-4.7-8.2-4.7-8.2L202.9,67.5z"/>
	<path fill="#59A8D7" d="M222.5,120.8c4.7,0.3,6.6-6.3,7.4-8.5c0.7-2,2.5-10.8,2.8-14.8L208,72.6l0.2,1.1c0,0-8.7,0.3-10.5,1.8
		c-1.8,1.5-10,15-10.5,17.4c-0.5,2.4,1.1,3.1,1.1,3.1s2.1,0,3.1-1.3c1-1.3,3.5-6.9,6.3-9.5c2.7-2.6,5.2-3.9,7.7-0.8
		c2.6,3.1,3.2,6,0.3,8.4c-2.9,2.4-8.7,6.1-7.6,12.3s4.8,16.9,6.9,17.3c2.1,0.3,5.6-2.1,6.6-5.6c1-3.5-3.5-12.3,4.8-12.6
		c8.4-0.3,4.2,10,4.2,10S217.8,120.5,222.5,120.8"/>
	<path fill="#59A8D7" d="M247.2,129.8c-2.2,0.1-4.7,0.2-6.5,0.7c-4,1-10.6,4.7-13.2,6c-2.6,1.3-5.5,3.2-8.1,3.1
		c-2.6-0.2-6.9,1.8-2.9,5.6c3.6,3.5,5.4,7.9,3.7,11.7L247.2,129.8z"/>
	<path fill="#F0D267" d="M383.8,392.9c0.5,0,0.3-0.4,0.4-0.5C383.4,392.5,383.9,393,383.8,392.9"/>
	<polygon fill="#F0D267" points="374.9,394 375.1,393.8 373.8,394.2 	"/>
	<path fill="#F0D267" d="M366.6,394c0.8,0.8,3-0.1,4.5,0.1l0.2,0.2l0.7-0.6C370.2,393.8,367.9,394.2,366.6,394"/>
	<path fill="#F0D267" d="M362.2,392.3c0.3,0.3-1,0.3,1,0.1c-0.1,0-0.1-0.1-0.2-0.1C362.8,392.3,362.6,392.3,362.2,392.3"/>
	<path fill="#F0D267" d="M363,392.3C363.9,392.3,362.4,392.1,363,392.3"/>
	<path fill="#F0D267" d="M358.9,392.5l1.2-0.3c-0.2-0.2-1.3-0.2-0.9-0.3C358,392,358.3,392.2,358.9,392.5"/>
	<path fill="#F0D267" d="M357.8,393l0.6-0.1C358.3,392.9,358.2,392.8,357.8,393"/>
	<path fill="#F0D267" d="M359.7,392.7l-1.3,0.2c0.2,0.1,0.2,0.4,0.6-0.1C358.9,393.1,359.2,392.9,359.7,392.7"/>
	<path fill="#F0D267" d="M360.4,392.8c0.6,0.2,1.5,0.3,0.3,0.5C363,393.2,362.6,392.7,360.4,392.8"/>
	<path fill="#F0D267" d="M366.2,394.8l0.9,0.2l0.8-0.3C367.4,394.9,366.1,394.5,366.2,394.8"/>
	<path fill="#F0D267" d="M351.7,392.1c-0.1,0.2,0.4,0.4,0.5,0.6l0.9-0.2C352.6,392.4,351.8,392.3,351.7,392.1"/>
	<path fill="#F0D267" d="M352.2,392.7l-1.3,0.3C352.1,393.1,352.3,392.9,352.2,392.7"/>
	<polygon fill="#F0D267" points="357.6,393.9 359.7,393.3 357.2,393.9 	"/>
	<polygon fill="#F0D267" points="346.9,392.1 347.6,391.7 346.3,392.3 	"/>
	<path fill="#F0D267" d="M343.6,392.1c0.5-0.3-0.7-0.5-0.2-0.7c-0.9,0.1-1.6,0.3-2.3,0.6C341.9,391.9,342.6,391.9,343.6,392.1"/>
	<path fill="#F0D267" d="M340,392.3c0.4-0.1,0.7-0.2,1.1-0.4C340.8,392.1,340.4,392.2,340,392.3"/>
	<path fill="#F0D267" d="M348.8,392.9c-0.1-0.1-0.3-0.4-1-0.5l0.5,0.5C348.4,392.9,348.6,392.9,348.8,392.9"/>
	<path fill="#F0D267" d="M348.3,393L348.3,393c-0.6,0-0.9,0-1.1,0C347.3,392.9,347.7,392.9,348.3,393"/>
	<path fill="#F0D267" d="M348.9,392.9c0,0-0.1,0-0.1,0C348.8,393,348.8,393,348.9,392.9"/>
	<path fill="#F0D267" d="M354.3,393.5c-0.8,0.3-2.3,0.5-0.8,0.9C354,394.1,353.2,393.9,354.3,393.5"/>
	<path fill="#F0D267" d="M349.5,393.5l1.4,0.1c0-0.1-0.3-0.3,0.1-0.4L349.5,393.5z"/>
	<polygon fill="#F0D267" points="348.9,393.7 349.5,393.5 349,393.5 	"/>
	<path fill="#F0D267" d="M342.3,392.8c-0.6,0.2-1.2,0.2-2,0.3c0.8,0.1,1.6,0.1,2.3,0.1C342.8,393,343.2,392.8,342.3,392.8"/>
	<path fill="#F0D267" d="M345.2,392.9c0,0-0.1,0-0.1,0C345.2,393,345.2,393,345.2,392.9"/>
	<polygon fill="#F0D267" points="333.3,393 333.4,393.1 333.4,393 	"/>
	<path fill="#F0D267" d="M342.9,393.3c0.6,0.1,0.9,0,1.3-0.2c-0.4,0-0.9,0.1-1.4,0.1C342.7,393.2,342.7,393.3,342.9,393.3"/>
	<path fill="#F0D267" d="M338,392.6c0.3,0.1,0.6,0.2,1,0.3C338.7,392.7,338.1,392.4,338,392.6"/>
	<path fill="#F0D267" d="M344.9,392.8C344.9,392.8,345,392.8,344.9,392.8C344.8,392.7,344.8,392.7,344.9,392.8"/>
	<path fill="#F0D267" d="M344.9,392.8c-0.3,0.1-0.5,0.2-0.8,0.3c0.4,0,0.7-0.1,1-0.2C345,392.9,345,392.8,344.9,392.8"/>
	<path fill="#F0D267" d="M331.1,396c0.1-0.4,1.6-0.8,3-0.4c1.3-0.3,0.5-1.7-0.7-2.5c0,0.2,0,0.4-1.4,0.6c0.5,0.2,3,0.5,1.8,0.9
		c-1.8,0.2-1.5-0.1-2.3-0.4c0.7,0.5-2.3,0.8-1.9,1.6l1.6-0.3C331.2,395.7,330.7,395.9,331.1,396"/>
	<path fill="#F0D267" d="M335.9,393.2l0.6-0.1c-0.6-0.1-1.1-0.2-1.9-0.6c-0.9,0.2-1.1,0.4-1.2,0.5l2.7,0.1L335.9,393.2z"/>
	<path fill="#F0D267" d="M339,393.1c-0.4,0.5-1.8,0.7-0.9,1.2c1.6,0,1.1-0.4,2.1-0.6C337.5,393.8,340.9,393.4,339,393.1
		c0.5,0,1-0.1,1.4-0.1c-0.5-0.1-0.9-0.1-1.4-0.2c0,0,0,0,0.1,0l0,0l0,0c0.1,0.1,0.1,0.1,0,0.1c0,0,0,0-0.1,0
		C339.1,393,339,393,339,393.1c-0.8-0.1-0.1-0.1,0.1-0.2c0,0,0,0,0-0.1l0,0l-2.6,0.3C337,393.2,337.7,393.2,339,393.1"/>
	<path fill="#F0D267" d="M352.1,395.4c-0.1,0-0.1-0.1-0.1-0.1C351.8,395.4,351.8,395.4,352.1,395.4"/>
	<path fill="#F0D267" d="M351,395.2c0.2-0.1,0.3-0.3,1-0.2c0.5,0.1,0,0.2,0,0.4c0.4-0.1,1.3-0.3,0.1-0.6l-0.2,0.1
		c-1.1-0.2-2.4-0.7-2.2-0.8C350,394.4,350.3,394.7,351,395.2"/>
	<path fill="#F0D267" d="M344.9,394.2l-2.2,0.2l1.1,0.4l-0.1-0.2C345,394.7,344.8,394.4,344.9,394.2"/>
	<polygon fill="#F0D267" points="333,392.8 333.3,392.3 332,393 	"/>
	<polygon fill="#F0D267" points="330.2,392.9 330.3,392.4 329.5,392.7 	"/>
	<path fill="#F0D267" d="M170.3,398.2l-0.6,0.1C170,398.2,170.2,398.2,170.3,398.2"/>
	<path fill="#F0D267" d="M175,398.2l0.1-0.2C174.9,398.1,174.8,398.2,175,398.2"/>
	<path fill="#F0D267" d="M260.6,393c-0.9-0.4-2-1-1.9-0.5l0.3,0.5C259.7,392.8,260.2,392.9,260.6,393"/>
	<path fill="#F0D267" d="M213,395.9c0.1,0,0.2,0.1,0.3,0.1c0.2-0.2,0.4-0.3,0.6-0.5C213.6,395.6,213.3,395.8,213,395.9"/>
	<path fill="#F0D267" d="M212.3,397.8l-1.2-0.3C211.4,397.6,211.8,397.7,212.3,397.8"/>
	<path fill="#F0D267" d="M145,398.5l-0.7,0.5C145.4,399,144.9,398.7,145,398.5"/>
	<path fill="#F0D267" d="M301.2,393.1c-0.8-0.2-1.4-0.3-2-0.3C300.1,393.1,300.9,393.5,301.2,393.1"/>
	<path fill="#F0D267" d="M172.2,393.2c-0.4,0.1-0.6,0.2-0.5,0.3C172,393.4,172.3,393.3,172.2,393.2"/>
	<path fill="#F0D267" d="M296.8,392.8c0.1,0,0.3,0.1,0.4,0.1c0.6-0.1,1.2-0.1,1.9-0.1C298.4,392.6,297.6,392.5,296.8,392.8"/>
	<path fill="#F0D267" d="M53.2,397.6c-0.1,0-0.1,0-0.2-0.1C52.9,397.6,53,397.6,53.2,397.6"/>
	<path fill="#F0D267" d="M26.5,392.7c0.3,0,0.7,0,1.1,0C27.4,392.6,27,392.6,26.5,392.7"/>
	<path fill="#F0D267" d="M318.8,392.7C319.4,392.6,318.9,392.6,318.8,392.7"/>
	<path fill="#F0D267" d="M321.7,394.5c-0.1,0.1-0.2,0.1-0.2,0.2C321.5,394.6,321.6,394.6,321.7,394.5"/>
	<path fill="#F0D267" d="M290.9,395.7C290.8,395.7,290.8,395.7,290.9,395.7C291,395.8,291,395.8,290.9,395.7"/>
	<path fill="#F0D267" d="M319.7,392.9c-0.2-0.1-0.5-0.1-0.8-0.1C319,392.8,319.3,392.8,319.7,392.9"/>
	<path fill="#F0D267" d="M319.6,392.7c0.2,0,0.4,0,0.5,0C320.2,392.6,320.1,392.6,319.6,392.7"/>
	<path fill="#F0D267" d="M318,392.7c0.3,0,0.7,0,1,0c-0.1,0-0.2-0.1-0.1-0.1C318.6,392.7,318.4,392.7,318,392.7"/>
	<path fill="#F0D267" d="M102.4,396.6c0,0-0.1,0-0.1,0C101.7,396.8,101.9,396.7,102.4,396.6"/>
	<path fill="#F0D267" d="M245,397.9C245,397.9,245,397.9,245,397.9C245,397.9,245,397.9,245,397.9L245,397.9z"/>
	<path fill="#F0D267" d="M242.8,398.3c0.9-0.6,1.4-0.5,2.1-0.4l-0.7-1.4L242.8,398.3z"/>
	<path fill="#F0D267" d="M159.2,398.2l1.5,0.4c-1.8,0.7-3.2,0.4-1.7,1c0.2-1.5,5.9-0.1,6.1-1.6l1,0.3c-0.3,0-0.3,0.1-0.6,0.1
		c1.9,0.7,1.4-1.1,3.9-0.8c0.9,0.1,1.5,0.3,0.9,0.5l1.9-0.4c0.6,0,0.4,0.3-0.1,0.3l3-0.1l0,0c0.4-0.2,1.4-0.6,1.8-0.7
		c0.8,0.2-0.4,0.2-0.2,0.3l1.6-0.3c0.7,0.4-0.7,0.7-1.8,0.7c1.5,1.5,1.4-0.4,4.7,0.5l-1.6,0.2c1,0.8,2.2,0.5,4,1.1
		c-0.4-0.3-3.5-1.3-1.7-1.7c0.5,0.1,1.2,0.2,2.1-0.1c0,0.5,0.9,0.4,2.1,0.4l-0.1,0.7c1.3-0.2,1.2-0.5,1.9-0.9c1.4,0.1,1.7,0.6,2,1.1
		c2.3,0.1-1.6-0.9,1.1-1c1.9,0.3,3.2,0,5.5-0.4c1.3,0.2-0.2,0.4,0.2,0.6l1.2-0.5c0.3,0,0.2,0.2,0.1,0.3c1-0.2,0.1-0.7,1.6-0.9
		c0.4-0.8,3.2,1.1,5.1,0.3c0.5,0.2-0.2,0.4-0.1,0.7c2.6-0.6,2.3-0.4,4.4-1.2l1.8,0.5c-1.4-0.5,0.4-1.1,1.9-1.6
		c-0.5-0.3-0.9-0.5-1.2-0.6l2.4-0.4c0.3,0.1,0,0.4-0.3,0.6c0.2-0.1,0.3-0.1,0.4-0.2c0.9,0.3,0.4,0.7-0.2,1c-0.3-0.1-0.6-0.3-0.9-0.4
		c-0.6,0.4-1.2,0.9-1,1.3c0.2-0.1,0.5-0.1,0.8-0.2c-0.2,0.1-0.3,0.2-0.2,0.3c0.1,0.1,0.3-0.1,0.7-0.3l0.5,0.8l0.1-0.3l3.2,0.5
		c2.3-0.8,4.2-1.9,7.8-2.3c-0.9,0.6-0.2,0.9-0.2,1.6c-1-0.7-2.8,0.3-4.6,0.2c1,0.1,0.8,0.4,0.5,0.5l3.3-0.7
		c-0.1,0.5,0.7,0.4,1.6,0.6c-0.7-1.1,2.5-0.7,3.8-1.1c0.1,0.4-0.2,0.7-1.9,0.7c1.8,0.8,2.3-1.3,4.1-0.6c-0.4,0-0.6,0-0.8,0.1
		c0.9-0.3,3.2-0.1,2.7,0.2l-0.4,0c2.7,0.1,8.1,0,8.5-0.9c0,0.1-0.4,1.1-0.5,1.3l4.8-3.1c-0.4,0.8,1.2,2.7-1,3.1
		c0.6,0.1,1.4,0.2,2.8,0c-0.4-0.1-1.1-1.1-0.5-1.2c1.6,0.9,1.1,0.5,3.1,1.2c-0.6-0.2,0.1-1.4,1.1-1.4c-0.2,0.2,0.1,1.2-0.3,1.4
		l2.6-1.2c-0.6,0.2-0.1,1,0.5,1.4c-0.3-0.2,2.2,0,2.9-0.1l-1.1-0.3c2.9,0.2,2.8-1.7,5.7-1.7c-0.3,0.3-0.9,1.6,0.6,1.7
		c0.7-0.6,3-3,5.5-3.5l0.5,0.4l1.9-0.4c-1.2,0.9-4.6,2.9-6.5,3.7c1.1,0.3,0.3,0.4,1.9,0.4c0.6,0.3-0.9,0.5-1.4,0.5l3.8,0.2
		c-0.2-0.7,2.9-0.7,2.7-1.3l-4.1,0.8c-0.2-0.7,2.4-2.1,5-1.9c0.7,0.3-0.5,1.3-0.5,1.5c0.3-0.3,2.5-0.5,2.8-0.3L273,398
		c1.5,0.3,2.4-1,4.2-0.3c0.6,0,1.8,0.9,1.9,0.5c-1-0.8-1.2-3.4-0.5-4c0.2,0.1,3.2,0.8,3.9,1.2c1,0.7-1.5,1.6-0.7,2.1
		c0-0.2,0.6-0.4,0.8-0.5c0.6,0.2-0.3,0.6,1.1,0.5c0.2-0.7,2.9,0.1,0.7-0.6c1.4-0.2,1.5,0.2,3.1,0.1c-0.5-0.5,1.4-1.6,2.8-1.8
		c-0.1,0.2,0.2,0.4,0.4,0.5c2.8,0.1,4.3,0.4,7,0.4c0.2,0.2,1.5,0.4,1,0.7c0.4-0.1,0.7-0.4,1.5-0.4c1.6,0.6-1.8,0.1-0.6,0.9
		c0.1-0.4,2.1-0.6,3.3-0.9c-0.4-0.7-2.7-0.1-3.8,0.1c0-0.9,2-1.9,4.8-2.3c2.2-0.2,0.9,0.6,1.3,0.5c4.1,0.2,3.5-1.6,6.9-0.9
		c1.4,0.6,0.1,1.2,0.4,1.6c-1.8,0.2-2.7-0.4-3.9-0.3l1.5,0.3c-0.6,0.2-1.8,0.3-2.4,0.2c1.1,0.5,6.9,0.1,10.1,0.6
		c0.6-0.2,1.5-0.4,1.1-0.6l-1,0.1c-0.9-0.5,1.9-0.7,0.6-0.9c1.3-0.3,2.8-0.9,4.7-0.6l0.4,0.7c0-0.2-1.2-0.4-1.8-0.2
		c0.8-0.3,2.9,0.9,3.8,0l-1.3-0.5c1.3-0.3,3-1,4.7-0.8c-0.8-0.7-0.4,0.1-1.6-0.7c1,1-4.3,0-2.6,1c-1.2-0.9-2.1-0.4-3.7-1.1
		c0,0.2,0.6,0.4-0.8,0.3c-0.1,0.1-0.2,0.1-0.3,0.2c0,0-0.1,0-0.1,0c0,0,0,0,0.1,0c-0.1,0-0.1,0,0,0c0.3,0.1,0.6,0.2,0.7,0.3
		c-0.7,0.5-2.9,0.5-3.7,0.8c-0.8-0.1,0.3-0.3-0.1-0.5l-1.1,0.4c-0.1-0.5-2.2-0.8-0.3-1.1l-1.8,0c-1-0.3-2.5-0.4-3.4-0.2
		c-0.8-0.1-2.1,0.5-1.4,0.2l-2.8,0.3l0-0.1c-2.7-0.1-5.6,0.8-8.8-0.1c-0.9,0.1-1.9,0.3-3.4,0.1l-0.3-0.4c-1.2,0.1-3.6-0.4-4.1,0
		c-1.3-1.1-5.7-0.2-7.8-0.4l-0.1,0.6c-1.4,0-2.8,0.1-4.6,0.4l0.1,0.5c-1.5,0.4-3.9-0.3-6.4-0.3c0.2-0.2,0.8-0.1,1.2,0
		c-2.9-1.1-6.1,0.8-8.7,0c-0.7,0.2-1.1,0.1-1.6,0c0.1,0,0.1,0,0.2,0c-0.1,0-0.2,0-0.3,0c-0.3-0.1-0.6-0.2-0.9-0.3
		c0.3,0.1,0.5,0.2,0.8,0.3c-0.5,0-1.3,0.1-2,0.2l-0.3-0.5c-0.1,0-0.1,0-0.2,0c-0.7-0.2-0.6,0.2-0.2,0.6c-0.4,0.1-0.7,0.2-1,0.3
		c-0.6-0.8-2,0.3-2.8-0.6c-0.5,0.4-3.8,0.3-4.2,1.3c0-0.1-0.2-0.2,0.2-0.2c-0.8-0.1-1.7-0.2-2.4,0.1l-0.4-0.7l-1.8,0.9
		c-1.1-0.4-1.6-0.6-0.5-1.1c-2.7,0.8-2.2,0.3-4.4,1.1l0.1-0.4c-0.8,0-2.1,0.6-2.6,0.2c-1.8-0.8-9-0.1-13.6-0.9
		c0.9,1.3-2.2-0.6-2.3,0.4c-0.3-0.3-0.9-0.5-0.2-0.7c-2.4,0.3-3.6-0.5-5.2,0.4c-0.3-0.3,0.5-0.4,0.3-0.6c-0.2,0.1-0.8,0.3-1,0.1
		c-0.2-0.2,0.3-0.3,0.7-0.4c-2.4,0.1-2.7,1-2.8,1.8c-1.2-0.4-1.8-0.3-2.7,0.2c-0.4-0.3-1.1-0.6,0.4-0.7c-0.8,0-5.2-0.4-5.3,0.3
		c-0.3-0.2-1.2-0.1-1.4,0c-1.9,0-2.1-0.1-3.9,0l0.5,0.1c-0.7,0.8-1.6,0.2-3.1,0.3l0-0.1c-3.4-0.6-1.5,0.3-4.9-0.4l0.2,0.5
		c-0.3,1.1-3-0.7-5-0.3l0.7,0.3c-1.1,0.4-3-1.5-4.1-1.7c-0.2-0.1,0.4-0.2,0.7-0.2c-2.8-0.7-0.4,0.7-2.5,0.8c-0.4-0.4,0.5-0.9-0.9-1
		c-0.7-0.3-4.1,1.2-6.1,0.5c0.4,0.3,0.9,0.6-0.1,0.8c-1.5,0.1-4.1-1.1-5.4-0.2c-0.2-0.1-0.3-0.2-0.3-0.2c-1.2,0.2-3.7,0.4-4.4,0.8
		c-1.1-1.8-7.1,0.8-7.1-0.8l-3.5,0.1l0.1-0.2c-2.3-0.1-3.1,0.3-3.9,0.7c-0.5-0.1-0.1-0.3-0.1-0.4c-3.3-0.4-3.6-0.3-6.4,0.5l-0.3-0.5
		c-0.8,0.3-4.8-0.9-8-0.3c0-0.1,0.1-0.2,0.4-0.2c-3.6,0.6-8.7-1.5-10.1,0.4l-2.4,0.5c3.1,0.2-0.5,0.8,0.8,1.2
		c-1.2,0.1-3.2-0.6-1.7-0.7l0.2,0.1c0.6-1-3.9-0.4-3.8-1.1c-6.1,0-12.1-0.6-17.8-0.7l0.7,0.8l-2-0.1c-0.5-0.2-0.7-0.6,0.7-0.6
		c-0.7-0.5-2.4,0.4-2.4,0.5c-2.8-0.3,1.1-0.9,0.2-0.9l-1.2,0.1l0.3,0.1c-0.9,0.3-1,0.7-2.7,0.6c-1.1-0.2-0.6-0.5-1-0.5
		c0-0.1-0.1-0.1-0.7,0l-2.5-0.1l1,0.6c-1.1,0.3-2.4,0-1.2,0.7c-1.7-1.1-9.4-0.4-10.4-0.8c-1.6,0.4-3.1,0.4-5,0.4
		c0.5,0.1,0.8,0.8-0.9,0.7c0.6-1.4-3-0.6-4.3-1.7c1.2,0.7-4.7,0.1-2.8,1.1c-1.4-0.1-0.1-0.5-1.1-0.9c-3.3,0.5-7.2-0.4-11.3-0.2
		c-0.1,0.2,0.6,0.5-0.3,0.8l-2.1-1c-0.8,0.1-0.7,1.1-2.2,0.4c0.2,0.2,0.5,0.4,0,0.5c-7.9-1-16.2,0.7-24.3-1.1
		c1.1,0.4,0.4,0.4-0.5,0.4c0.5,0.1,0,0.5,0.1,0.7l-3.4-0.7c-0.6,0.7-3.6,0-4,0.7l1.1-0.1c-1.4,0.8,2,1.8,1.7,2.8
		c1.6-0.9,4.2,1.4,6.8,0.1c0.6,0.2-0.5,0.3-0.2,0.6c0.7-0.4,1.5-0.5,2.9-0.3l-0.2,0.1c4.2-0.1,5.9,0.4,10.6,0.7l-0.3-0.5
		c1,0.1,1.2,0.2,1.7,0.4c1.2-0.8-2.8-0.1-1.8-0.9c1.3,1.1,7.1,0.1,8,1.3c1.5,0-0.4-0.6,1.1-0.6l0.4,0.3l0.4-0.4
		c1,0.1,1.5,0.5,1.6,0.8c-0.2,0-0.7,0.1-1,0.1c1.3,0.4,3.7-0.1,4.2,0l-1.5-0.2c4.2-0.3,9.4,0.2,13.4-0.5l-0.3-0.2
		c3.1-0.4,2.5,0.3,5.9,0.1l-0.1,0.1c0.7-0.2,1.6-0.4,2.5-0.3c-0.9,0.3,1.6,0.6,0.5,0.9c3.4-0.5,1.7-0.4,3.9-1.3l0.5,0.4
		c0.8-0.4,0.8-0.6,2.5-0.6c-1.4,0.3,1.1,0.6-0.5,1.1c3.6,0.9,5.3-0.9,7,0.4c1.7-1.1-3.1-0.6-2.2-0.9c-0.8-0.4,1.4-0.8,2.5-0.7
		c1.1,0,1.9,1.4,4.8,1.4c-0.3,0-0.3,0.1-0.6,0.1c1.1,0.3,2.1-0.4,3.4,0.1c0.7-0.7,1.7,0,1.9-0.8l-2.6,0.2c1.5-0.2,2.9-1.2,5.4-0.7
		c-0.2,0.2-0.9,0.4-1.4,0.5c0.7,0.3,1.4-0.2,2.1,0.1c-0.2,0.9-3.2,0.2-4.8,0.8c0.8,0.4,3-0.6,2.2,0.3c1.2-1.2,2.8,0.2,4.8-0.7
		l-0.1,0.5c0.3-0.1,1-0.3,1.5-0.3l-1,0.7c1.6-0.6,3,0.5,4.6,0.2c-3.2,0-0.7-0.6-2-1c3.9-0.7,2.2,1.4,6.6,1.1
		c-0.6,0.1-2.2-0.3-1.3-0.6c0.8,0.1,1.9,0.3,2.4,0.6c2.9-0.1-0.4-0.5,0.8-0.8c1,0.6,1.4-0.2,2.7-0.4l0,0.5c3.3,0.4,0.9-1.1,3.9-0.7
		l-1.3,0.7l1.5-0.2l-0.3,0.6c1.7-0.4,2.2-0.3,3.9-0.1c-0.4-0.4,0.2-0.9,1.7-1c1,0.3-0.6,0.5,1.5,0.4c-0.5,0.3-1,0.7-1.9,0.2
		c-0.1,0.2-0.5,0.3-0.6,0.5c1.1,0.4,2.7,0.1,3.5,0.1c-0.3,0-0.6-0.1-0.8-0.1l3-0.7c0.5,0.2,0.1,0.4-0.3,0.5c0.6-0.1,1-0.3,1.9-0.3
		c-0.2,0.4-0.2,0.9-1.4,1.1l2.9-0.5c0.2,0.2,1.5,0.5,1.1,0.7c1.6,0.3,3.9-0.8,6-0.5c0.1-0.1,0.3-0.2,0.8-0.2c2,0.1,3.7,0.6,6.1,0.1
		l1.3,0.8c1.8-0.2-1.8-1,1.3-1.2c2.2-0.2,0.8,0.7,1.6,0.9c1.1-0.4,3-1.1,4.9-0.5C160.4,398.3,159.9,398.2,159.2,398.2 M181.9,398
		c-0.4,0.1-1.3,0.4-1.6,0.1C180.8,397.6,181.1,397.8,181.9,398 M216.3,396.9c-0.3,0.2-0.8,0.1-1.4-0.1
		C215.3,396.7,215.8,396.7,216.3,396.9 M312.2,393.1C312.2,393.1,312.2,393.1,312.2,393.1C311.2,392.9,311.5,393,312.2,393.1
		 M314.2,393.3c0.2-0.1,0.2-0.1,0.1-0.2c-0.1,0.1-0.6,0.1-1.1,0.1C313.4,393.4,313.6,393.5,314.2,393.3 M96,393.1l0.4,0.1
		C95.5,393.3,95.7,393.2,96,393.1"/>
	<path fill="#F0D267" d="M212.4,397.6c-0.1-0.1-0.2-0.2-0.2-0.3C212.1,397.4,212,397.5,212.4,397.6"/>
	<path fill="#F0D267" d="M145.2,398.4L145.2,398.4c-0.1,0-0.1,0.1-0.1,0.1L145.2,398.4z"/>
	<path fill="#F0D267" d="M282.8,397.8c-0.4-0.1-0.7-0.2-0.8-0.3C281.9,397.7,282.1,397.8,282.8,397.8"/>
	<path fill="#F0D267" d="M325,392.4l-1.3,0.1c0.6,0,0.9,0.1,1.2,0.2C324.8,392.6,324.6,392.4,325,392.4"/>
	<path fill="#F0D267" d="M336.3,395.7c0.2-0.1,0.4,0,0.6-0.1l-0.1-0.2C336,395.4,335.5,395.6,336.3,395.7"/>
	<path fill="#F0D267" d="M326.2,394.2c0.1,0.4,0.9,0.3,1.8,0.2c-0.1,0-0.1,0-0.2,0C328.1,393.8,327.2,394,326.2,394.2"/>
	<path fill="#F0D267" d="M328.3,394.4c0.3,0,0.6,0,0.8,0C329.2,394.1,328.8,394.3,328.3,394.4"/>
	<path fill="#F0D267" d="M316.8,393c0.4,0.1,0.3-0.6,0.5-0.4C317.8,392.1,314.4,393.3,316.8,393"/>
	<polygon fill="#F0D267" points="326.9,395.6 326.6,395.1 326.1,395.5 	"/>
	<path fill="#F0D267" d="M319.7,395.2l1.5,0.1c0-0.1,0.2-0.1,0.4-0.2C320.7,395.2,319.7,395.1,319.7,395.2"/>
	<path fill="#F0D267" d="M321.6,395.2c0.5,0,0.9,0,1.2-0.1C322.5,395.1,322,395.1,321.6,395.2"/>
	<polygon fill="#F0D267" points="325,395.8 324.5,395.7 323.5,395.6 	"/>
	<path fill="#F0D267" d="M304.1,395.1l-1.6,0.2c-0.2,0.2,0.3,0.3,0.9,0.2C303.7,395.4,304.3,395.3,304.1,395.1"/>
	<path fill="#F0D267" d="M308.9,396.6c-0.4-0.1-0.5-0.2-0.7-0.4l0,0.7L308.9,396.6z"/>
	<path fill="#F0D267" d="M304.3,396.8c-0.2,0.2-2.3,0.5-0.3,0.5C304.1,397.1,305.7,396.9,304.3,396.8"/>
	<polygon fill="#F0D267" points="280.3,396 280.7,396 280.6,394.8 	"/>
	<path fill="#F0D267" d="M259.2,398.6c1.9,0.3,0.4-0.7,2.1-0.4c0.4-0.3-1.4-0.3-0.9-0.5C259.2,398.1,258.7,397.9,259.2,398.6"/>
	<path fill="#F0D267" d="M260.4,397.8c0.2,0,0.4-0.1,0.6-0.2C260.6,397.7,260.5,397.7,260.4,397.8"/>
	<polygon fill="#F0D267" points="22,392.1 20.8,391.8 21.6,392.2 	"/>
	<path fill="#F0D267" d="M19.7,392.9l-0.3-0.7l-0.7,0.6C19,392.8,19.5,392.7,19.7,392.9"/>
	<path fill="#F0D267" d="M185.3,399.5l0.1-0.2c-0.2-0.2-0.5-0.2-1-0.2L185.3,399.5z"/>
	<polygon fill="#F0D267" points="168.8,398.8 169.1,398.9 168.6,398.2 	"/>
	<path fill="#F0D267" d="M155,399.6c0.6,0,1.2-0.1,1.8-0.1C155.6,399.6,154.9,398.8,155,399.6"/>
</g>
</svg>
